<?xml version="1.0" encoding="UTF-8"?>
<svg width="15px" height="16px" viewBox="0 0 15 16" version="1.1" xmlns="http://www.w3.org/2000/svg" xmlns:xlink="http://www.w3.org/1999/xlink">
    <!-- Generator: Sketch 48.2 (47327) - http://www.bohemiancoding.com/sketch -->
    <title>Untitled</title>
    <desc>Created with Sketch.</desc>
    <defs></defs>
    <g id="Page-1" stroke="none" stroke-width="1" fill="none" fill-rule="evenodd">
        <g id="audio" fill="#009D90" fill-rule="nonzero">
            <path d="M14.7264667,0.267252257 C14.5443279,0.0890617976 14.3228881,0 14.0625236,0 C13.9583366,0 13.8670449,0.012804305 13.7890929,0.0382123254 L5.66409145,2.48169496 C5.46885226,2.54531531 5.30928834,2.6582807 5.18557072,2.82052429 C5.06192152,2.98286816 5.0000456,3.16259647 5.0000456,3.35990981 L5.0000456,12.5899415 C4.43355095,12.3416785 3.80860084,12.2175469 3.12502423,12.2175469 C2.83209703,12.2175469 2.51792885,12.2509451 2.1826907,12.3176411 C1.84728154,12.3843371 1.51033317,12.4861699 1.17187981,12.6230054 C0.833255423,12.759841 0.553360135,12.952407 0.331954512,13.2004027 C0.1106173,13.4485654 0,13.7319318 0,14.0500001 C0,14.3683024 0.1106173,14.6513344 0.331954512,14.8995975 C0.553360135,15.1476266 0.833221219,15.3401926 1.17187981,15.4769947 C1.51046999,15.6138303 1.84741836,15.7155626 2.1826907,15.782359 C2.51792885,15.8490551 2.83209703,15.8823529 3.12502423,15.8823529 C3.41795142,15.8823529 3.73201699,15.8490551 4.06735775,15.782359 C4.40276691,15.7155626 4.73957846,15.6138303 5.07816865,15.4769947 C5.41665621,15.3401591 5.6965515,15.1475931 5.91788872,14.8995975 C6.13943116,14.6513344 6.25001426,14.3682689 6.25001426,14.0500001 L6.25001426,7.28277443 L13.7500655,5.02062483 L13.7500655,10.1462584 C13.1834341,9.89812897 12.5585866,9.77386368 11.8750099,9.77386368 C11.5820486,9.77386368 11.2678462,9.80716156 10.932608,9.87395788 C10.5972331,9.94065397 10.26049,10.0424866 9.92183135,10.1793221 C9.58334382,10.3161577 9.30334588,10.5087238 9.08183762,10.7569534 C8.86060306,11.0048823 8.7496437,11.2881817 8.7496437,11.6063169 C8.7496437,11.9246192 8.86060306,12.2076512 9.08183762,12.4559142 C9.30334588,12.7040771 9.58330959,12.8966431 9.92183135,13.0333115 C10.2603531,13.1701471 10.5972331,13.2719797 10.932608,13.3388095 C11.2678462,13.4056059 11.5820144,13.43877 11.8750099,13.43877 C12.1678688,13.43877 12.4820369,13.4056059 12.8172751,13.3388095 C13.1525474,13.2719797 13.4893931,13.1701471 13.8281544,13.0333115 C14.1666761,12.8966096 14.4464346,12.7040436 14.6679086,12.4559142 C14.8895195,12.2076512 15,11.9245857 15,11.6063169 L15,0.916059432 C14.9998974,0.661578046 14.9090502,0.44534242 14.7264667,0.267252257 Z" id="Shape"></path>
        </g>
    </g>
</svg>