<?xml version="1.0" encoding="UTF-8"?>
<svg width="18px" height="21px" viewBox="0 0 18 21" version="1.1" xmlns="http://www.w3.org/2000/svg" xmlns:xlink="http://www.w3.org/1999/xlink">
    <!-- Generator: Sketch 48.2 (47327) - http://www.bohemiancoding.com/sketch -->
    <title>Untitled</title>
    <desc>Created with Sketch.</desc>
    <defs></defs>
    <g id="Page-1" stroke="none" stroke-width="1" fill="none" fill-rule="evenodd">
        <g id="Group" transform="translate(0.400544, 0.980955)">
            <polygon id="Path-2" stroke="#009D90" stroke-linecap="round" stroke-linejoin="round" points="0.721389279 18.7150559 16.3849082 18.7150559 16.3849082 5.75214363 10.7072077 0.0744431596 0.717909797 0.0744431596"></polygon>
            <polyline id="Path-3" stroke="#009D90" stroke-linejoin="round" points="10.6068981 0.407957621 10.6068981 5.81738006 16.3849082 5.81738006"></polyline>
            <path d="M9.92610626,7.18652155 C9.83408686,7.08484026 9.72221196,7.0340187 9.5906717,7.0340187 C9.53803478,7.0340187 9.49191276,7.04132525 9.45253018,7.0558239 L5.34765083,8.45015474 C5.2490129,8.48645858 5.16839868,8.55092032 5.10589458,8.6435018 C5.04342505,8.7361405 5.01216436,8.83869934 5.01216436,8.95129276 L5.01216436,14.2182497 C4.72596229,14.0765828 4.4102276,14.0057492 4.06487388,14.0057492 C3.91688242,14.0057492 3.75815968,14.0248073 3.58879206,14.0628662 C3.41933805,14.1009251 3.2491064,14.1590343 3.0781144,14.2371171 C2.907036,14.3151999 2.76562847,14.4250843 2.65377085,14.5665988 C2.54194778,14.7082085 2.48606217,14.8699066 2.48606217,15.0514067 C2.48606217,15.2330404 2.54194778,15.3945477 2.65377085,15.5362147 C2.76562847,15.6777482 2.90701872,15.7876326 3.0781144,15.8656964 C3.24917552,15.9437792 3.41940717,16.001831 3.58879206,16.0399472 C3.75815968,16.0780062 3.91688242,16.097007 4.06487388,16.097007 C4.21286533,16.097007 4.37153623,16.0780062 4.54095569,16.0399472 C4.71040971,16.001831 4.88057224,15.9437792 5.05163336,15.8656964 C5.22264263,15.7876135 5.36405016,15.6777291 5.47587323,15.5362147 C5.58779998,15.3945477 5.64366831,15.2330213 5.64366831,15.0514067 L5.64366831,11.1898072 L9.43281292,9.89895088 L9.43281292,12.8238045 C9.14654177,12.6822137 8.83085892,12.6113039 8.48550515,12.6113039 C8.33749646,12.6113039 8.17875644,12.6303048 8.00938879,12.6684209 C7.83995208,12.7064799 7.66982414,12.7645889 7.49872843,12.8426717 C7.32771917,12.9207546 7.18625978,13.0306391 7.0743503,13.172287 C6.9625791,13.3137633 6.90652067,13.4754231 6.90652067,13.6569615 C6.90652067,13.8385951 6.9625791,14.0001024 7.0743503,14.1417694 C7.18625978,14.2833792 7.32770188,14.3932636 7.49872843,14.4712511 C7.66975497,14.5493339 7.83995208,14.6074429 8.00938879,14.6455782 C8.17875644,14.6836944 8.33747918,14.7026189 8.48550515,14.7026189 C8.6334621,14.7026189 8.7921848,14.6836944 8.96155244,14.6455782 C9.13093732,14.6074429 9.3011171,14.5493339 9.47226467,14.4712511 C9.64329119,14.3932445 9.78462961,14.2833601 9.89652178,14.1417694 C10.0084831,14.0001024 10.0642996,13.838576 10.0642996,13.6569615 L10.0642996,7.55675207 C10.0642478,7.4115367 10.0183503,7.2881456 9.92610626,7.18652155 Z" id="Shape" fill="#009D90" fill-rule="nonzero"></path>
        </g>
    </g>
</svg>