<?xml version="1.0" encoding="UTF-8"?>
<svg width="18px" height="18px" viewBox="0 0 18 18" version="1.1" xmlns="http://www.w3.org/2000/svg" xmlns:xlink="http://www.w3.org/1999/xlink">
    <!-- Generator: Sketch 48.2 (47327) - http://www.bohemiancoding.com/sketch -->
    <title>Untitled</title>
    <desc>Created with Sketch.</desc>
    <defs></defs>
    <g id="Page-1" stroke="none" stroke-width="1" fill="none" fill-rule="evenodd">
        <g id="font" fill="#2B688A" fill-rule="nonzero">
            <path d="M7.13699973,10.3499993 L10.8629989,10.3499993 L8.99999935,5.38199958 L7.13699973,10.3499993 Z M16.1999999,-1.08000009e-07 L1.79999989,-1.08000009e-07 C0.809999972,-1.08000009e-07 -1.07999983e-07,0.809999972 -1.07999983e-07,1.79999989 L-1.07999983e-07,16.1999999 C-1.07999983e-07,17.1900002 0.809999972,17.9999999 1.79999989,17.9999999 L16.1999999,17.9999999 C17.1900002,17.9999999 17.9999999,17.1900002 17.9999999,16.1999999 L17.9999999,1.79999989 C17.9999999,0.809999972 17.1900002,-1.08000009e-07 16.1999999,-1.08000009e-07 Z M12.5549989,14.849999 L11.5289986,12.1499992 L6.45299957,12.1499992 L5.44499974,14.849999 L3.5639997,14.849999 L8.16299905,3.1499997 L9.83699865,3.1499997 L14.4359981,14.849999 L12.554998,14.849999 L12.5549989,14.849999 Z" id="Shape"></path>
        </g>
    </g>
</svg>