<?xml version="1.0" encoding="UTF-8"?>
<svg width="18px" height="21px" viewBox="0 0 18 21" version="1.1" xmlns="http://www.w3.org/2000/svg" xmlns:xlink="http://www.w3.org/1999/xlink">
    <!-- Generator: Sketch 48.2 (47327) - http://www.bohemiancoding.com/sketch -->
    <title>Untitled</title>
    <desc>Created with Sketch.</desc>
    <defs></defs>
    <g id="Page-1" stroke="none" stroke-width="1" fill="none" fill-rule="evenodd">
        <g id="Group" transform="translate(0.400544, 0.980955)">
            <polygon id="Path-2" stroke="#2B688A" stroke-linecap="round" stroke-linejoin="round" points="0.721389279 18.7150559 16.3849082 18.7150559 16.3849082 5.75214363 10.7072077 0.0744431596 0.717909797 0.0744431596"></polygon>
            <polyline id="Path-3" stroke="#2B688A" stroke-linejoin="round" points="10.6068981 0.407957621 10.6068981 5.81738006 16.3849082 5.81738006"></polyline>
            <path d="M7.48828539,12.8301609 L9.25977912,12.8301609 L8.37403227,10.4681689 L7.48828539,12.8301609 Z M11.7972096,7.90934422 L4.95085548,7.90934422 C4.48016868,7.90934422 4.09506123,8.29445167 4.09506123,8.76513848 L4.09506123,15.6114926 C4.09506123,16.0821796 4.48016868,16.4672868 4.95085548,16.4672868 L11.7972096,16.4672868 C12.2678966,16.4672868 12.6530038,16.0821796 12.6530038,15.6114926 L12.6530038,8.76513848 C12.6530038,8.29445167 12.2678966,7.90934422 11.7972096,7.90934422 Z M10.0642257,14.9696464 L9.57642285,13.6859551 L7.1630835,13.6859551 L6.68383879,14.9696464 L5.78953377,14.9696464 L7.9760878,9.40698408 L8.77197627,9.40698408 L10.9585303,14.9696464 L10.0642253,14.9696464 L10.0642257,14.9696464 Z" id="Shape" fill="#2B688A" fill-rule="nonzero"></path>
        </g>
    </g>
</svg>