<?xml version="1.0" encoding="UTF-8"?>
<svg width="18px" height="21px" viewBox="0 0 18 21" version="1.1" xmlns="http://www.w3.org/2000/svg" xmlns:xlink="http://www.w3.org/1999/xlink">
    <!-- Generator: Sketch 48.2 (47327) - http://www.bohemiancoding.com/sketch -->
    <title>Untitled</title>
    <desc>Created with Sketch.</desc>
    <defs></defs>
    <g id="Page-1" stroke="none" stroke-width="1" fill="none" fill-rule="evenodd">
        <g id="Group" transform="translate(0.400544, 0.980955)">
            <path d="M10.3276653,11.2366029 C9.56046683,10.4694045 8.69736854,9.31860681 7.93017008,8.26370893 C8.1219697,7.40061066 8.21786951,6.72931202 8.21786951,6.34571279 C8.21786951,4.42771664 5.91627413,4.42771664 5.91627413,6.34571279 C5.91627413,6.72931202 6.29987336,7.40061066 6.97117201,8.45550854 C6.68347259,9.79810585 6.29987336,11.4284025 5.82037432,12.7709999 C4.86137626,13.1545991 4.1900776,13.6340982 3.80647837,13.9217976 C3.32697934,14.4012966 3.23107953,14.9766954 3.42287914,15.4561945 C3.61467876,15.9356935 4.0941778,16.2233929 4.57367683,16.2233929 C4.86137626,16.2233929 5.14907567,16.1274931 5.34087529,15.9356935 C5.43677509,15.8397937 5.82037432,15.4561945 6.49167297,13.3463987 C7.73837047,12.8668997 9.08096777,12.3874007 10.0399658,12.0997012 C10.9030641,12.8668997 11.5743628,13.2504989 12.2456614,13.2504989 C12.91696,13.2504989 13.3964591,12.7709999 13.3964591,12.195601 C13.3964591,11.8120018 13.2046595,11.5243024 12.8210603,11.2366029 C12.437461,11.0448034 11.957962,10.9489035 11.2866634,10.9489035 C11.0948637,11.0448034 10.8071643,11.0448034 10.3276653,11.2366029 Z M4.66957664,15.2643948 C4.57367683,15.3602947 4.57367683,15.3602947 4.57367683,15.3602947 C4.47777703,15.3602947 4.38187722,15.2643948 4.28597741,15.0725952 C4.1900776,14.9766954 4.1900776,14.688996 4.47777703,14.4971964 C4.57367683,14.4012966 4.86137626,14.209497 5.43677509,13.9217976 C5.05317586,14.7848958 4.76547645,15.1684951 4.66957664,15.2643948 Z M6.7793724,6.24981298 C6.7793724,5.86621375 6.97117201,5.67441414 6.97117201,5.67441414 C6.97117201,5.67441414 7.16297163,5.86621375 7.16297163,6.24981298 C7.16297163,6.44161259 7.16297163,6.72931202 7.06707182,7.11291125 C6.8752722,6.63341221 6.7793724,6.34571279 6.7793724,6.24981298 Z M6.8752722,12.2915008 C7.16297163,11.3325028 7.45067105,10.3735047 7.64247066,9.41450662 C8.21786951,10.1817051 8.79326835,10.8530037 9.36866719,11.4284025 C8.60146874,11.716102 7.73837047,11.9079016 6.8752722,12.2915008 Z M12.5333608,12.2915008 C12.5333608,12.3874007 12.437461,12.4833004 12.2456614,12.4833004 C12.1497616,12.4833004 11.7661624,12.3874007 11.1907635,11.9079016 C11.2866634,11.9079016 11.2866634,11.9079016 11.3825631,11.9079016 C11.957962,11.9079016 12.3415612,12.0038014 12.437461,12.0997012 C12.437461,12.195601 12.5333608,12.2915008 12.5333608,12.2915008 Z" id="Shape" fill="#FD6D6D" fill-rule="nonzero"></path>
            <polygon id="Path-2" stroke="#FD6D6D" stroke-linecap="round" stroke-linejoin="round" points="0.721389279 18.7150559 16.3849082 18.7150559 16.3849082 5.75214363 10.7072077 0.0744431596 0.717909797 0.0744431596"></polygon>
            <polyline id="Path-3" stroke="#FD6D6D" stroke-linejoin="round" points="10.6068981 0.407957621 10.6068981 5.81738006 16.3849082 5.81738006"></polyline>
        </g>
    </g>
</svg>