<?xml version="1.0" encoding="UTF-8"?>
<svg width="17px" height="19px" viewBox="0 0 17 19" version="1.1" xmlns="http://www.w3.org/2000/svg" xmlns:xlink="http://www.w3.org/1999/xlink">
    <!-- Generator: Sketch 48.2 (47327) - http://www.bohemiancoding.com/sketch -->
    <title>Untitled</title>
    <desc>Created with Sketch.</desc>
    <defs></defs>
    <g id="Page-1" stroke="none" stroke-width="1" fill="none" fill-rule="evenodd">
        <g id="pdf" fill="#FD6D6D" fill-rule="nonzero">
            <g id="pdf_icon">
                <path d="M11.5810096,10.4754173 C10.3112621,9.20566979 8.88279606,7.30104845 7.6130485,5.55514556 C7.93048539,4.12667956 8.08920384,3.01565045 8.08920384,2.38077667 C8.08920384,-0.793592223 4.27996117,-0.793592223 4.27996117,2.38077667 C4.27996117,3.01565045 4.91483494,4.12667956 6.02586406,5.87258245 C5.54970872,8.09464068 4.91483494,10.7928542 4.12124272,13.0149125 C2.53405828,13.6497862 1.42302916,14.4433785 0.788155384,14.9195338 C-0.00543683877,15.713126 -0.164155283,16.6654367 0.153281606,17.4590289 C0.470718495,18.2526211 1.26431072,18.7287765 2.05790294,18.7287765 C2.53405828,18.7287765 3.01021361,18.570058 3.3276505,18.2526211 C3.48636894,18.0939027 4.12124272,17.4590289 5.23227183,13.9672231 C7.29561161,13.1736309 9.51766984,12.3800387 11.1048543,11.9038833 C12.5333203,13.1736309 13.6443494,13.8085047 14.7553785,13.8085047 C15.8664076,13.8085047 16.6599998,13.0149125 16.6599998,12.0626018 C16.6599998,11.427728 16.342563,10.9515727 15.7076892,10.4754173 C15.0728154,10.1579805 14.2792232,9.99926201 13.1681941,9.99926201 C12.8507572,10.1579805 12.3746018,10.1579805 11.5810096,10.4754173 Z M2.21662139,17.141592 C2.05790294,17.3003105 2.05790294,17.3003105 2.05790294,17.3003105 C1.8991845,17.3003105 1.74046605,17.141592 1.58174761,16.8241551 C1.42302916,16.6654367 1.42302916,16.1892814 1.8991845,15.8718445 C2.05790294,15.713126 2.53405828,15.3956891 3.48636894,14.9195338 C2.85149516,16.3479998 2.37533983,16.9828736 2.21662139,17.141592 Z M5.70842717,2.22205822 C5.70842717,1.58718445 6.02586406,1.26974756 6.02586406,1.26974756 C6.02586406,1.26974756 6.34330095,1.58718445 6.34330095,2.22205822 C6.34330095,2.53949511 6.34330095,3.01565045 6.1845825,3.65052423 C5.86714561,2.856932 5.70842717,2.38077667 5.70842717,2.22205822 Z M5.86714561,12.2213202 C6.34330095,10.6341358 6.81945628,9.04695134 7.13689317,7.4597669 C8.08920384,8.72951445 9.04151451,9.84054357 9.99382517,10.7928542 C8.72407762,11.2690096 7.29561161,11.5864465 5.86714561,12.2213202 Z M15.2315338,12.2213202 C15.2315338,12.3800387 15.0728154,12.5387571 14.7553785,12.5387571 C14.5966601,12.5387571 13.9617863,12.3800387 13.0094756,11.5864465 C13.1681941,11.5864465 13.1681941,11.5864465 13.3269125,11.5864465 C14.2792232,11.5864465 14.914097,11.7451649 15.0728154,11.9038833 C15.0728154,12.0626018 15.2315338,12.2213202 15.2315338,12.2213202 Z" id="Shape"></path>
            </g>
        </g>
    </g>
</svg>