<?xml version="1.0" encoding="UTF-8"?>
<svg width="18px" height="21px" viewBox="0 0 18 21" version="1.1" xmlns="http://www.w3.org/2000/svg" xmlns:xlink="http://www.w3.org/1999/xlink">
    <!-- Generator: Sketch 48.2 (47327) - http://www.bohemiancoding.com/sketch -->
    <title>Untitled</title>
    <desc>Created with Sketch.</desc>
    <defs></defs>
    <g id="Page-1" stroke="none" stroke-width="1" fill="none" fill-rule="evenodd">
        <g id="Group" transform="translate(0.400544, 0.980955)">
            <polygon id="Path-2" stroke="#E63D37" stroke-linecap="round" stroke-linejoin="round" points="0.721389279 18.7150559 16.3849082 18.7150559 16.3849082 5.75214363 10.7072077 0.0744431596 0.717909797 0.0744431596"></polygon>
            <polyline id="Path-3" stroke="#E63D37" stroke-linejoin="round" points="10.6068981 0.407957621 10.6068981 5.81738006 16.3849082 5.81738006"></polyline>
            <path d="M8.07998851,7.36100438 L8.07998851,16.7894143 C5.68988649,16.5537041 3.83720402,14.5313097 3.83720402,12.0752094 C3.83720402,9.61910899 5.68988672,7.59671463 8.07998851,7.36100438 Z M9.03697198,7.36100438 L9.03697198,11.5990745 L13.265614,11.5990745 C13.0440466,9.3645415 11.2667912,7.58257168 9.03697198,7.36100438 Z M9.03697198,12.5513442 L9.03697198,16.7894143 C11.2715055,16.567847 13.0440458,14.7858772 13.265614,12.5513442 L9.03697198,12.5513442 Z" id="Shape" fill="#E63D37" fill-rule="nonzero"></path>
        </g>
    </g>
</svg>