<?xml version="1.0" encoding="UTF-8"?>
<svg width="18px" height="21px" viewBox="0 0 18 21" version="1.1" xmlns="http://www.w3.org/2000/svg" xmlns:xlink="http://www.w3.org/1999/xlink">
    <!-- Generator: Sketch 48.2 (47327) - http://www.bohemiancoding.com/sketch -->
    <title>Untitled</title>
    <desc>Created with Sketch.</desc>
    <defs></defs>
    <g id="Page-1" stroke="none" stroke-width="1" fill="none" fill-rule="evenodd">
        <g id="Group" transform="translate(0.400544, 0.980955)">
            <polygon id="Path-2" stroke="#D69D28" stroke-linecap="round" stroke-linejoin="round" points="0.721389279 18.7150559 16.3849082 18.7150559 16.3849082 5.75214363 10.7072077 0.0744431596 0.717909797 0.0744431596"></polygon>
            <polyline id="Path-3" stroke="#D69D28" stroke-linejoin="round" points="10.6068981 0.407957621 10.6068981 5.81738006 16.3849082 5.81738006"></polyline>
            <path d="M11.4414957,7.9759787 L11.4414957,8.93934094 L10.4781335,8.93934094 L10.4781335,7.9759787 L6.62468453,7.9759787 L6.62468453,8.93934094 L5.66132229,8.93934094 L5.66132229,7.9759787 L4.69796005,7.9759787 L4.69796005,16.6462388 L5.66132229,16.6462388 L5.66132229,15.6828766 L6.62468453,15.6828766 L6.62468453,16.6462388 L10.4781335,16.6462388 L10.4781335,15.6828766 L11.4414957,15.6828766 L11.4414957,16.6462388 L12.404858,16.6462388 L12.404858,7.9759787 L11.4414957,7.9759787 Z M6.62468441,14.719514 L5.66132223,14.719514 L5.66132223,13.7561518 L6.62468441,13.7561518 L6.62468441,14.719514 Z M6.62468441,12.7927896 L5.66132223,12.7927896 L5.66132223,11.8294274 L6.62468441,11.8294274 L6.62468441,12.7927896 Z M6.62468441,10.8660652 L5.66132223,10.8660652 L5.66132223,9.90270306 L6.62468441,9.90270306 L6.62468441,10.8660652 Z M11.4414953,14.719514 L10.4781331,14.719514 L10.4781331,13.7561518 L11.4414953,13.7561518 L11.4414953,14.719514 Z M11.4414953,12.7927896 L10.4781331,12.7927896 L10.4781331,11.8294274 L11.4414953,11.8294274 L11.4414953,12.7927896 Z M11.4414953,10.8660652 L10.4781331,10.8660652 L10.4781331,9.90270306 L11.4414953,9.90270306 L11.4414953,10.8660652 Z" id="Shape" fill="#D69D28" fill-rule="nonzero"></path>
        </g>
    </g>
</svg>