<?xml version="1.0" encoding="UTF-8"?>
<svg width="13px" height="15px" viewBox="0 0 13 15" version="1.1" xmlns="http://www.w3.org/2000/svg" xmlns:xlink="http://www.w3.org/1999/xlink">
    <!-- Generator: Sketch 48.2 (47327) - http://www.bohemiancoding.com/sketch -->
    <title>Untitled</title>
    <desc>Created with Sketch.</desc>
    <defs></defs>
    <g id="Page-1" stroke="none" stroke-width="1" fill="none" fill-rule="evenodd">
        <g id="video" fill="#D69D28" fill-rule="nonzero">
            <path d="M11.3749998,-1.46250001e-07 L11.3749998,1.62499985 L9.74999984,1.62499985 L9.74999984,-1.46250001e-07 L3.24999981,-1.46250001e-07 L3.24999981,1.62499985 L1.62499981,1.62499985 L1.62499981,-1.46250001e-07 L-1.95000016e-07,-1.46250001e-07 L-1.95000016e-07,14.6249998 L1.62499981,14.6249998 L1.62499981,12.9999998 L3.24999981,12.9999998 L3.24999981,14.6249998 L9.74999984,14.6249998 L9.74999984,12.9999998 L11.3749998,12.9999998 L11.3749998,14.6249998 L12.9999998,14.6249998 L12.9999998,-1.46250001e-07 L11.3749998,-1.46250001e-07 Z M3.24999961,11.3749992 L1.62499971,11.3749992 L1.62499971,9.74999927 L3.24999961,9.74999927 L3.24999961,11.3749992 Z M3.24999961,8.12499937 L1.62499971,8.12499937 L1.62499971,6.49999946 L3.24999961,6.49999946 L3.24999961,8.12499937 Z M3.24999961,4.87499956 L1.62499971,4.87499956 L1.62499971,3.24999966 L3.24999961,3.24999966 L3.24999961,4.87499956 Z M11.3749991,11.3749992 L9.74999919,11.3749992 L9.74999919,9.74999927 L11.3749991,9.74999927 L11.3749991,11.3749992 Z M11.3749991,8.12499937 L9.74999919,8.12499937 L9.74999919,6.49999946 L11.3749991,6.49999946 L11.3749991,8.12499937 Z M11.3749991,4.87499956 L9.74999919,4.87499956 L9.74999919,3.24999966 L11.3749991,3.24999966 L11.3749991,4.87499956 Z" id="Shape"></path>
        </g>
    </g>
</svg>