<?xml version="1.0" encoding="utf-8"?>
<!-- Generator: Adobe Illustrator 21.0.0, SVG Export Plug-In . SVG Version: 6.00 Build 0)  -->
<svg version="1.1" id="Layer_1" xmlns="http://www.w3.org/2000/svg" xmlns:xlink="http://www.w3.org/1999/xlink" x="0px" y="0px"
	 viewBox="0 0 1200 675" style="enable-background:new 0 0 1200 675;" xml:space="preserve">
<style type="text/css">
	.st0{fill:#FFFFFF;}
	.st1{fill:#343435;}
	.st2{fill:#494949;}
	.st3{fill:#C4C4C4;}
	.st4{fill:#21211F;}
	.st5{fill:#E6E6E6;}
	.st6{opacity:0.56;fill:url(#SVGID_1_);}
	.st7{fill:#39B54A;}
	.st8{opacity:0.56;fill:url(#SVGID_2_);}
	.st9{opacity:0.56;fill:url(#SVGID_3_);}
	.st10{opacity:0.56;fill:url(#SVGID_4_);}
	.st11{opacity:0.56;fill:url(#SVGID_5_);}
	.st12{opacity:0.56;fill:url(#SVGID_6_);}
	.st13{opacity:0.56;fill:url(#SVGID_7_);}
	.st14{opacity:0.56;fill:url(#SVGID_8_);}
	.st15{opacity:0.56;fill:url(#SVGID_9_);}
	.st16{opacity:0.56;fill:url(#SVGID_10_);}
	.st17{opacity:0.56;fill:url(#SVGID_11_);}
	.st18{opacity:0.56;fill:url(#SVGID_12_);}
	.st19{opacity:0.56;fill:url(#SVGID_13_);}
	.st20{opacity:0.56;fill:url(#SVGID_14_);}
	.st21{opacity:0.56;fill:url(#SVGID_15_);}
	.st22{opacity:0.56;fill:url(#SVGID_16_);}
	.st23{opacity:0.56;fill:url(#SVGID_17_);}
	.st24{opacity:0.56;fill:url(#SVGID_18_);}
	.st25{opacity:0.56;fill:url(#SVGID_19_);}
	.st26{opacity:0.56;fill:url(#SVGID_20_);}
	.st27{opacity:0.56;fill:url(#SVGID_21_);}
	.st28{opacity:0.56;fill:url(#SVGID_22_);}
	.st29{opacity:0.56;fill:url(#SVGID_23_);}
	.st30{opacity:0.56;fill:url(#SVGID_24_);}
	.st31{opacity:0.56;fill:url(#SVGID_25_);}
	.st32{opacity:0.56;fill:url(#SVGID_26_);}
	.st33{opacity:0.56;fill:url(#SVGID_27_);}
	.st34{opacity:0.56;fill:url(#SVGID_28_);}
	.st35{opacity:0.56;fill:url(#SVGID_29_);}
	.st36{opacity:0.56;fill:url(#SVGID_30_);}
	.st37{opacity:0.56;fill:url(#SVGID_31_);}
	.st38{opacity:0.56;fill:url(#SVGID_32_);}
	.st39{opacity:0.56;fill:url(#SVGID_33_);}
	.st40{fill:none;stroke:#000000;stroke-miterlimit:10;}
	.st41{fill:none;stroke:#CCCCCC;stroke-width:2;stroke-miterlimit:10;}
	.st42{fill:#CCCCCC;}
	.st43{fill:none;stroke:#666666;stroke-width:2;stroke-miterlimit:10;}
	.st44{fill:#666666;}
	.st45{fill:none;stroke:#EF524F;stroke-width:2;stroke-miterlimit:10;stroke-dasharray:12,12;}
	.st46{fill:#EF524F;}
	.st47{fill:#62757C;}
	.st48{fill:#23363A;}
	.st49{fill:#FEFBF6;}
	.st50{fill:#F7F7F7;stroke:#23363A;stroke-width:6;stroke-miterlimit:10;}
	.st51{fill:none;stroke:#23363A;stroke-width:3;stroke-miterlimit:10;}
	.st52{fill:#F7F7F7;}
	.st53{fill:#23363A;stroke:#F7F7F7;stroke-width:2;stroke-miterlimit:10;}
	.st54{fill:#37474F;}
	.st55{fill:#EDEAE2;}
	.st56{fill:#4C626D;}
	.st57{fill:#E8EDEF;}
	.st58{fill:#515151;}
	.st59{fill:#939393;}
	.st60{opacity:0.56;fill:url(#SVGID_34_);}
	.st61{opacity:0.56;fill:url(#SVGID_35_);}
	.st62{opacity:0.56;fill:url(#SVGID_36_);}
	.st63{opacity:0.56;fill:url(#SVGID_37_);}
	.st64{opacity:0.56;fill:url(#SVGID_38_);}
	.st65{opacity:0.56;fill:url(#SVGID_39_);}
	.st66{opacity:0.56;fill:url(#SVGID_40_);}
	.st67{opacity:0.56;fill:url(#SVGID_41_);}
	.st68{opacity:0.56;fill:url(#SVGID_42_);}
	.st69{opacity:0.56;fill:url(#SVGID_43_);}
	.st70{opacity:0.56;fill:url(#SVGID_44_);}
	.st71{opacity:0.56;fill:url(#SVGID_45_);}
	.st72{opacity:0.56;fill:url(#SVGID_46_);}
	.st73{opacity:0.56;fill:url(#SVGID_47_);}
	.st74{opacity:0.56;fill:url(#SVGID_48_);}
	.st75{opacity:0.56;fill:url(#SVGID_49_);}
	.st76{opacity:0.56;fill:url(#SVGID_50_);}
	.st77{opacity:0.56;fill:url(#SVGID_51_);}
	.st78{opacity:0.56;fill:url(#SVGID_52_);}
	.st79{opacity:0.56;fill:url(#SVGID_53_);}
	.st80{opacity:0.56;fill:url(#SVGID_54_);}
	.st81{opacity:0.56;fill:url(#SVGID_55_);}
	.st82{opacity:0.56;fill:url(#SVGID_56_);}
	.st83{opacity:0.56;fill:url(#SVGID_57_);}
	.st84{opacity:0.56;fill:url(#SVGID_58_);}
	.st85{opacity:0.56;fill:url(#SVGID_59_);}
	.st86{opacity:0.56;fill:url(#SVGID_60_);}
	.st87{opacity:0.56;fill:url(#SVGID_61_);}
	.st88{opacity:0.56;fill:url(#SVGID_62_);}
	.st89{opacity:0.56;fill:url(#SVGID_63_);}
	.st90{opacity:0.56;fill:url(#SVGID_64_);}
	.st91{opacity:0.56;fill:url(#SVGID_65_);}
	.st92{opacity:0.56;fill:url(#SVGID_66_);}
	.st93{fill:none;stroke:#898989;stroke-miterlimit:10;}
	.st94{fill:#898989;}
	.st95{fill:none;stroke:#666666;stroke-miterlimit:10;}
	.st96{fill:none;stroke:#EF524F;stroke-miterlimit:10;}
	.st97{fill:none;stroke:#EF524F;stroke-miterlimit:10;stroke-dasharray:12.0065,12.0065;}
	.st98{fill:#B2B2B2;}
	.st99{fill:#5A5C5E;}
	.st100{fill:#DBDBDB;}
	.st101{fill:#6A6B6B;}
	.st102{fill:none;stroke:#EF524F;stroke-miterlimit:10;stroke-dasharray:11.6391,11.6391;}
	.st103{fill:none;stroke:#EF524F;stroke-miterlimit:10;stroke-dasharray:12.7731,12.7731;}
	.st104{fill:none;stroke:#EF524F;stroke-miterlimit:10;stroke-dasharray:11.9372,11.9372;}
	.st105{opacity:0.56;fill:url(#SVGID_67_);}
	.st106{opacity:0.56;fill:url(#SVGID_68_);}
	.st107{opacity:0.56;fill:url(#SVGID_69_);}
	.st108{opacity:0.56;fill:url(#SVGID_70_);}
	.st109{opacity:0.56;fill:url(#SVGID_71_);}
	.st110{opacity:0.56;fill:url(#SVGID_72_);}
	.st111{opacity:0.56;fill:url(#SVGID_73_);}
	.st112{opacity:0.56;fill:url(#SVGID_74_);}
	.st113{opacity:0.56;fill:url(#SVGID_75_);}
	.st114{opacity:0.56;fill:url(#SVGID_76_);}
	.st115{opacity:0.56;fill:url(#SVGID_77_);}
	.st116{opacity:0.56;fill:url(#SVGID_78_);}
	.st117{opacity:0.56;fill:url(#SVGID_79_);}
	.st118{opacity:0.56;fill:url(#SVGID_80_);}
	.st119{opacity:0.56;fill:url(#SVGID_81_);}
	.st120{opacity:0.56;fill:url(#SVGID_82_);}
	.st121{opacity:0.56;fill:url(#SVGID_83_);}
	.st122{opacity:0.56;fill:url(#SVGID_84_);}
	.st123{opacity:0.56;fill:url(#SVGID_85_);}
	.st124{opacity:0.56;fill:url(#SVGID_86_);}
	.st125{opacity:0.56;fill:url(#SVGID_87_);}
	.st126{opacity:0.56;fill:url(#SVGID_88_);}
	.st127{opacity:0.56;fill:url(#SVGID_89_);}
	.st128{opacity:0.56;fill:url(#SVGID_90_);}
	.st129{opacity:0.56;fill:url(#SVGID_91_);}
	.st130{opacity:0.56;fill:url(#SVGID_92_);}
	.st131{opacity:0.56;fill:url(#SVGID_93_);}
	.st132{opacity:0.56;fill:url(#SVGID_94_);}
	.st133{opacity:0.56;fill:url(#SVGID_95_);}
	.st134{opacity:0.56;fill:url(#SVGID_96_);}
	.st135{opacity:0.56;fill:url(#SVGID_97_);}
	.st136{opacity:0.56;fill:url(#SVGID_98_);}
	.st137{opacity:0.56;fill:url(#SVGID_99_);}
	.st138{fill:none;stroke:#CCCCCC;stroke-width:1.778;stroke-miterlimit:10;}
	.st139{fill:none;stroke:#EF524F;stroke-width:1.778;stroke-miterlimit:10;stroke-dasharray:10.6678,10.6678;}
	.st140{fill:#E5E5E5;}
	.st141{fill:none;stroke:#666666;stroke-width:1.778;stroke-miterlimit:10;}
	.st142{fill:#F47B67;}
	.st143{fill:none;stroke:#EAEAEA;stroke-width:0.8726;stroke-miterlimit:10;}
	.st144{fill:#727272;}
	.st145{fill:none;stroke:#EAEAEA;stroke-width:0.75;stroke-miterlimit:10;}
	.st146{fill:#FFFFFF;stroke:#9B9B9B;stroke-miterlimit:10;}
	.st147{fill:none;stroke:#9B9B9B;stroke-miterlimit:10;}
	.st148{fill:#9B9B9B;}
	.st149{opacity:0.56;fill:url(#SVGID_100_);}
	.st150{opacity:0.56;fill:url(#SVGID_101_);}
	.st151{opacity:0.56;fill:url(#SVGID_102_);}
	.st152{opacity:0.56;fill:url(#SVGID_103_);}
	.st153{opacity:0.56;fill:url(#SVGID_104_);}
	.st154{opacity:0.56;fill:url(#SVGID_105_);}
	.st155{opacity:0.56;fill:url(#SVGID_106_);}
	.st156{opacity:0.56;fill:url(#SVGID_107_);}
	.st157{opacity:0.56;fill:url(#SVGID_108_);}
	.st158{opacity:0.56;fill:url(#SVGID_109_);}
	.st159{opacity:0.56;fill:url(#SVGID_110_);}
	.st160{opacity:0.56;fill:url(#SVGID_111_);}
	.st161{opacity:0.56;fill:url(#SVGID_112_);}
	.st162{opacity:0.56;fill:url(#SVGID_113_);}
	.st163{opacity:0.56;fill:url(#SVGID_114_);}
	.st164{opacity:0.56;fill:url(#SVGID_115_);}
	.st165{opacity:0.56;fill:url(#SVGID_116_);}
	.st166{opacity:0.56;fill:url(#SVGID_117_);}
	.st167{opacity:0.56;fill:url(#SVGID_118_);}
	.st168{opacity:0.56;fill:url(#SVGID_119_);}
	.st169{opacity:0.56;fill:url(#SVGID_120_);}
	.st170{opacity:0.56;fill:url(#SVGID_121_);}
	.st171{opacity:0.56;fill:url(#SVGID_122_);}
	.st172{opacity:0.56;fill:url(#SVGID_123_);}
	.st173{opacity:0.56;fill:url(#SVGID_124_);}
	.st174{opacity:0.56;fill:url(#SVGID_125_);}
	.st175{opacity:0.56;fill:url(#SVGID_126_);}
	.st176{opacity:0.56;fill:url(#SVGID_127_);}
	.st177{opacity:0.56;fill:url(#SVGID_128_);}
	.st178{opacity:0.56;fill:url(#SVGID_129_);}
	.st179{opacity:0.56;fill:url(#SVGID_130_);}
	.st180{opacity:0.56;fill:url(#SVGID_131_);}
	.st181{opacity:0.56;fill:url(#SVGID_132_);}
	.st182{fill:#E8E8E8;stroke:#C6C6C6;stroke-width:1.0826;stroke-miterlimit:10;}
	.st183{fill:#F15A24;}
	.st184{fill:#FFFFFF;stroke:#C6C6C6;stroke-width:1.0826;stroke-miterlimit:10;}
	.st185{fill:#636363;}
	.st186{fill:none;stroke:#636363;stroke-miterlimit:10;}
	.st187{fill:none;stroke:#EF524F;stroke-miterlimit:10;stroke-dasharray:12,12;}
	.st188{fill:none;stroke:#636363;stroke-width:0.6802;stroke-miterlimit:10;}
	.st189{fill:#FFFFFF;stroke:#636363;stroke-width:0.6802;stroke-miterlimit:10;}
	.st190{fill:none;stroke:#EF524F;stroke-miterlimit:10;stroke-dasharray:11.4666,11.4666;}
	.st191{fill:#E8E8E8;stroke:#898989;stroke-width:0.5488;stroke-miterlimit:10;}
	.st192{fill:#FFFFFF;stroke:#898989;stroke-width:0.5488;stroke-miterlimit:10;}
	.st193{fill:#22B573;}
	.st194{fill:#E8E8E8;}
	.st195{fill:#A8A8A8;}
	.st196{fill:#777777;}
	.st197{fill:#4C4C4C;}
	.st198{fill:none;stroke:#3F3F3F;stroke-miterlimit:10;}
	.st199{fill:#3F3F3F;}
	.st200{fill:none;stroke:#5B5B5B;stroke-miterlimit:10;}
	.st201{fill:#5B5B5B;}
	.st202{fill:none;stroke:#F47B67;stroke-miterlimit:10;}
	.st203{fill:#E8E8E8;stroke:#C6C6C6;stroke-miterlimit:10;}
	.st204{fill:#FFFFFF;stroke:#C6C6C6;stroke-miterlimit:10;}
	.st205{fill:#BFBFBF;}
	.st206{fill:none;stroke:#929292;stroke-width:1.0006;stroke-miterlimit:10;}
	.st207{fill:none;stroke:#939393;stroke-width:2;stroke-miterlimit:10;}
	.st208{fill:#E8E8E8;stroke:#C6C6C6;stroke-width:1.0171;stroke-miterlimit:10;}
	.st209{fill:#FFFFFF;stroke:#C6C6C6;stroke-width:1.0171;stroke-miterlimit:10;}
	.st210{fill:none;stroke:#C6C6C6;stroke-width:1.0171;stroke-miterlimit:10;}
	.st211{fill:none;stroke:#929292;stroke-width:0.9465;stroke-miterlimit:10;}
	.st212{fill:#FFFFFF;stroke:#C6C6C6;stroke-width:0.9459;stroke-miterlimit:10;}
	.st213{fill:none;stroke:#939393;stroke-width:1.8919;stroke-miterlimit:10;}
	.st214{fill:none;stroke:#EAEAEA;stroke-width:0.6078;stroke-miterlimit:10;}
	.st215{fill:none;stroke:#CCCCCC;stroke-width:1.5;stroke-miterlimit:10;}
	.st216{fill:#B3B3B3;}
	.st217{fill:#FFFFFF;stroke:#000000;stroke-width:0.25;stroke-miterlimit:10;}
	.st218{clip-path:url(#SVGID_134_);}
	.st219{clip-path:url(#SVGID_136_);}
	.st220{clip-path:url(#SVGID_138_);}
	.st221{fill:#F5F5F5;}
	.st222{fill:none;stroke:#CECECE;stroke-width:0.413;stroke-miterlimit:10;}
	.st223{fill:none;stroke:#CCCCCC;stroke-width:0.8606;stroke-miterlimit:10;}
	.st224{fill:none;stroke:#000000;stroke-width:0.5553;stroke-miterlimit:10;}
	.st225{fill:none;stroke:#3F3F3F;stroke-width:0.5553;stroke-miterlimit:10;}
	.st226{fill:none;stroke:#5B5B5B;stroke-width:0.5553;stroke-miterlimit:10;}
	.st227{fill:none;stroke:#F47B67;stroke-width:0.5553;stroke-miterlimit:10;}
	.st228{font-family:'Lato-Light';}
	.st229{font-size:13.3276px;}
	.st230{font-size:8.1952px;}
	.st231{fill:#E8E8E8;stroke:#C6C6C6;stroke-width:0.5553;stroke-miterlimit:10;}
	.st232{fill:#FFFFFF;stroke:#C6C6C6;stroke-width:0.5499;stroke-miterlimit:10;}
	.st233{fill:none;stroke:#929292;stroke-width:0.5557;stroke-miterlimit:10;}
	.st234{fill:#FFFFFF;stroke:#C6C6C6;stroke-width:0.5553;stroke-miterlimit:10;}
	.st235{fill:none;stroke:#939393;stroke-width:1.1106;stroke-miterlimit:10;}
	.st236{fill:none;stroke:#3F3F3F;stroke-width:0.5501;stroke-miterlimit:10;}
	.st237{fill:#E8E8E8;stroke:#C6C6C6;stroke-width:0.5595;stroke-miterlimit:10;}
	.st238{fill:none;stroke:#C6C6C6;stroke-width:0.5595;stroke-miterlimit:10;}
	.st239{fill:none;stroke:#929292;stroke-width:0.5207;stroke-miterlimit:10;}
	.st240{fill:#FFFFFF;stroke:#C6C6C6;stroke-width:0.5204;stroke-miterlimit:10;}
	.st241{fill:none;stroke:#939393;stroke-width:1.0407;stroke-miterlimit:10;}
	.st242{fill:none;stroke:#F47B67;stroke-width:0.5501;stroke-miterlimit:10;}
	.st243{fill:none;stroke:#CECECE;stroke-width:0.3562;stroke-miterlimit:10;}
	.st244{fill:#FFFFFF;stroke:#9B9B9B;stroke-width:0.474;stroke-miterlimit:10;}
	.st245{fill:#FFFFFF;stroke:#9B9B9B;stroke-width:0.4641;stroke-miterlimit:10;}
	.st246{fill:#FFFFFF;stroke:#9B9B9B;stroke-width:0.4611;stroke-miterlimit:10;}
	.st247{fill:#FFFFFF;stroke:#9B9B9B;stroke-width:0.4612;stroke-miterlimit:10;}
	.st248{fill:#FFFFFF;stroke:#9B9B9B;stroke-width:0.4783;stroke-miterlimit:10;}
	.st249{fill:#FFFFFF;stroke:#9B9B9B;stroke-width:0.4741;stroke-miterlimit:10;}
	.st250{fill:#FFFFFF;stroke:#9B9B9B;stroke-width:0.4764;stroke-miterlimit:10;}
	.st251{fill:#FFFFFF;stroke:#9B9B9B;stroke-width:0.4785;stroke-miterlimit:10;}
	.st252{fill:#FFFFFF;stroke:#9B9B9B;stroke-width:0.4207;stroke-miterlimit:10;}
	.st253{fill:#FFFFFF;stroke:#9B9B9B;stroke-width:0.4243;stroke-miterlimit:10;}
	.st254{fill:#FFFFFF;stroke:#9B9B9B;stroke-width:0.4302;stroke-miterlimit:10;}
	.st255{fill:#FFFFFF;stroke:#9B9B9B;stroke-width:0.4799;stroke-miterlimit:10;}
	.st256{fill:#FFFFFF;stroke:#9B9B9B;stroke-width:0.479;stroke-miterlimit:10;}
	.st257{fill:none;stroke:#9B9B9B;stroke-width:0.474;stroke-miterlimit:10;}
</style>
<g>
	<path class="st42" d="M693.73,220.03H502.47c-2.76,0-4.99-2.24-4.99-4.99v-27.01c0-2.76,2.24-4.99,4.99-4.99h192.15
		c2.68,0,4.86,2.18,4.86,4.86v26.39C699.48,217.45,696.89,220.03,693.73,220.03z"/>
	<rect x="497.48" y="192.03" class="st194" width="202" height="6"/>
	<path class="st195" d="M546.97,214.03h-41.98c-1.39,0-2.51-1.12-2.51-2.51v-6.98c0-1.39,1.12-2.51,2.51-2.51h41.98
		c1.39,0,2.51,1.12,2.51,2.51v6.98C549.48,212.91,548.36,214.03,546.97,214.03z"/>
	<path class="st196" d="M545.38,212.03h-2.8c-1.71,0-3.1-1.39-3.1-3.1v-2.8c0-1.71,1.39-3.1,3.1-3.1h2.8c1.71,0,3.1,1.39,3.1,3.1
		v2.8C548.48,210.65,547.09,212.03,545.38,212.03z"/>
	<path class="st196" d="M533.38,212.03h-2.8c-1.71,0-3.1-1.39-3.1-3.1v-2.8c0-1.71,1.39-3.1,3.1-3.1h2.8c1.71,0,3.1,1.39,3.1,3.1
		v2.8C536.48,210.65,535.09,212.03,533.38,212.03z"/>
	<path class="st196" d="M521.38,212.03h-2.8c-1.71,0-3.1-1.39-3.1-3.1v-2.8c0-1.71,1.39-3.1,3.1-3.1h2.8c1.71,0,3.1,1.39,3.1,3.1
		v2.8C524.48,210.65,523.09,212.03,521.38,212.03z"/>
	<path class="st196" d="M510.38,212.03h-2.8c-1.71,0-3.1-1.39-3.1-3.1v-2.8c0-1.71,1.39-3.1,3.1-3.1h2.8c1.71,0,3.1,1.39,3.1,3.1
		v2.8C513.48,210.65,512.09,212.03,510.38,212.03z"/>
	<path class="st197" d="M509.48,199.73l-1.08,0.09l-0.1-0.4l0.63-0.4h0.55v2l0,0V199.73z"/>
	<path class="st197" d="M519.48,201.07l0.79-0.6c0.07-0.06,0.13-0.11,0.18-0.15c0.05-0.04,0.09-0.09,0.12-0.13
		c0.03-0.04,0.05-0.08,0.07-0.12c0.01-0.04,0.02-0.08,0.02-0.13c0-0.09-0.03-0.17-0.08-0.21c-0.05-0.05-0.13-0.07-0.21-0.07
		c-0.09,0-0.16,0.02-0.23,0.07c-0.07,0.05-0.14,0.12-0.22,0.22l-0.34-0.27c0.05-0.07,0.11-0.14,0.16-0.2s0.12-0.1,0.18-0.14
		c0.06-0.04,0.13-0.07,0.21-0.09s0.17-0.03,0.26-0.03c0.11,0,0.22,0.02,0.31,0.05c0.09,0.03,0.17,0.08,0.24,0.14
		c0.07,0.06,0.12,0.13,0.15,0.21c0.04,0.08-0.61,0.28-0.61,0.28v0.01c0,0,0.65,0.17,0.63,0.25c-0.02,0.07-0.06,0.14-0.11,0.2
		c-0.05,0.06-0.11,0.13-0.18,0.19c-0.07,0.06-0.16,0.13-0.25,0.21l-0.36,0.27h1.27v1h-2V201.07z"/>
	<path class="st197" d="M531.96,201.49c-0.2,0-0.37-0.04-0.51-0.11c-0.14-0.07-0.26-0.16-0.35-0.28l0.33-0.32
		c0.08,0.09,0.15,0.15,0.24,0.2c0.08,0.04,0.18,0.07,0.29,0.07c0.09,0,0.17-0.02,0.22-0.07c0.06-0.05,0.09-0.11,0.29-0.19v-0.01
		c-0.21-0.09-0.24-0.16-0.32-0.21c-0.08-0.05-0.18-0.07-0.32-0.55h-0.2l-0.08,0.17l0.52-1.17h-0.61l0,0h1v0.59l-0.32,0.53
		c0.08,0.01,0.15,0.03,0.22,0.06c0.07,0.03,0.13,0.06,0.19,0.11c0.06,0.05,0.1,0.11,0.13,0.18s0.78,0.26,0.78,0.26v0.01
		c0,0-0.75,0.2-0.79,0.29c-0.04,0.09-0.09,0.16-0.16,0.23c-0.07,0.06-0.15,0.12-0.25,0.15
		C532.19,201.48,532.08,201.49,531.96,201.49z"/>
	<path class="st197" d="M543.48,201.03h-0.86l-0.08-0.39l1.21-1.61h-0.27v1h1v1H543.48v1l0,0V201.03z M543.48,201.03v-0.68
		l-0.58,0.68H543.48z"/>
	<circle class="st193" cx="505.98" cy="204.53" r="0.5"/>
	<circle class="st193" cx="511.98" cy="204.53" r="0.5"/>
	<circle class="st193" cx="516.98" cy="204.53" r="0.5"/>
	<circle class="st193" cx="522.98" cy="204.53" r="0.5"/>
	<circle class="st193" cx="528.98" cy="204.53" r="0.5"/>
	<circle class="st193" cx="534.98" cy="204.53" r="0.5"/>
	<circle class="st193" cx="540.98" cy="204.53" r="0.5"/>
	<circle class="st193" cx="546.98" cy="204.53" r="0.5"/>
	<path class="st195" d="M595.97,214.03h-41.98c-1.39,0-2.51-1.12-2.51-2.51v-6.98c0-1.39,1.12-2.51,2.51-2.51h41.98
		c1.39,0,2.51,1.12,2.51,2.51v6.98C598.48,212.91,597.36,214.03,595.97,214.03z"/>
	<path class="st196" d="M593.38,212.03h-2.8c-1.71,0-3.1-1.39-3.1-3.1v-2.8c0-1.71,1.39-3.1,3.1-3.1h2.8c1.71,0,3.1,1.39,3.1,3.1
		v2.8C596.48,210.65,595.09,212.03,593.38,212.03z"/>
	<path class="st196" d="M581.38,212.03h-2.8c-1.71,0-3.1-1.39-3.1-3.1v-2.8c0-1.71,1.39-3.1,3.1-3.1h2.8c1.71,0,3.1,1.39,3.1,3.1
		v2.8C584.48,210.65,583.09,212.03,581.38,212.03z"/>
	<path class="st196" d="M570.38,212.03h-2.8c-1.71,0-3.1-1.39-3.1-3.1v-2.8c0-1.71,1.39-3.1,3.1-3.1h2.8c1.71,0,3.1,1.39,3.1,3.1
		v2.8C573.48,210.65,572.09,212.03,570.38,212.03z"/>
	<path class="st196" d="M558.38,212.03h-2.8c-1.71,0-3.1-1.39-3.1-3.1v-2.8c0-1.71,1.39-3.1,3.1-3.1h2.8c1.71,0,3.1,1.39,3.1,3.1
		v2.8C561.48,210.65,560.09,212.03,558.38,212.03z"/>
	<path class="st197" d="M557.32,201.51c-0.18,0-0.33-0.03-0.46-0.09c-0.13-0.06-0.25-0.14-0.36-0.24l0.29-0.35
		c0.08,0.08,0.17,0.13,0.25,0.18c0.08,0.04,0.17,0.06,0.27,0.06c0.11,0,0.2-0.03,0.27-0.08c0.07-0.05-0.1-0.23-0.1-0.23v-0.01
		c0,0,0.17-0.17,0.1-0.22c-0.07-0.05-0.17-0.08-0.28-0.08c-0.07,0-0.13,0.01-0.2,0.02c-0.06,0.02-0.12,0.04-0.17,0.06l-0.28-0.19
		l0.06-1.33h0.77l0,0h-0.36l-0.03,1.05c0.04-0.01,0.09-0.02,0.13-0.03c0.04-0.01,0.1-0.01,0.16-0.01c0.11,0,0.21,0.01,0.3,0.04
		c0.09,0.03,0.18,0.07,0.25,0.13c0.07,0.06,0.13,0.13,0.17,0.22s0.06,0.19-0.62,0.32v0.01c0.68,0.12,0.66,0.22,0.62,0.31
		c-0.04,0.09-0.1,0.17-0.17,0.24c-0.07,0.07-0.16,0.12-0.27,0.15C557.56,201.5,557.45,201.51,557.32,201.51z"/>
	<path class="st197" d="M568.93,201.51c-0.14,0-0.27-0.02-0.37-0.06c-0.1-0.04-0.19-0.1-0.27-0.18c-0.08-0.08-0.14-0.18-0.19-0.31
		c-0.05-0.13-0.07-0.3-0.62-0.52v-0.01c0.55-0.17,0.57-0.33,0.61-0.47c0.04-0.15,0.1-0.27,0.18-0.38c0.08-0.11,0.18-0.19,0.3-0.25
		c0.12-0.06,0.26-0.09,0.43-0.09c0.08,0,0.14,0.01,0.21,0.02c0.06,0.01,0.12,0.03,0.18,0.05c0.05,0.02,0.11,0.05,0.16,0.08
		c0.05,0.03,0.1,0.06,0.15,0.1l-0.25,0.37c-0.04-0.03-0.07-0.05-0.1-0.07c-0.03-0.02-0.07-0.04-0.1-0.05
		c-0.04-0.01-0.07-0.03-0.11-0.03c-0.04-0.01-0.08-0.01-0.13-0.01c-0.07,0-0.13,0.01-0.18,0.04s-0.1,0.06-0.13,0.11
		c-0.04,0.05-0.07,0.1-0.09,0.16c-0.02,0.06-0.04,0.13-0.04,0.2c0.05-0.04,0.12-0.07,0.19-0.1c0.07-0.03,0.16-0.04,0.27-0.04
		s0.21,0.02,0.3,0.05c0.09,0.03,0.18,0.07,0.24,0.13c0.07,0.06,0.12,0.13,0.16,0.22c0.04,0.09,0.06,0.19-0.23,0.3v0.01
		c0.29,0.11,0.27,0.22,0.22,0.31c-0.04,0.09-0.1,0.17-0.18,0.24c-0.07,0.07-0.16,0.12-0.27,0.16
		C569.16,201.49,569.05,201.51,568.93,201.51z M568.91,201.1c0.12,0,0.21-0.03,0.28-0.09c0.07-0.06,0.1-0.14,0.29-0.23v-0.01
		c-0.19-0.09-0.22-0.17-0.29-0.23c-0.07-0.06-0.16-0.09-0.28-0.09c-0.12,0-0.21,0.03-0.28,0.09c-0.07,0.06-0.1,0.13-0.15,0.23v0.01
		c0.05,0.09,0.08,0.17,0.15,0.23C568.7,201.06,568.79,201.1,568.91,201.1z"/>
	<path class="st197" d="M580.71,199.03h-1.23l0,0h2v0.61l-1.2,1.39h-0.55L580.71,199.03z"/>
	<path class="st197" d="M592.04,201.51c-0.12,0-0.23-0.02-0.34-0.05c-0.1-0.03-0.19-0.07-0.27-0.13c-0.08-0.06-0.13-0.12-0.18-0.2
		c-0.04-0.08-0.78-0.26-0.78-0.26v-0.01c0,0,0.74-0.24,0.8-0.33c0.06-0.08,0.15-0.15,0.27-0.21c-0.09-0.05-0.15-0.12-0.2-0.19
		c-0.05-0.07,0.14-0.29,0.14-0.29v-0.01c0,0-0.19-0.16-0.16-0.24c0.04-0.07,0.09-0.14,0.16-0.19c0.07-0.05,0.15-0.1,0.24-0.13
		c0.09-0.03,0.2-0.05,0.32-0.05c0.12,0,0.22,0.02,0.32,0.05c0.1,0.03,0.18,0.07,0.24,0.13c0.07,0.05,0.12,0.12,0.16,0.19
		c0.04,0.07,0.72,0.24,0.72,0.24v0.01c0,0-0.69,0.22-0.74,0.29c-0.05,0.07-0.12,0.14-0.2,0.19c0.11,0.06,0.2,0.13,0.26,0.21
		c0.06,0.08-0.31,0.31-0.31,0.31v0.01c0,0,0.39,0.19,0.34,0.27s-0.1,0.15-0.18,0.2c-0.08,0.06-0.16,0.1-0.27,0.13
		C592.27,201.49,592.16,201.51,592.04,201.51z M592.04,201.11c0.12,0,0.21-0.03,0.28-0.08c0.07-0.05,0.1-0.12,0.16-0.19v-0.01
		c-0.06-0.09-0.1-0.15-0.17-0.2c-0.07-0.05-0.16-0.07-0.27-0.07c-0.11,0-0.2,0.02-0.27,0.07c-0.07,0.05-0.11,0.11-0.29,0.2v0.01
		c0.18,0.08,0.21,0.14,0.28,0.19C591.83,201.08,591.92,201.11,592.04,201.11z M592.04,200.18c0.1,0,0.17-0.03,0.23-0.08
		c0.06-0.05,0.08-0.11,0.21-0.19v-0.01c-0.13-0.07-0.15-0.13-0.21-0.18s-0.13-0.08-0.23-0.08c-0.1,0-0.18,0.03-0.23,0.08
		c-0.05,0.05-0.08,0.11-0.33,0.18v0.01c0.25,0.08,0.27,0.14,0.33,0.19C591.87,200.15,591.94,200.18,592.04,200.18z"/>
	<circle class="st193" cx="553.98" cy="204.53" r="0.5"/>
	<circle class="st193" cx="559.98" cy="204.53" r="0.5"/>
	<circle class="st193" cx="565.98" cy="204.53" r="0.5"/>
	<circle class="st193" cx="571.98" cy="204.53" r="0.5"/>
	<circle class="st193" cx="576.98" cy="204.53" r="0.5"/>
	<circle class="st193" cx="583.98" cy="204.53" r="0.5"/>
	<circle class="st193" cx="588.98" cy="204.53" r="0.5"/>
	<circle class="st193" cx="594.98" cy="204.53" r="0.5"/>
	<g>
		<circle class="st193" cx="499.98" cy="207.53" r="1.5"/>
	</g>
	<path class="st195" d="M643.97,214.03h-41.98c-1.39,0-2.51-1.12-2.51-2.51v-6.98c0-1.39,1.12-2.51,2.51-2.51h41.98
		c1.39,0,2.51,1.12,2.51,2.51v6.98C646.48,212.91,645.36,214.03,643.97,214.03z"/>
	<path class="st196" d="M642.38,212.03h-2.8c-1.71,0-3.1-1.39-3.1-3.1v-2.8c0-1.71,1.39-3.1,3.1-3.1h2.8c1.71,0,3.1,1.39,3.1,3.1
		v2.8C645.48,210.65,644.09,212.03,642.38,212.03z"/>
	<path class="st196" d="M630.38,212.03h-2.8c-1.71,0-3.1-1.39-3.1-3.1v-2.8c0-1.71,1.39-3.1,3.1-3.1h2.8c1.71,0,3.1,1.39,3.1,3.1
		v2.8C633.48,210.65,632.09,212.03,630.38,212.03z"/>
	<path class="st196" d="M618.38,212.03h-2.8c-1.71,0-3.1-1.39-3.1-3.1v-2.8c0-1.71,1.39-3.1,3.1-3.1h2.8c1.71,0,3.1,1.39,3.1,3.1
		v2.8C621.48,210.65,620.09,212.03,618.38,212.03z"/>
	<path class="st196" d="M607.38,212.03h-2.8c-1.71,0-3.1-1.39-3.1-3.1v-2.8c0-1.71,1.39-3.1,3.1-3.1h2.8c1.71,0,3.1,1.39,3.1,3.1
		v2.8C610.48,210.65,609.09,212.03,607.38,212.03z"/>
	<path class="st197" d="M605.79,201.42c-0.16,0-0.3-0.02-0.41-0.07c-0.11-0.05-0.22-0.11-0.31-0.19l0.25-0.37
		c0.08,0.06,0.16,0.11,0.23,0.14c0.07,0.03,0.16,0.05,0.25,0.05c0.14,0,0.24-0.05,0.31-0.14c0.07-0.09,0.12-0.21,0.13-0.36
		c-0.05,0.05-0.12,0.08-0.19,0.11c-0.07,0.03-0.16,0.04-0.25,0.04c-0.12,0-0.23-0.02-0.32-0.05s-0.18-0.08-0.25-0.14
		s-0.12-0.14-0.16-0.22c-0.04-0.09-0.06-0.19-0.59-0.3v-0.01c0.54-0.11,0.56-0.21,0.6-0.31s0.1-0.18,0.17-0.24
		c0.07-0.07,0.16-0.12,0.27-0.16c0.1-0.04,0.22-0.06,0.34-0.06c0.07,0,0.14,0,0.2,0.01c0.06,0.01,0.11,0.02,0.16,0.04
		c0.05,0.02,0.1,0.04,0.14,0.07c0.04,0.03,0.09,0.07,0.13,0.11c0.04,0.04,0.08,0.08,0.11,0.14c0.03,0.05,0.06,0.11,0.08,0.18
		c0.02,0.07,0.04,0.14,0.05,0.23c0.01,0.08,0.02,0.18-0.25,0.29v0.01c0.27,0.18,0.25,0.34,0.21,0.49c-0.04,0.15-0.1,0.27-0.18,0.38
		c-0.08,0.1-0.18,0.19-0.3,0.24C606.09,201.39,605.95,201.42,605.79,201.42z M605.88,200.23c0.12,0,0.21-0.03,0.28-0.09
		c0.07-0.06,0.1-0.14,0.32-0.23v-0.01c-0.22-0.1-0.25-0.18-0.32-0.24c-0.07-0.06-0.16-0.09-0.29-0.09c-0.12,0-0.21,0.03-0.28,0.09
		c-0.07,0.06-0.1,0.14-0.12,0.24v0.01c0.02,0.1,0.05,0.18,0.12,0.24C605.67,200.2,605.76,200.23,605.88,200.23z"/>
	<g>
		<path class="st197" d="M617.48,199.66l-1.61,0.09l-0.1-0.4l0.63-0.33h0.08v2h1V199.66z"/>
		<path class="st197" d="M618.48,201.45c-0.15,0-0.29-0.03-0.41-0.09c-0.12-0.06-0.23-0.14-0.32-0.24c-0.09-0.1-0.15-0.23-0.2-0.37
			c-0.05-0.14-0.07-0.29-0.07-0.46v-0.01c0-0.16,0.02-0.32,0.07-0.46c0.05-0.14,0.12-0.26,0.2-0.37c0.09-0.11,0.19-0.19,0.32-0.25
			s0.26-0.09,0.41-0.09c0.15,0,0.28,0.03,0.41,0.09c0.12,0.06,0.23,0.14,0.32,0.24c0.09,0.1,0.15,0.23,0.2,0.37s0.07,0.29,0.07,0.46
			v0.01c0,0.16-0.02,0.32-0.07,0.46s-0.12,0.26-0.2,0.37c-0.09,0.11-0.19,0.19-0.32,0.25S618.63,201.45,618.48,201.45z
			 M617.98,201.01c0.08,0,0.14-0.02,0.21-0.05c0.06-0.04,0.11-0.09,0.16-0.15c0.04-0.06,0.08-0.14,0.1-0.23
			c0.02-0.09,0.03-0.18,0.03-0.29v-0.01c0-0.1-0.01-0.2-0.04-0.29c-0.02-0.09-0.06-0.16-0.1-0.23c-0.04-0.07-0.1-0.12-0.16-0.15
			c-0.06-0.04-0.13-0.06-0.2-0.06c-0.08,0-0.14,0.02-0.21,0.05c-0.06,0.04-0.11,0.09-0.16,0.15c-0.04,0.06-0.08,0.14-0.1,0.23
			c-0.02,0.09-0.04,0.18-0.04,0.29v0.01c0,0.1,0.01,0.2,0.04,0.29c0.02,0.09,0.06,0.17,0.1,0.23c0.04,0.06,0.1,0.11,0.16,0.15
			C617.84,201,617.91,201.01,617.98,201.01z"/>
	</g>
	<g>
		<path class="st197" d="M629.48,199.67l-1.5,0.09l-0.1-0.4l0.63-0.33h-0.03v2h1V199.67z"/>
		<path class="st197" d="M629.48,199.67l-0.17,0.09l-0.1-0.4l0.63-0.33h-0.36v2l0,0V199.67z"/>
	</g>
	<g>
		<path class="st197" d="M639.48,199.68l-0.3,0.09l-0.1-0.4l0.63-0.34h-0.23v2l0,0V199.68z"/>
		<path class="st197" d="M640.48,201.02l0.74-0.6c0.07-0.06,0.13-0.11,0.18-0.15c0.05-0.04,0.09-0.09,0.12-0.13
			c0.03-0.04,0.05-0.08,0.07-0.12c0.01-0.04,0.02-0.08,0.02-0.13c0-0.09-0.03-0.17-0.08-0.21c-0.05-0.05-0.13-0.07-0.21-0.07
			c-0.09,0-0.16,0.02-0.23,0.07c-0.07,0.05-0.14,0.12-0.22,0.22l-0.34-0.27c0.05-0.07,0.11-0.14,0.16-0.2
			c0.06-0.06,0.12-0.1,0.18-0.14c0.06-0.04,0.13-0.07,0.21-0.09s0.17-0.03,0.26-0.03c0.11,0,0.22,0.02,0.31,0.05
			c0.09,0.03,0.17,0.08,0.24,0.14c0.07,0.06,0.12,0.13,0.15,0.21c0.04,0.08-0.56,0.28-0.56,0.28v0.01c0,0,0.6,0.17,0.57,0.25
			c-0.02,0.07-0.06,0.14-0.11,0.2c-0.05,0.06-0.11,0.13-0.18,0.19c-0.07,0.06-0.16,0.13-0.25,0.21l-0.36,0.33h1.33v1h-2V201.02z"/>
	</g>
	<circle class="st193" cx="602.98" cy="204.53" r="0.5"/>
	<circle class="st193" cx="608.98" cy="204.53" r="0.5"/>
	<circle class="st193" cx="613.98" cy="204.53" r="0.5"/>
	<circle class="st193" cx="620.98" cy="204.53" r="0.5"/>
	<circle class="st193" cx="625.98" cy="204.53" r="0.5"/>
	<circle class="st193" cx="631.98" cy="204.53" r="0.5"/>
	<circle class="st193" cx="637.98" cy="204.53" r="0.5"/>
	<circle class="st193" cx="643.98" cy="204.53" r="0.5"/>
	<path class="st195" d="M692.97,214.03h-41.98c-1.39,0-2.51-1.12-2.51-2.51v-6.98c0-1.39,1.12-2.51,2.51-2.51h41.98
		c1.39,0,2.51,1.12,2.51,2.51v6.98C695.48,212.91,694.36,214.03,692.97,214.03z"/>
	<path class="st196" d="M690.38,212.03h-2.8c-1.71,0-3.1-1.39-3.1-3.1v-2.8c0-1.71,1.39-3.1,3.1-3.1h2.8c1.71,0,3.1,1.39,3.1,3.1
		v2.8C693.48,210.65,692.09,212.03,690.38,212.03z"/>
	<path class="st196" d="M679.38,212.03h-2.8c-1.71,0-3.1-1.39-3.1-3.1v-2.8c0-1.71,1.39-3.1,3.1-3.1h2.8c1.71,0,3.1,1.39,3.1,3.1
		v2.8C682.48,210.65,681.09,212.03,679.38,212.03z"/>
	<path class="st196" d="M667.38,212.03h-2.8c-1.71,0-3.1-1.39-3.1-3.1v-2.8c0-1.71,1.39-3.1,3.1-3.1h2.8c1.71,0,3.1,1.39,3.1,3.1
		v2.8C670.48,210.65,669.09,212.03,667.38,212.03z"/>
	<path class="st196" d="M656.38,212.03h-2.8c-1.71,0-3.1-1.39-3.1-3.1v-2.8c0-1.71,1.39-3.1,3.1-3.1h2.8c1.71,0,3.1,1.39,3.1,3.1
		v2.8C659.48,210.65,658.09,212.03,656.38,212.03z"/>
	<g>
		<path class="st197" d="M654.48,199.87l-1.37,0.09l-0.1-0.4l0.63-0.54h-0.17v2h1V199.87z"/>
		<path class="st197" d="M655.24,201.63c-0.2,0-0.37-0.04-0.51-0.11c-0.14-0.07-0.26-0.16-0.35-0.28l0.33-0.32
			c0.08,0.09,0.15,0.15,0.24,0.2c0.08,0.04,0.18,0.07,0.29,0.07c0.09,0,0.17-0.02,0.22-0.07c0.06-0.05,0.09-0.11,0.01-0.19v-0.01
			c0.08-0.09,0.04-0.16-0.04-0.21c-0.08-0.05-0.18-0.07-0.32,0.31h-0.2l-0.08-0.69l0.52-0.31h-0.9l0,0h1v-0.27l-0.04,0.53
			c0.08,0.01,0.15,0.03,0.22,0.06c0.07,0.03,0.13,0.06,0.19,0.11c0.06,0.05,0.1,0.11,0.13,0.18c0.03,0.07,0.5,0.26,0.5,0.26v0.01
			c0,0-0.46,0.2-0.5,0.29c-0.04,0.09-0.09,0.16-0.16,0.23c-0.07,0.06-0.15,0.12-0.25,0.15
			C655.47,201.62,655.36,201.63,655.24,201.63z"/>
	</g>
	<g>
		<path class="st197" d="M665.48,199.89l-0.91,0.09l-0.1-0.4l0.63-0.56h0.38v2l0,0V199.89z"/>
		<path class="st197" d="M667.48,201.03h-1.59l-0.08-0.23l1.21-1.77h0.46v1h1v1H667.48L667.48,201.03L667.48,201.03L667.48,201.03z
			 M666.48,201.03v-0.68l-0.58,0.68H666.48z"/>
	</g>
	<g>
		<path class="st197" d="M676.48,199.87l-0.24,0.09l-0.1-0.4l0.63-0.54h-0.29v2l0,0V199.87z"/>
		<path class="st197" d="M678.35,201.63c-0.18,0-0.33-0.03-0.46-0.09c-0.13-0.06-0.25-0.14-0.36-0.24l0.29-0.35
			c0.08,0.08,0.17,0.13,0.25,0.18c0.08,0.04,0.17,0.06,0.27,0.06c0.11,0,0.2-0.03,0.27-0.08c0.07-0.05-0.13-0.23-0.13-0.23v-0.01
			c0,0,0.19-0.17,0.12-0.22c-0.07-0.05-0.17-0.08-0.28-0.08c-0.07,0-0.13,0.01-0.2,0.02c-0.06,0.02-0.12,0.04-0.17,0.06l-0.28-0.19
			l0.06-0.45h0.74l0,0h-0.33l-0.03,0.17c0.04-0.01,0.09-0.02,0.13-0.03c0.04-0.01,0.1-0.01,0.16-0.01c0.11,0,0.21,0.01,0.3,0.04
			s0.18,0.07,0.25,0.13c0.07,0.06,0.13,0.13,0.17,0.22s0.06,0.19-0.65,0.32v0.01c0.71,0.12,0.69,0.22,0.65,0.31
			c-0.04,0.09-0.1,0.17-0.17,0.24c-0.07,0.07-0.16,0.12-0.27,0.15C678.59,201.62,678.48,201.63,678.35,201.63z"/>
	</g>
	<g>
		<path class="st197" d="M688.48,199.88l-0.72,0.09l-0.1-0.4l0.63-0.55h-0.81v2h1V199.88z"/>
		<path class="st197" d="M689.97,201.65c-0.14,0-0.27-0.02-0.37-0.06c-0.1-0.04-0.19-0.1-0.27-0.18c-0.08-0.08-0.14-0.18-0.19-0.31
			c-0.05-0.13-0.07-0.3-0.67-0.52v-0.01c0.6-0.17,0.62-0.33,0.66-0.47c0.04-0.15,0.1-0.27,0.18-0.38c0.08-0.11,0.18-0.19,0.3-0.25
			c0.12-0.06,0.26-0.09,0.43-0.09c0.08,0,0.14,0.01,0.21,0.02c0.06,0.01,0.12,0.03,0.18,0.05s0.11,0.05,0.16,0.08
			c0.05,0.03,0.1,0.06,0.15,0.1l-0.25,0.37c-0.04-0.03-0.07-0.05-0.1-0.07c-0.03-0.02-0.07-0.04-0.1-0.05
			c-0.04-0.01-0.07-0.03-0.11-0.03c-0.04-0.01-0.08-0.01-0.13-0.01c-0.07,0-0.13,0.01-0.18,0.04c-0.05,0.03-0.1,0.06-0.13,0.11
			c-0.04,0.05-0.07,0.1-0.09,0.16c-0.02,0.06-0.04,0.13-0.04,0.2c0.05-0.04,0.12-0.07,0.19-0.1c0.07-0.03,0.16-0.04,0.27-0.04
			s0.21,0.02,0.3,0.05c0.09,0.03,0.18,0.07,0.24,0.13c0.07,0.06,0.12,0.13,0.16,0.22c0.04,0.09,0.06,0.19-0.27,0.3v0.01
			c0.33,0.11,0.31,0.22,0.27,0.31c-0.04,0.09-0.1,0.17-0.18,0.24c-0.07,0.07-0.16,0.12-0.27,0.16
			C690.2,201.63,690.09,201.65,689.97,201.65z M689.96,201.23c0.12,0,0.21-0.03,0.28-0.09c0.07-0.06,0.1-0.14,0.25-0.23v-0.01
			c-0.15-0.09-0.18-0.17-0.25-0.23c-0.07-0.06-0.16-0.09-0.28-0.09c-0.12,0-0.21,0.03-0.28,0.09c-0.07,0.06-0.1,0.13-0.19,0.23v0.01
			c0.09,0.09,0.12,0.17,0.19,0.23C689.74,201.2,689.84,201.23,689.96,201.23z"/>
	</g>
	<circle class="st193" cx="650.98" cy="204.53" r="0.5"/>
	<circle class="st193" cx="657.98" cy="204.53" r="0.5"/>
	<circle class="st193" cx="662.98" cy="204.53" r="0.5"/>
	<circle class="st193" cx="668.98" cy="204.53" r="0.5"/>
	<circle class="st193" cx="674.98" cy="204.53" r="0.5"/>
	<circle class="st193" cx="680.98" cy="204.53" r="0.5"/>
	<circle class="st193" cx="685.98" cy="204.53" r="0.5"/>
	<circle class="st193" cx="691.98" cy="204.53" r="0.5"/>
</g>
<g>
	<g>
		<path class="st225" d="M159.98,314.64l-0.01-57c0-6.11,5-11.11,11.1-11.11l326.8,0c6.11,0,11.11-5,11.11-11.11v-27"/>
		<g>
			<rect x="158.51" y="313.1" class="st199" width="2.93" height="2.93"/>
		</g>
		<g>
			<rect x="507.51" y="207.03" class="st199" width="2.93" height="2.93"/>
		</g>
	</g>
</g>
<g>
	<g>
		<path class="st225" d="M272.98,391.64v-121c0-6.11,5-11.11,11.11-11.11l225.79,0c6.11,0,11.11-5,11.11-11.11v-41.01"/>
		<g>
			<rect x="271.51" y="390.1" class="st199" width="2.93" height="2.93"/>
		</g>
		<g>
			<rect x="519.51" y="206.03" class="st199" width="2.93" height="2.93"/>
		</g>
	</g>
</g>
<g>
	<g>
		<path class="st225" d="M384.98,314.64v-31c0-6.11,5-11.11,11.11-11.11l124.79-0.02c6.11,0,11.11-5,11.11-11.11v-52.98"/>
		<g>
			<rect x="383.51" y="313.1" class="st199" width="2.93" height="2.93"/>
		</g>
		<g>
			<rect x="530.51" y="207.03" class="st199" width="2.93" height="2.93"/>
		</g>
	</g>
</g>
<g>
	<g>
		<path class="st225" d="M497.98,391.64v-95c0-6.11,5-11.11,11.11-11.11l23.79,0c6.11,0,11.11-5,11.11-11.11v-66"/>
		<g>
			<rect x="496.51" y="390.1" class="st199" width="2.93" height="2.93"/>
		</g>
		<g>
			<rect x="542.51" y="207.03" class="st199" width="2.93" height="2.93"/>
		</g>
	</g>
</g>
<g>
	<g>
		<path class="st225" d="M946.98,391.64l0.01-134c0-6.11-5-11.11-11.11-11.11l-332.8,0c-6.11,0-11.11-5-11.11-11.11v-27"/>
		<g>
			<rect x="945.51" y="390.1" class="st199" width="2.93" height="2.93"/>
		</g>
		<g>
			<rect x="590.51" y="207.03" class="st199" width="2.93" height="2.93"/>
		</g>
	</g>
</g>
<g>
	<g>
		<path class="st225" d="M834.98,314.64v-44c0-6.11-5-11.11-11.11-11.11l-232.79,0c-6.11,0-11.11-5-11.11-11.11v-41.01"/>
		<g>
			<rect x="833.51" y="313.1" class="st199" width="2.93" height="2.93"/>
		</g>
		<g>
			<rect x="578.51" y="206.03" class="st199" width="2.93" height="2.93"/>
		</g>
	</g>
</g>
<g>
	<g>
		<path class="st225" d="M721.98,391.64v-108c0-6.11-5-11.11-11.11-11.11l-130.79-0.02c-6.11,0-11.11-5-11.11-11.11v-52.98"/>
		<g>
			<rect x="720.51" y="390.1" class="st199" width="2.93" height="2.93"/>
		</g>
		<g>
			<rect x="567.51" y="207.03" class="st199" width="2.93" height="2.93"/>
		</g>
	</g>
</g>
<g>
	<g>
		<path class="st225" d="M609.98,314.64v-18c0-6.11-5-11.11-11.11-11.11l-30.79,0c-6.11,0-11.11-5-11.11-11.11v-66"/>
		<g>
			<rect x="608.51" y="313.1" class="st199" width="2.93" height="2.93"/>
		</g>
		<g>
			<rect x="555.51" y="207.03" class="st199" width="2.93" height="2.93"/>
		</g>
	</g>
</g>
<g>
	<g>
		<path class="st226" d="M727.98,0.03l-0.01,222.39c0,6.11-5,11.11-11.11,11.11h-16.78c-6.11,0-11.11-5-11.11-11.11v-14"/>
		<g>
			<rect x="687.51" y="207.03" class="st201" width="2.93" height="2.93"/>
		</g>
	</g>
</g>
<g>
	<g>
		<line class="st227" x1="685.07" y1="189.53" x2="1045.48" y2="189.53"/>
		<g>
			<circle class="st142" cx="685.15" cy="189.53" r="1.67"/>
		</g>
	</g>
</g>
<g>
	<g>
		<g>
			<line class="st225" x1="834.98" y1="487.64" x2="834.98" y2="372.43"/>
			<g>
				<rect x="833.51" y="486.1" class="st199" width="2.93" height="2.93"/>
			</g>
			<g>
				<rect x="833.51" y="371.03" class="st199" width="2.93" height="2.93"/>
			</g>
		</g>
	</g>
</g>
<g>
	<g>
		<g>
			<line class="st225" x1="722.98" y1="487.64" x2="722.98" y2="448.43"/>
			<g>
				<rect x="721.51" y="486.1" class="st199" width="2.93" height="2.93"/>
			</g>
			<g>
				<rect x="721.51" y="447.03" class="st199" width="2.93" height="2.93"/>
			</g>
		</g>
	</g>
</g>
<g>
	<g>
		<g>
			<line class="st225" x1="609.98" y1="487.64" x2="609.98" y2="372.43"/>
			<g>
				<rect x="608.51" y="486.1" class="st199" width="2.93" height="2.93"/>
			</g>
			<g>
				<rect x="608.51" y="371.03" class="st199" width="2.93" height="2.93"/>
			</g>
		</g>
	</g>
</g>
<g>
	<g>
		<line class="st225" x1="159.98" y1="372.43" x2="159.98" y2="487.64"/>
		<g>
			<rect x="158.51" y="371.03" class="st199" width="2.93" height="2.93"/>
		</g>
		<g>
			<rect x="158.51" y="486.1" class="st199" width="2.93" height="2.93"/>
		</g>
	</g>
</g>
<g>
	<g>
		<g>
			<line class="st225" x1="272.98" y1="448.43" x2="272.98" y2="487.64"/>
			<g>
				<rect x="271.51" y="447.03" class="st199" width="2.93" height="2.93"/>
			</g>
			<g>
				<rect x="271.51" y="486.1" class="st199" width="2.93" height="2.93"/>
			</g>
		</g>
	</g>
</g>
<g>
	<g>
		<g>
			<line class="st225" x1="384.98" y1="372.43" x2="384.98" y2="487.64"/>
			<g>
				<rect x="383.51" y="371.03" class="st199" width="2.93" height="2.93"/>
			</g>
			<g>
				<rect x="383.51" y="486.1" class="st199" width="2.93" height="2.93"/>
			</g>
		</g>
	</g>
</g>
<g>
	<g>
		<g>
			<line class="st225" x1="497.98" y1="448.43" x2="497.98" y2="487.64"/>
			<g>
				<rect x="496.51" y="447.03" class="st199" width="2.93" height="2.93"/>
			</g>
			<g>
				<rect x="496.51" y="486.1" class="st199" width="2.93" height="2.93"/>
			</g>
		</g>
	</g>
</g>
<g>
	<g>
		<line class="st227" x1="727.07" y1="89.53" x2="1045.48" y2="89.53"/>
		<g>
			<circle class="st142" cx="727.15" cy="89.53" r="1.67"/>
		</g>
	</g>
</g>
<g>
	<text transform="matrix(1 0 0 1 1057.5227 95.169)" class="st228 st229">INTERNET</text>
</g>
<g>
	<text transform="matrix(1 0 0 1 1057.5227 194.0996)"><tspan x="0" y="0" class="st228 st229">16-PORT</tspan><tspan x="0" y="15.99" class="st228 st229">10 GIGABIT</tspan><tspan x="0" y="31.99" class="st228 st229">ETHERNET</tspan><tspan x="0" y="47.98" class="st228 st229">SWITCH</tspan></text>
</g>
<g>
	<text transform="matrix(1 0 0 1 1057.5227 349.1426)" class="st228 st229">8 SERVERS</text>
</g>
<text transform="matrix(1 0 0 1 117.1653 311.7871)" class="st228 st230">NODE 1</text>
<g>
	<text transform="matrix(1 0 0 1 229.6213 388.7305)" class="st228 st230">NODE 2</text>
</g>
<text transform="matrix(1 0 0 1 342.0774 311.7871)" class="st228 st230">NODE 3</text>
<g>
	<text transform="matrix(1 0 0 1 454.5334 388.7305)" class="st228 st230">NODE 4</text>
</g>
<text transform="matrix(1 0 0 1 566.989 311.7871)" class="st228 st230">NODE 5</text>
<g>
	<text transform="matrix(1 0 0 1 679.4446 388.7305)" class="st228 st230">NODE 6</text>
</g>
<text transform="matrix(1 0 0 1 791.9006 311.7871)" class="st228 st230">NODE 7</text>
<text transform="matrix(1 0 0 1 904.3567 388.7305)" class="st228 st230">NODE 8</text>
<text transform="matrix(1 0 0 1 173.7927 311.7871)" class="st228 st230">192.168.1.11:9000</text>
<g>
	<text transform="matrix(1 0 0 1 286.2483 388.7305)" class="st228 st230">192.168.1.12:9000</text>
</g>
<text transform="matrix(1 0 0 1 398.7043 311.7871)" class="st228 st230">192.168.1.13:9000</text>
<g>
	<text transform="matrix(1 0 0 1 511.1604 388.7305)" class="st228 st230">192.168.1.14:9000</text>
</g>
<text transform="matrix(1 0 0 1 617.5256 311.7871)" class="st228 st230">192.168.1.15:9000</text>
<g>
	<text transform="matrix(1 0 0 1 728.6155 388.7305)" class="st228 st230">192.168.1.16:9000</text>
</g>
<text transform="matrix(1 0 0 1 843.3484 311.7871)" class="st228 st230">192.168.1.17:9000</text>
<text transform="matrix(1 0 0 1 954.8933 388.7305)" class="st228 st230">192.168.1.18:9000</text>
<g>
	<text transform="matrix(1 0 0 1 142.6916 586.3262)" class="st228 st230">EXPORT 1</text>
</g>
<g>
	<text transform="matrix(1 0 0 1 255.1477 586.3262)" class="st228 st230">EXPORT 2</text>
</g>
<g>
	<text transform="matrix(1 0 0 1 817.427 586.3262)" class="st228 st230">EXPORT 7</text>
</g>
<g>
	<text transform="matrix(1 0 0 1 704.9709 586.3262)" class="st228 st230">EXPORT 6</text>
</g>
<g>
	<text transform="matrix(1 0 0 1 592.5154 586.3262)" class="st228 st230">EXPORT 5 </text>
</g>
<g>
	<text transform="matrix(1 0 0 1 480.0593 586.3262)" class="st228 st230">EXPORT 4</text>
</g>
<g>
	<text transform="matrix(1 0 0 1 366.4914 586.3262)" class="st228 st230">EXPORT 3 </text>
</g>
<g>
	<path class="st231" d="M919.39,370.53H751.57c-2.54,0-4.59-2.06-4.59-4.59v-45.82c0-2.54,2.06-4.59,4.59-4.59h167.82
		c2.54,0,4.59,2.06,4.59,4.59v45.82C923.98,368.48,921.92,370.53,919.39,370.53z"/>
	<g>
		<circle class="st59" cx="846.48" cy="339.03" r="3"/>
		<circle class="st59" cx="858.48" cy="339.03" r="3"/>
		<circle class="st59" cx="869.48" cy="339.03" r="3"/>
		<circle class="st59" cx="881.48" cy="339.03" r="3"/>
		<circle class="st59" cx="892.48" cy="339.03" r="3"/>
		<circle class="st59" cx="852.48" cy="347.03" r="3"/>
		<circle class="st59" cx="864.48" cy="347.03" r="3"/>
		<circle class="st59" cx="875.48" cy="347.03" r="3"/>
		<circle class="st59" cx="887.48" cy="347.03" r="3"/>
		<circle class="st59" cx="898.48" cy="347.03" r="3"/>
	</g>
	<circle class="st232" cx="780.48" cy="343.03" r="10.5"/>
</g>
<g>
	<g>
		<line class="st227" x1="918.07" y1="343.53" x2="1046.48" y2="343.53"/>
		<g>
			<circle class="st142" cx="918.15" cy="343.53" r="1.67"/>
		</g>
	</g>
</g>
<g>
	<path class="st231" d="M694.39,370.53H526.57c-2.54,0-4.59-2.06-4.59-4.59v-45.82c0-2.54,2.06-4.59,4.59-4.59h167.82
		c2.54,0,4.59,2.06,4.59,4.59v45.82C698.98,368.48,696.92,370.53,694.39,370.53z"/>
	<g>
		<circle class="st59" cx="621.48" cy="339.03" r="3"/>
		<circle class="st59" cx="633.48" cy="339.03" r="3"/>
		<circle class="st59" cx="644.48" cy="339.03" r="3"/>
		<circle class="st59" cx="656.48" cy="339.03" r="3"/>
		<circle class="st59" cx="667.48" cy="339.03" r="3"/>
		<circle class="st59" cx="627.48" cy="347.03" r="3"/>
		<circle class="st59" cx="639.48" cy="347.03" r="3"/>
		<circle class="st59" cx="650.48" cy="347.03" r="3"/>
		<circle class="st59" cx="662.48" cy="347.03" r="3"/>
		<circle class="st59" cx="673.48" cy="347.03" r="3"/>
	</g>
	<circle class="st232" cx="555.48" cy="343.03" r="10.5"/>
</g>
<g>
	<path class="st231" d="M244.39,370.53H76.57c-2.54,0-4.59-2.06-4.59-4.59v-45.82c0-2.54,2.06-4.59,4.59-4.59h167.82
		c2.54,0,4.59,2.06,4.59,4.59v45.82C248.98,368.48,246.92,370.53,244.39,370.53z"/>
	<g>
		<circle class="st59" cx="172.48" cy="339.03" r="3"/>
		<circle class="st59" cx="183.48" cy="339.03" r="3"/>
		<circle class="st59" cx="195.48" cy="339.03" r="3"/>
		<circle class="st59" cx="206.48" cy="339.03" r="3"/>
		<circle class="st59" cx="218.48" cy="339.03" r="3"/>
		<circle class="st59" cx="178.48" cy="347.03" r="3"/>
		<circle class="st59" cx="189.48" cy="347.03" r="3"/>
		<circle class="st59" cx="201.48" cy="347.03" r="3"/>
		<circle class="st59" cx="212.48" cy="347.03" r="3"/>
		<circle class="st59" cx="224.48" cy="347.03" r="3"/>
	</g>
	<circle class="st232" cx="105.48" cy="343.03" r="10.5"/>
</g>
<g>
	<path class="st231" d="M357.39,447.53H189.57c-2.54,0-4.59-2.06-4.59-4.59v-45.82c0-2.54,2.06-4.59,4.59-4.59h167.82
		c2.54,0,4.59,2.06,4.59,4.59v45.82C361.98,445.48,359.92,447.53,357.39,447.53z"/>
	<g>
		<circle class="st59" cx="284.48" cy="416.03" r="3"/>
		<circle class="st59" cx="296.48" cy="416.03" r="3"/>
		<circle class="st59" cx="307.48" cy="416.03" r="3"/>
		<circle class="st59" cx="319.48" cy="416.03" r="3"/>
		<circle class="st59" cx="330.48" cy="416.03" r="3"/>
		<circle class="st59" cx="290.48" cy="424.03" r="3"/>
		<circle class="st59" cx="302.48" cy="424.03" r="3"/>
		<circle class="st59" cx="313.48" cy="424.03" r="3"/>
		<circle class="st59" cx="325.48" cy="424.03" r="3"/>
		<circle class="st59" cx="336.48" cy="424.03" r="3"/>
	</g>
	<circle class="st232" cx="218.48" cy="420.03" r="10.5"/>
</g>
<g>
	<path class="st231" d="M469.39,370.53H301.57c-2.54,0-4.59-2.06-4.59-4.59v-45.82c0-2.54,2.06-4.59,4.59-4.59h167.82
		c2.54,0,4.59,2.06,4.59,4.59v45.82C473.98,368.48,471.92,370.53,469.39,370.53z"/>
	<g>
		<circle class="st59" cx="397.48" cy="339.03" r="3"/>
		<circle class="st59" cx="408.48" cy="339.03" r="3"/>
		<circle class="st59" cx="420.48" cy="339.03" r="3"/>
		<circle class="st59" cx="431.48" cy="339.03" r="3"/>
		<circle class="st59" cx="442.48" cy="339.03" r="3"/>
		<circle class="st59" cx="403.48" cy="347.03" r="3"/>
		<circle class="st59" cx="414.48" cy="347.03" r="3"/>
		<circle class="st59" cx="426.48" cy="347.03" r="3"/>
		<circle class="st59" cx="437.48" cy="347.03" r="3"/>
		<circle class="st59" cx="448.48" cy="347.03" r="3"/>
	</g>
	<circle class="st232" cx="330.48" cy="343.03" r="10.5"/>
</g>
<g>
	<path class="st231" d="M581.39,447.53H413.57c-2.54,0-4.59-2.06-4.59-4.59v-45.82c0-2.54,2.06-4.59,4.59-4.59h167.82
		c2.54,0,4.59,2.06,4.59,4.59v45.82C585.98,445.48,583.92,447.53,581.39,447.53z"/>
	<g>
		<circle class="st59" cx="509.48" cy="416.03" r="3"/>
		<circle class="st59" cx="520.48" cy="416.03" r="3"/>
		<circle class="st59" cx="532.48" cy="416.03" r="3"/>
		<circle class="st59" cx="543.48" cy="416.03" r="3"/>
		<circle class="st59" cx="555.48" cy="416.03" r="3"/>
		<circle class="st59" cx="515.48" cy="424.03" r="3"/>
		<circle class="st59" cx="526.48" cy="424.03" r="3"/>
		<circle class="st59" cx="538.48" cy="424.03" r="3"/>
		<circle class="st59" cx="549.48" cy="424.03" r="3"/>
		<circle class="st59" cx="561.48" cy="424.03" r="3"/>
	</g>
	<circle class="st232" cx="443.48" cy="420.03" r="10.5"/>
</g>
<g>
	<path class="st231" d="M806.39,447.53H638.57c-2.54,0-4.59-2.06-4.59-4.59v-45.82c0-2.54,2.06-4.59,4.59-4.59h167.82
		c2.54,0,4.59,2.06,4.59,4.59v45.82C810.98,445.48,808.92,447.53,806.39,447.53z"/>
	<g>
		<circle class="st59" cx="734.48" cy="416.03" r="3"/>
		<circle class="st59" cx="745.48" cy="416.03" r="3"/>
		<circle class="st59" cx="757.48" cy="416.03" r="3"/>
		<circle class="st59" cx="768.48" cy="416.03" r="3"/>
		<circle class="st59" cx="780.48" cy="416.03" r="3"/>
		<circle class="st59" cx="740.48" cy="424.03" r="3"/>
		<circle class="st59" cx="751.48" cy="424.03" r="3"/>
		<circle class="st59" cx="763.48" cy="424.03" r="3"/>
		<circle class="st59" cx="774.48" cy="424.03" r="3"/>
		<circle class="st59" cx="786.48" cy="424.03" r="3"/>
	</g>
	<circle class="st232" cx="667.48" cy="420.03" r="10.5"/>
</g>
<g>
	<path class="st231" d="M1031.39,447.53H863.57c-2.54,0-4.59-2.06-4.59-4.59v-45.82c0-2.54,2.06-4.59,4.59-4.59h167.82
		c2.54,0,4.59,2.06,4.59,4.59v45.82C1035.98,445.48,1033.92,447.53,1031.39,447.53z"/>
	<g>
		<circle class="st59" cx="959.48" cy="416.03" r="3"/>
		<circle class="st59" cx="970.48" cy="416.03" r="3"/>
		<circle class="st59" cx="982.48" cy="416.03" r="3"/>
		<circle class="st59" cx="993.48" cy="416.03" r="3"/>
		<circle class="st59" cx="1005.48" cy="416.03" r="3"/>
		<circle class="st59" cx="965.48" cy="424.03" r="3"/>
		<circle class="st59" cx="976.48" cy="424.03" r="3"/>
		<circle class="st59" cx="988.48" cy="424.03" r="3"/>
		<circle class="st59" cx="999.48" cy="424.03" r="3"/>
		<circle class="st59" cx="1011.48" cy="424.03" r="3"/>
	</g>
	<circle class="st232" cx="892.48" cy="420.03" r="10.5"/>
</g>
<g>
	<g>
		<line class="st225" x1="947.98" y1="487.64" x2="947.98" y2="448.43"/>
		<g>
			<rect x="946.51" y="486.1" class="st199" width="2.93" height="2.93"/>
		</g>
		<g>
			<rect x="946.51" y="447.03" class="st199" width="2.93" height="2.93"/>
		</g>
	</g>
</g>
<g>
	<text transform="matrix(1 0 0 1 1057.5227 538.1768)"><tspan x="0" y="0" class="st228 st229">8 8TB</tspan><tspan x="0" y="15.99" class="st228 st229">DRIVES</tspan></text>
</g>
<g>
	<text transform="matrix(1 0 0 1 929.8831 586.3262)" class="st228 st230">EXPORT 8</text>
</g>
<g>
	<path class="st205" d="M867.48,491.43c0-1.33-1.07-2.4-2.4-2.4h-30.1h-30.1c-1.33,0-2.4,1.07-2.4,2.4v81.2c0,1.33,1.07,2.4,2.4,2.4
		h30.1h30.1c1.33,0,2.4-1.07,2.4-2.4V491.43z"/>
	<path class="st233" d="M834.98,574.03l0-12.67c2.8-0.08,5.5-0.53,8.07-1.3l6.55,4.77c0.14,0.1,0.27,0.21,0.42,0.3l0.05,0.03l0,0
		c1.95,1.28,4.41,1.87,7.01,1.36c3.76-0.72,6.75-3.78,7.41-7.55c0.71-4.13-1.26-7.87-4.46-9.77c0.2-0.27,4.04-5.44,4.38-6.67h3.07"
		/>
	<circle class="st234" cx="835.08" cy="529.2" r="29.54"/>
	<circle class="st59" cx="807.48" cy="493.03" r="2"/>
	<circle class="st59" cx="863.48" cy="493.03" r="2"/>
	<circle class="st59" cx="807.48" cy="570.03" r="2"/>
	<circle class="st59" cx="863.48" cy="570.03" r="2"/>
	<circle class="st59" cx="834.97" cy="529.2" r="2.36"/>
	<circle class="st59" cx="834.97" cy="529.2" r="2.36"/>
	<circle class="st235" cx="834.97" cy="529.2" r="5.6"/>
	<path class="st183" d="M857.86,551.25l-31.26-9.6c-0.12-0.03-0.24-0.05-0.36-0.05c-0.8,0-1.44,0.64-1.44,1.44
		c0,0.47,0.22,0.88,0.57,1.14l0,0.01l26.14,19.03l0,0c1.07,0.7,2.35,1.11,3.73,1.11c3.76,0,6.8-3.05,6.8-6.8
		C862.03,554.7,860.31,552.28,857.86,551.25z"/>
	<g>
		<circle class="st0" cx="854.98" cy="557.53" r="4.5"/>
	</g>
</g>
<g>
	<path class="st205" d="M755.48,491.43c0-1.33-1.07-2.4-2.4-2.4h-30.1h-30.1c-1.33,0-2.4,1.07-2.4,2.4v81.2c0,1.33,1.07,2.4,2.4,2.4
		h30.1h30.1c1.33,0,2.4-1.07,2.4-2.4V491.43z"/>
	<path class="st233" d="M722.98,574.03l0-12.67c2.8-0.08,5.5-0.53,8.07-1.3l6.55,4.77c0.14,0.1,0.27,0.21,0.42,0.3l0.05,0.03l0,0
		c1.95,1.28,4.41,1.87,7.01,1.36c3.76-0.72,6.75-3.78,7.41-7.55c0.71-4.13-1.26-7.87-4.46-9.77c0.2-0.27,4.04-5.44,4.38-6.67h3.07"
		/>
	<circle class="st234" cx="722.62" cy="529.2" r="29.54"/>
	<circle class="st59" cx="694.48" cy="493.03" r="2"/>
	<circle class="st59" cx="750.48" cy="493.03" r="2"/>
	<circle class="st59" cx="694.48" cy="570.03" r="2"/>
	<circle class="st59" cx="750.48" cy="570.03" r="2"/>
	<circle class="st59" cx="722.52" cy="529.2" r="2.36"/>
	<circle class="st59" cx="722.52" cy="529.2" r="2.36"/>
	<circle class="st235" cx="722.52" cy="529.2" r="5.6"/>
	<path class="st183" d="M745.4,551.25l-31.26-9.6c-0.12-0.03-0.24-0.05-0.36-0.05c-0.8,0-1.44,0.64-1.44,1.44
		c0,0.47,0.22,0.88,0.57,1.14l0,0.01l26.14,19.03l0,0c1.07,0.7,2.35,1.11,3.73,1.11c3.76,0,6.8-3.05,6.8-6.8
		C749.57,554.7,747.85,552.28,745.4,551.25z"/>
	<g>
		<circle class="st0" cx="742.98" cy="557.53" r="4.5"/>
	</g>
</g>
<g>
	<path class="st205" d="M642.48,491.43c0-1.33-1.07-2.4-2.4-2.4h-30.1h-30.1c-1.33,0-2.4,1.07-2.4,2.4v81.2c0,1.33,1.07,2.4,2.4,2.4
		h30.1h30.1c1.33,0,2.4-1.07,2.4-2.4V491.43z"/>
	<path class="st233" d="M609.98,574.03l0-12.67c2.8-0.08,5.5-0.53,8.07-1.3l6.55,4.77c0.14,0.1,0.27,0.21,0.42,0.3l0.05,0.03l0,0
		c1.95,1.28,4.41,1.87,7.01,1.36c3.76-0.72,6.75-3.78,7.41-7.55c0.71-4.13-1.26-7.87-4.46-9.77c0.2-0.27,4.04-5.44,4.38-6.67h3.07"
		/>
	<circle class="st234" cx="610.17" cy="529.2" r="29.54"/>
	<circle class="st59" cx="582.48" cy="493.03" r="2"/>
	<circle class="st59" cx="638.48" cy="493.03" r="2"/>
	<circle class="st59" cx="582.48" cy="570.03" r="2"/>
	<circle class="st59" cx="638.48" cy="570.03" r="2"/>
	<circle class="st59" cx="610.06" cy="529.2" r="2.36"/>
	<circle class="st59" cx="610.06" cy="529.2" r="2.36"/>
	<circle class="st235" cx="610.06" cy="529.2" r="5.6"/>
	<path class="st183" d="M632.94,551.25l-31.26-9.6c-0.12-0.03-0.24-0.05-0.36-0.05c-0.8,0-1.44,0.64-1.44,1.44
		c0,0.47,0.22,0.88,0.57,1.14l0,0.01l26.14,19.03l0,0c1.07,0.7,2.35,1.11,3.73,1.11c3.76,0,6.8-3.05,6.8-6.8
		C637.11,554.7,635.39,552.28,632.94,551.25z"/>
	<g>
		<circle class="st0" cx="629.98" cy="557.53" r="4.5"/>
	</g>
</g>
<g>
	<path class="st205" d="M530.48,491.43c0-1.33-1.07-2.4-2.4-2.4h-30.1h-30.1c-1.33,0-2.4,1.07-2.4,2.4v81.2c0,1.33,1.07,2.4,2.4,2.4
		h30.1h30.1c1.33,0,2.4-1.07,2.4-2.4V491.43z"/>
	<path class="st233" d="M497.98,574.03l0-12.67c2.8-0.08,5.5-0.53,8.07-1.3l6.55,4.77c0.14,0.1,0.27,0.21,0.42,0.3l0.05,0.03l0,0
		c1.95,1.28,4.41,1.87,7.01,1.36c3.76-0.72,6.75-3.78,7.41-7.55c0.71-4.13-1.26-7.87-4.46-9.77c0.2-0.27,4.04-5.44,4.38-6.67h3.07"
		/>
	<circle class="st234" cx="497.71" cy="529.2" r="29.54"/>
	<circle class="st59" cx="469.48" cy="493.03" r="2"/>
	<circle class="st59" cx="525.48" cy="493.03" r="2"/>
	<circle class="st59" cx="469.48" cy="570.03" r="2"/>
	<circle class="st59" cx="525.48" cy="570.03" r="2"/>
	<circle class="st59" cx="497.6" cy="529.2" r="2.36"/>
	<circle class="st59" cx="497.6" cy="529.2" r="2.36"/>
	<circle class="st235" cx="497.6" cy="529.2" r="5.6"/>
	<path class="st183" d="M520.49,551.25l-31.26-9.6c-0.12-0.03-0.24-0.05-0.36-0.05c-0.8,0-1.44,0.64-1.44,1.44
		c0,0.47,0.22,0.88,0.57,1.14l0,0.01l26.14,19.03l0,0c1.07,0.7,2.35,1.11,3.73,1.11c3.76,0,6.8-3.05,6.8-6.8
		C524.66,554.7,522.94,552.28,520.49,551.25z"/>
	<g>
		<circle class="st0" cx="517.98" cy="557.53" r="4.5"/>
	</g>
</g>
<g>
	<path class="st205" d="M417.48,491.43c0-1.33-1.07-2.4-2.4-2.4h-30.1h-30.1c-1.33,0-2.4,1.07-2.4,2.4v81.2c0,1.33,1.07,2.4,2.4,2.4
		h30.1h30.1c1.33,0,2.4-1.07,2.4-2.4V491.43z"/>
	<path class="st233" d="M384.98,574.03l0-12.67c2.8-0.08,5.5-0.53,8.07-1.3l6.55,4.77c0.14,0.1,0.27,0.21,0.42,0.3l0.05,0.03l0,0
		c1.95,1.28,4.41,1.87,7.01,1.36c3.76-0.72,6.75-3.78,7.41-7.55c0.71-4.13-1.26-7.87-4.46-9.77c0.2-0.27,4.04-5.44,4.38-6.67h3.07"
		/>
	<circle class="st234" cx="385.26" cy="529.2" r="29.54"/>
	<circle class="st59" cx="357.48" cy="493.03" r="2"/>
	<circle class="st59" cx="413.48" cy="493.03" r="2"/>
	<circle class="st59" cx="357.48" cy="570.03" r="2"/>
	<circle class="st59" cx="413.48" cy="570.03" r="2"/>
	<circle class="st59" cx="385.15" cy="529.2" r="2.36"/>
	<circle class="st59" cx="385.15" cy="529.2" r="2.36"/>
	<circle class="st235" cx="385.15" cy="529.2" r="5.6"/>
	<path class="st183" d="M408.03,551.25l-31.26-9.6c-0.12-0.03-0.24-0.05-0.36-0.05c-0.8,0-1.44,0.64-1.44,1.44
		c0,0.47,0.22,0.88,0.57,1.14l0,0.01l26.14,19.03l0,0c1.07,0.7,2.35,1.11,3.73,1.11c3.76,0,6.8-3.05,6.8-6.8
		C412.2,554.7,410.48,552.28,408.03,551.25z"/>
	<g>
		<circle class="st0" cx="404.98" cy="557.53" r="4.5"/>
	</g>
</g>
<g>
	<path class="st205" d="M305.48,491.43c0-1.33-1.07-2.4-2.4-2.4h-30.1h-30.1c-1.33,0-2.4,1.07-2.4,2.4v81.2c0,1.33,1.07,2.4,2.4,2.4
		h30.1h30.1c1.33,0,2.4-1.07,2.4-2.4V491.43z"/>
	<path class="st233" d="M272.98,574.03l0-12.67c2.8-0.08,5.5-0.53,8.07-1.3l6.55,4.77c0.14,0.1,0.27,0.21,0.42,0.3l0.05,0.03l0,0
		c1.95,1.28,4.41,1.87,7.01,1.36c3.76-0.72,6.75-3.78,7.41-7.55c0.71-4.13-1.26-7.87-4.46-9.77c0.2-0.27,4.04-5.44,4.38-6.67h3.07"
		/>
	<circle class="st234" cx="272.8" cy="529.2" r="29.54"/>
	<circle class="st59" cx="244.48" cy="493.03" r="2"/>
	<circle class="st59" cx="300.48" cy="493.03" r="2"/>
	<circle class="st59" cx="244.48" cy="570.03" r="2"/>
	<circle class="st59" cx="300.48" cy="570.03" r="2"/>
	<circle class="st59" cx="272.69" cy="529.2" r="2.36"/>
	<circle class="st59" cx="272.69" cy="529.2" r="2.36"/>
	<circle class="st235" cx="272.69" cy="529.2" r="5.6"/>
	<path class="st183" d="M295.58,551.25l-31.26-9.6c-0.12-0.03-0.24-0.05-0.36-0.05c-0.8,0-1.44,0.64-1.44,1.44
		c0,0.47,0.22,0.88,0.57,1.14l0,0.01l26.14,19.03l0,0c1.07,0.7,2.35,1.11,3.73,1.11c3.76,0,6.8-3.05,6.8-6.8
		C299.75,554.7,298.03,552.28,295.58,551.25z"/>
	<g>
		<circle class="st0" cx="292.98" cy="557.53" r="4.5"/>
	</g>
</g>
<g>
	<path class="st205" d="M192.48,491.43c0-1.33-1.07-2.4-2.4-2.4h-30.1h-30.1c-1.33,0-2.4,1.07-2.4,2.4v81.2c0,1.33,1.07,2.4,2.4,2.4
		h30.1h30.1c1.33,0,2.4-1.07,2.4-2.4V491.43z"/>
	<path class="st233" d="M159.98,574.03l0-12.67c2.8-0.08,5.5-0.53,8.07-1.3l6.55,4.77c0.14,0.1,0.27,0.21,0.42,0.3l0.05,0.03l0,0
		c1.95,1.28,4.41,1.87,7.01,1.36c3.76-0.72,6.75-3.78,7.41-7.55c0.71-4.13-1.26-7.87-4.46-9.77c0.2-0.27,4.04-5.44,4.38-6.67h3.07"
		/>
	<circle class="st234" cx="160.34" cy="529.2" r="29.54"/>
	<circle class="st59" cx="132.48" cy="493.03" r="2"/>
	<circle class="st59" cx="188.48" cy="493.03" r="2"/>
	<circle class="st59" cx="132.48" cy="570.03" r="2"/>
	<circle class="st59" cx="188.48" cy="570.03" r="2"/>
	<circle class="st59" cx="160.24" cy="529.2" r="2.36"/>
	<circle class="st59" cx="160.24" cy="529.2" r="2.36"/>
	<circle class="st235" cx="160.24" cy="529.2" r="5.6"/>
	<path class="st183" d="M183.12,551.25l-31.26-9.6c-0.12-0.03-0.24-0.05-0.36-0.05c-0.8,0-1.44,0.64-1.44,1.44
		c0,0.47,0.22,0.88,0.57,1.14l0,0.01l26.14,19.03l0,0c1.07,0.7,2.35,1.11,3.73,1.11c3.76,0,6.8-3.05,6.8-6.8
		C187.29,554.7,185.57,552.28,183.12,551.25z"/>
	<g>
		<circle class="st0" cx="180.98" cy="557.53" r="4.5"/>
	</g>
</g>
<g>
	<path class="st205" d="M980.48,491.43c0-1.33-1.07-2.4-2.4-2.4h-30.1h-30.1c-1.33,0-2.4,1.07-2.4,2.4v81.2c0,1.33,1.07,2.4,2.4,2.4
		h30.1h30.1c1.33,0,2.4-1.07,2.4-2.4V491.43z"/>
	<path class="st233" d="M947.98,574.03l0-12.67c2.8-0.08,5.5-0.53,8.07-1.3l6.55,4.77c0.14,0.1,0.27,0.21,0.42,0.3l0.05,0.03l0,0
		c1.95,1.28,4.41,1.87,7.01,1.36c3.76-0.72,6.75-3.78,7.41-7.55c0.71-4.13-1.26-7.87-4.46-9.77c0.2-0.27,4.04-5.44,4.38-6.67h3.07"
		/>
	<circle class="st234" cx="947.54" cy="529.2" r="29.54"/>
	<circle class="st59" cx="919.48" cy="493.03" r="2"/>
	<circle class="st59" cx="975.48" cy="493.03" r="2"/>
	<circle class="st59" cx="919.48" cy="570.03" r="2"/>
	<circle class="st59" cx="975.48" cy="570.03" r="2"/>
	<circle class="st59" cx="947.43" cy="529.2" r="2.36"/>
	<circle class="st59" cx="947.43" cy="529.2" r="2.36"/>
	<circle class="st235" cx="947.43" cy="529.2" r="5.6"/>
	<path class="st183" d="M970.31,551.25l-31.26-9.6c-0.12-0.03-0.24-0.05-0.36-0.05c-0.8,0-1.44,0.64-1.44,1.44
		c0,0.47,0.22,0.88,0.57,1.14l0,0.01l26.14,19.03l0,0c1.07,0.7,2.35,1.11,3.73,1.11c3.76,0,6.8-3.05,6.8-6.8
		C974.48,554.7,972.76,552.28,970.31,551.25z"/>
	<g>
		<circle class="st0" cx="967.98" cy="557.53" r="4.5"/>
	</g>
</g>
<g>
	<g>
		<line class="st227" x1="961.07" y1="532.53" x2="1046.48" y2="532.58"/>
		<g>
			<circle class="st142" cx="961.15" cy="532.53" r="1.67"/>
		</g>
	</g>
</g>
</svg>
