<?xml version="1.0" encoding="utf-8"?>
<!-- Generator: Adobe Illustrator 21.0.0, SVG Export Plug-In . SVG Version: 6.00 Build 0)  -->
<svg version="1.1" id="Layer_1" xmlns="http://www.w3.org/2000/svg" xmlns:xlink="http://www.w3.org/1999/xlink" x="0px" y="0px"
	 viewBox="0 0 1200 675" style="enable-background:new 0 0 1200 675;" xml:space="preserve">
<style type="text/css">
	.st0{fill:#FFFFFF;}
	.st1{fill:#343435;}
	.st2{fill:#494949;}
	.st3{fill:#C4C4C4;}
	.st4{fill:#21211F;}
	.st5{fill:#E6E6E6;}
	.st6{opacity:0.56;fill:url(#SVGID_1_);}
	.st7{fill:#39B54A;}
	.st8{opacity:0.56;fill:url(#SVGID_2_);}
	.st9{opacity:0.56;fill:url(#SVGID_3_);}
	.st10{opacity:0.56;fill:url(#SVGID_4_);}
	.st11{opacity:0.56;fill:url(#SVGID_5_);}
	.st12{opacity:0.56;fill:url(#SVGID_6_);}
	.st13{opacity:0.56;fill:url(#SVGID_7_);}
	.st14{opacity:0.56;fill:url(#SVGID_8_);}
	.st15{opacity:0.56;fill:url(#SVGID_9_);}
	.st16{opacity:0.56;fill:url(#SVGID_10_);}
	.st17{opacity:0.56;fill:url(#SVGID_11_);}
	.st18{opacity:0.56;fill:url(#SVGID_12_);}
	.st19{opacity:0.56;fill:url(#SVGID_13_);}
	.st20{opacity:0.56;fill:url(#SVGID_14_);}
	.st21{opacity:0.56;fill:url(#SVGID_15_);}
	.st22{opacity:0.56;fill:url(#SVGID_16_);}
	.st23{opacity:0.56;fill:url(#SVGID_17_);}
	.st24{opacity:0.56;fill:url(#SVGID_18_);}
	.st25{opacity:0.56;fill:url(#SVGID_19_);}
	.st26{opacity:0.56;fill:url(#SVGID_20_);}
	.st27{opacity:0.56;fill:url(#SVGID_21_);}
	.st28{opacity:0.56;fill:url(#SVGID_22_);}
	.st29{opacity:0.56;fill:url(#SVGID_23_);}
	.st30{opacity:0.56;fill:url(#SVGID_24_);}
	.st31{opacity:0.56;fill:url(#SVGID_25_);}
	.st32{opacity:0.56;fill:url(#SVGID_26_);}
	.st33{opacity:0.56;fill:url(#SVGID_27_);}
	.st34{opacity:0.56;fill:url(#SVGID_28_);}
	.st35{opacity:0.56;fill:url(#SVGID_29_);}
	.st36{opacity:0.56;fill:url(#SVGID_30_);}
	.st37{opacity:0.56;fill:url(#SVGID_31_);}
	.st38{opacity:0.56;fill:url(#SVGID_32_);}
	.st39{opacity:0.56;fill:url(#SVGID_33_);}
	.st40{fill:none;stroke:#000000;stroke-miterlimit:10;}
	.st41{fill:none;stroke:#CCCCCC;stroke-width:2;stroke-miterlimit:10;}
	.st42{fill:#CCCCCC;}
	.st43{fill:none;stroke:#666666;stroke-width:2;stroke-miterlimit:10;}
	.st44{fill:#666666;}
	.st45{fill:none;stroke:#EF524F;stroke-width:2;stroke-miterlimit:10;stroke-dasharray:12,12;}
	.st46{fill:#EF524F;}
	.st47{fill:#62757C;}
	.st48{fill:#23363A;}
	.st49{fill:#FEFBF6;}
	.st50{fill:#F7F7F7;stroke:#23363A;stroke-width:6;stroke-miterlimit:10;}
	.st51{fill:none;stroke:#23363A;stroke-width:3;stroke-miterlimit:10;}
	.st52{fill:#F7F7F7;}
	.st53{fill:#23363A;stroke:#F7F7F7;stroke-width:2;stroke-miterlimit:10;}
	.st54{fill:#37474F;}
	.st55{fill:#EDEAE2;}
	.st56{fill:#4C626D;}
	.st57{fill:#E8EDEF;}
	.st58{fill:#515151;}
	.st59{fill:#939393;}
	.st60{opacity:0.56;fill:url(#SVGID_34_);}
	.st61{opacity:0.56;fill:url(#SVGID_35_);}
	.st62{opacity:0.56;fill:url(#SVGID_36_);}
	.st63{opacity:0.56;fill:url(#SVGID_37_);}
	.st64{opacity:0.56;fill:url(#SVGID_38_);}
	.st65{opacity:0.56;fill:url(#SVGID_39_);}
	.st66{opacity:0.56;fill:url(#SVGID_40_);}
	.st67{opacity:0.56;fill:url(#SVGID_41_);}
	.st68{opacity:0.56;fill:url(#SVGID_42_);}
	.st69{opacity:0.56;fill:url(#SVGID_43_);}
	.st70{opacity:0.56;fill:url(#SVGID_44_);}
	.st71{opacity:0.56;fill:url(#SVGID_45_);}
	.st72{opacity:0.56;fill:url(#SVGID_46_);}
	.st73{opacity:0.56;fill:url(#SVGID_47_);}
	.st74{opacity:0.56;fill:url(#SVGID_48_);}
	.st75{opacity:0.56;fill:url(#SVGID_49_);}
	.st76{opacity:0.56;fill:url(#SVGID_50_);}
	.st77{opacity:0.56;fill:url(#SVGID_51_);}
	.st78{opacity:0.56;fill:url(#SVGID_52_);}
	.st79{opacity:0.56;fill:url(#SVGID_53_);}
	.st80{opacity:0.56;fill:url(#SVGID_54_);}
	.st81{opacity:0.56;fill:url(#SVGID_55_);}
	.st82{opacity:0.56;fill:url(#SVGID_56_);}
	.st83{opacity:0.56;fill:url(#SVGID_57_);}
	.st84{opacity:0.56;fill:url(#SVGID_58_);}
	.st85{opacity:0.56;fill:url(#SVGID_59_);}
	.st86{opacity:0.56;fill:url(#SVGID_60_);}
	.st87{opacity:0.56;fill:url(#SVGID_61_);}
	.st88{opacity:0.56;fill:url(#SVGID_62_);}
	.st89{opacity:0.56;fill:url(#SVGID_63_);}
	.st90{opacity:0.56;fill:url(#SVGID_64_);}
	.st91{opacity:0.56;fill:url(#SVGID_65_);}
	.st92{opacity:0.56;fill:url(#SVGID_66_);}
	.st93{fill:none;stroke:#898989;stroke-miterlimit:10;}
	.st94{fill:#898989;}
	.st95{fill:none;stroke:#666666;stroke-miterlimit:10;}
	.st96{fill:none;stroke:#EF524F;stroke-miterlimit:10;}
	.st97{fill:none;stroke:#EF524F;stroke-miterlimit:10;stroke-dasharray:12.0065,12.0065;}
	.st98{fill:#B2B2B2;}
	.st99{fill:#5A5C5E;}
	.st100{fill:#DBDBDB;}
	.st101{fill:#6A6B6B;}
	.st102{fill:none;stroke:#EF524F;stroke-miterlimit:10;stroke-dasharray:11.6391,11.6391;}
	.st103{fill:none;stroke:#EF524F;stroke-miterlimit:10;stroke-dasharray:12.7731,12.7731;}
	.st104{fill:none;stroke:#EF524F;stroke-miterlimit:10;stroke-dasharray:11.9372,11.9372;}
	.st105{opacity:0.56;fill:url(#SVGID_67_);}
	.st106{opacity:0.56;fill:url(#SVGID_68_);}
	.st107{opacity:0.56;fill:url(#SVGID_69_);}
	.st108{opacity:0.56;fill:url(#SVGID_70_);}
	.st109{opacity:0.56;fill:url(#SVGID_71_);}
	.st110{opacity:0.56;fill:url(#SVGID_72_);}
	.st111{opacity:0.56;fill:url(#SVGID_73_);}
	.st112{opacity:0.56;fill:url(#SVGID_74_);}
	.st113{opacity:0.56;fill:url(#SVGID_75_);}
	.st114{opacity:0.56;fill:url(#SVGID_76_);}
	.st115{opacity:0.56;fill:url(#SVGID_77_);}
	.st116{opacity:0.56;fill:url(#SVGID_78_);}
	.st117{opacity:0.56;fill:url(#SVGID_79_);}
	.st118{opacity:0.56;fill:url(#SVGID_80_);}
	.st119{opacity:0.56;fill:url(#SVGID_81_);}
	.st120{opacity:0.56;fill:url(#SVGID_82_);}
	.st121{opacity:0.56;fill:url(#SVGID_83_);}
	.st122{opacity:0.56;fill:url(#SVGID_84_);}
	.st123{opacity:0.56;fill:url(#SVGID_85_);}
	.st124{opacity:0.56;fill:url(#SVGID_86_);}
	.st125{opacity:0.56;fill:url(#SVGID_87_);}
	.st126{opacity:0.56;fill:url(#SVGID_88_);}
	.st127{opacity:0.56;fill:url(#SVGID_89_);}
	.st128{opacity:0.56;fill:url(#SVGID_90_);}
	.st129{opacity:0.56;fill:url(#SVGID_91_);}
	.st130{opacity:0.56;fill:url(#SVGID_92_);}
	.st131{opacity:0.56;fill:url(#SVGID_93_);}
	.st132{opacity:0.56;fill:url(#SVGID_94_);}
	.st133{opacity:0.56;fill:url(#SVGID_95_);}
	.st134{opacity:0.56;fill:url(#SVGID_96_);}
	.st135{opacity:0.56;fill:url(#SVGID_97_);}
	.st136{opacity:0.56;fill:url(#SVGID_98_);}
	.st137{opacity:0.56;fill:url(#SVGID_99_);}
	.st138{fill:none;stroke:#CCCCCC;stroke-width:1.778;stroke-miterlimit:10;}
	.st139{fill:none;stroke:#EF524F;stroke-width:1.778;stroke-miterlimit:10;stroke-dasharray:10.6678,10.6678;}
	.st140{fill:#E5E5E5;}
	.st141{fill:none;stroke:#666666;stroke-width:1.778;stroke-miterlimit:10;}
	.st142{fill:#F47B67;}
	.st143{fill:none;stroke:#EAEAEA;stroke-width:0.8726;stroke-miterlimit:10;}
	.st144{fill:#727272;}
	.st145{fill:none;stroke:#EAEAEA;stroke-width:0.75;stroke-miterlimit:10;}
	.st146{fill:#FFFFFF;stroke:#9B9B9B;stroke-miterlimit:10;}
	.st147{fill:none;stroke:#9B9B9B;stroke-miterlimit:10;}
	.st148{fill:#9B9B9B;}
	.st149{opacity:0.56;fill:url(#SVGID_100_);}
	.st150{opacity:0.56;fill:url(#SVGID_101_);}
	.st151{opacity:0.56;fill:url(#SVGID_102_);}
	.st152{opacity:0.56;fill:url(#SVGID_103_);}
	.st153{opacity:0.56;fill:url(#SVGID_104_);}
	.st154{opacity:0.56;fill:url(#SVGID_105_);}
	.st155{opacity:0.56;fill:url(#SVGID_106_);}
	.st156{opacity:0.56;fill:url(#SVGID_107_);}
	.st157{opacity:0.56;fill:url(#SVGID_108_);}
	.st158{opacity:0.56;fill:url(#SVGID_109_);}
	.st159{opacity:0.56;fill:url(#SVGID_110_);}
	.st160{opacity:0.56;fill:url(#SVGID_111_);}
	.st161{opacity:0.56;fill:url(#SVGID_112_);}
	.st162{opacity:0.56;fill:url(#SVGID_113_);}
	.st163{opacity:0.56;fill:url(#SVGID_114_);}
	.st164{opacity:0.56;fill:url(#SVGID_115_);}
	.st165{opacity:0.56;fill:url(#SVGID_116_);}
	.st166{opacity:0.56;fill:url(#SVGID_117_);}
	.st167{opacity:0.56;fill:url(#SVGID_118_);}
	.st168{opacity:0.56;fill:url(#SVGID_119_);}
	.st169{opacity:0.56;fill:url(#SVGID_120_);}
	.st170{opacity:0.56;fill:url(#SVGID_121_);}
	.st171{opacity:0.56;fill:url(#SVGID_122_);}
	.st172{opacity:0.56;fill:url(#SVGID_123_);}
	.st173{opacity:0.56;fill:url(#SVGID_124_);}
	.st174{opacity:0.56;fill:url(#SVGID_125_);}
	.st175{opacity:0.56;fill:url(#SVGID_126_);}
	.st176{opacity:0.56;fill:url(#SVGID_127_);}
	.st177{opacity:0.56;fill:url(#SVGID_128_);}
	.st178{opacity:0.56;fill:url(#SVGID_129_);}
	.st179{opacity:0.56;fill:url(#SVGID_130_);}
	.st180{opacity:0.56;fill:url(#SVGID_131_);}
	.st181{opacity:0.56;fill:url(#SVGID_132_);}
	.st182{fill:#E8E8E8;stroke:#C6C6C6;stroke-width:1.0826;stroke-miterlimit:10;}
	.st183{fill:#F15A24;}
	.st184{fill:#FFFFFF;stroke:#C6C6C6;stroke-width:1.0826;stroke-miterlimit:10;}
	.st185{fill:#636363;}
	.st186{fill:none;stroke:#636363;stroke-miterlimit:10;}
	.st187{fill:none;stroke:#EF524F;stroke-miterlimit:10;stroke-dasharray:12,12;}
	.st188{fill:none;stroke:#636363;stroke-width:0.6802;stroke-miterlimit:10;}
	.st189{fill:#FFFFFF;stroke:#636363;stroke-width:0.6802;stroke-miterlimit:10;}
	.st190{fill:none;stroke:#EF524F;stroke-miterlimit:10;stroke-dasharray:11.4666,11.4666;}
	.st191{fill:#E8E8E8;stroke:#898989;stroke-width:0.5488;stroke-miterlimit:10;}
	.st192{fill:#FFFFFF;stroke:#898989;stroke-width:0.5488;stroke-miterlimit:10;}
	.st193{fill:#22B573;}
	.st194{fill:#E8E8E8;}
	.st195{fill:#A8A8A8;}
	.st196{fill:#777777;}
	.st197{fill:#4C4C4C;}
	.st198{fill:none;stroke:#3F3F3F;stroke-miterlimit:10;}
	.st199{fill:#3F3F3F;}
	.st200{fill:none;stroke:#5B5B5B;stroke-miterlimit:10;}
	.st201{fill:#5B5B5B;}
	.st202{fill:none;stroke:#F47B67;stroke-miterlimit:10;}
	.st203{fill:#E8E8E8;stroke:#C6C6C6;stroke-miterlimit:10;}
	.st204{fill:#FFFFFF;stroke:#C6C6C6;stroke-miterlimit:10;}
	.st205{fill:#BFBFBF;}
	.st206{fill:none;stroke:#929292;stroke-width:1.0006;stroke-miterlimit:10;}
	.st207{fill:none;stroke:#939393;stroke-width:2;stroke-miterlimit:10;}
	.st208{fill:#E8E8E8;stroke:#C6C6C6;stroke-width:1.0171;stroke-miterlimit:10;}
	.st209{fill:#FFFFFF;stroke:#C6C6C6;stroke-width:1.0171;stroke-miterlimit:10;}
	.st210{fill:none;stroke:#C6C6C6;stroke-width:1.0171;stroke-miterlimit:10;}
	.st211{fill:none;stroke:#929292;stroke-width:0.9465;stroke-miterlimit:10;}
	.st212{fill:#FFFFFF;stroke:#C6C6C6;stroke-width:0.9459;stroke-miterlimit:10;}
	.st213{fill:none;stroke:#939393;stroke-width:1.8919;stroke-miterlimit:10;}
	.st214{fill:none;stroke:#EAEAEA;stroke-width:0.6078;stroke-miterlimit:10;}
	.st215{fill:none;stroke:#CCCCCC;stroke-width:1.5;stroke-miterlimit:10;}
	.st216{fill:#B3B3B3;}
	.st217{fill:#FFFFFF;stroke:#000000;stroke-width:0.25;stroke-miterlimit:10;}
	.st218{clip-path:url(#SVGID_134_);}
	.st219{clip-path:url(#SVGID_136_);}
	.st220{clip-path:url(#SVGID_138_);}
	.st221{fill:#F5F5F5;}
	.st222{fill:none;stroke:#CECECE;stroke-width:0.413;stroke-miterlimit:10;}
	.st223{fill:none;stroke:#CCCCCC;stroke-width:0.8606;stroke-miterlimit:10;}
	.st224{fill:none;stroke:#000000;stroke-width:0.5553;stroke-miterlimit:10;}
	.st225{fill:none;stroke:#3F3F3F;stroke-width:0.5553;stroke-miterlimit:10;}
	.st226{fill:none;stroke:#5B5B5B;stroke-width:0.5553;stroke-miterlimit:10;}
	.st227{fill:none;stroke:#F47B67;stroke-width:0.5553;stroke-miterlimit:10;}
	.st228{fill:#E8E8E8;stroke:#C6C6C6;stroke-width:0.5553;stroke-miterlimit:10;}
	.st229{fill:#FFFFFF;stroke:#C6C6C6;stroke-width:0.5499;stroke-miterlimit:10;}
	.st230{fill:none;stroke:#929292;stroke-width:0.5557;stroke-miterlimit:10;}
	.st231{fill:#FFFFFF;stroke:#C6C6C6;stroke-width:0.5553;stroke-miterlimit:10;}
	.st232{fill:none;stroke:#939393;stroke-width:1.1106;stroke-miterlimit:10;}
	.st233{fill:none;stroke:#3F3F3F;stroke-width:0.5501;stroke-miterlimit:10;}
	.st234{font-family:'Lato-Light';}
	.st235{font-size:13.2025px;}
	.st236{font-size:8.8026px;}
	.st237{fill:#E8E8E8;stroke:#C6C6C6;stroke-width:0.5595;stroke-miterlimit:10;}
	.st238{fill:none;stroke:#C6C6C6;stroke-width:0.5595;stroke-miterlimit:10;}
	.st239{font-size:7.7073px;}
	.st240{fill:none;stroke:#929292;stroke-width:0.5207;stroke-miterlimit:10;}
	.st241{fill:#FFFFFF;stroke:#C6C6C6;stroke-width:0.5204;stroke-miterlimit:10;}
	.st242{fill:none;stroke:#939393;stroke-width:1.0407;stroke-miterlimit:10;}
	.st243{fill:none;stroke:#F47B67;stroke-width:0.5501;stroke-miterlimit:10;}
	.st244{fill:none;stroke:#CECECE;stroke-width:0.3562;stroke-miterlimit:10;}
	.st245{fill:#FFFFFF;stroke:#9B9B9B;stroke-width:0.474;stroke-miterlimit:10;}
	.st246{fill:#FFFFFF;stroke:#9B9B9B;stroke-width:0.4641;stroke-miterlimit:10;}
	.st247{fill:#FFFFFF;stroke:#9B9B9B;stroke-width:0.4611;stroke-miterlimit:10;}
	.st248{fill:#FFFFFF;stroke:#9B9B9B;stroke-width:0.4612;stroke-miterlimit:10;}
	.st249{fill:#FFFFFF;stroke:#9B9B9B;stroke-width:0.4783;stroke-miterlimit:10;}
	.st250{fill:#FFFFFF;stroke:#9B9B9B;stroke-width:0.4741;stroke-miterlimit:10;}
	.st251{fill:#FFFFFF;stroke:#9B9B9B;stroke-width:0.4764;stroke-miterlimit:10;}
	.st252{fill:#FFFFFF;stroke:#9B9B9B;stroke-width:0.4785;stroke-miterlimit:10;}
	.st253{fill:#FFFFFF;stroke:#9B9B9B;stroke-width:0.4207;stroke-miterlimit:10;}
	.st254{fill:#FFFFFF;stroke:#9B9B9B;stroke-width:0.4243;stroke-miterlimit:10;}
	.st255{fill:#FFFFFF;stroke:#9B9B9B;stroke-width:0.4302;stroke-miterlimit:10;}
	.st256{fill:#FFFFFF;stroke:#9B9B9B;stroke-width:0.4799;stroke-miterlimit:10;}
	.st257{fill:#FFFFFF;stroke:#9B9B9B;stroke-width:0.479;stroke-miterlimit:10;}
	.st258{fill:none;stroke:#9B9B9B;stroke-width:0.474;stroke-miterlimit:10;}
</style>
<g>
	<path class="st42" d="M630.64,184.03H422.33c-3,0-5.43-2.43-5.43-5.43v-29.14c0-3,2.43-5.43,5.43-5.43h209.29
		c2.92,0,5.29,2.37,5.29,5.29v28.46C636.9,181.22,634.08,184.03,630.64,184.03z"/>
	<rect x="416.9" y="153.03" class="st194" width="220" height="7"/>
	<path class="st195" d="M471.17,177.03h-45.55c-1.5,0-2.72-1.22-2.72-2.72v-7.55c0-1.5,1.22-2.72,2.72-2.72h45.55
		c1.5,0,2.72,1.22,2.72,2.72v7.55C473.9,175.81,472.68,177.03,471.17,177.03z"/>
	<path class="st196" d="M468.45,175.03h-3.12c-1.9,0-3.44-1.54-3.44-3.44v-3.12c0-1.9,1.54-3.44,3.44-3.44h3.12
		c1.9,0,3.44,1.54,3.44,3.44v3.12C471.9,173.49,470.36,175.03,468.45,175.03z"/>
	<path class="st196" d="M455.45,175.03h-3.12c-1.9,0-3.44-1.54-3.44-3.44v-3.12c0-1.9,1.54-3.44,3.44-3.44h3.12
		c1.9,0,3.44,1.54,3.44,3.44v3.12C458.9,173.49,457.36,175.03,455.45,175.03z"/>
	<path class="st196" d="M443.45,175.03h-3.12c-1.9,0-3.44-1.54-3.44-3.44v-3.12c0-1.9,1.54-3.44,3.44-3.44h3.12
		c1.9,0,3.44,1.54,3.44,3.44v3.12C446.9,173.49,445.36,175.03,443.45,175.03z"/>
	<path class="st196" d="M430.45,175.03h-3.12c-1.9,0-3.44-1.54-3.44-3.44v-3.12c0-1.9,1.54-3.44,3.44-3.44h3.12
		c1.9,0,3.44,1.54,3.44,3.44v3.12C433.9,173.49,432.36,175.03,430.45,175.03z"/>
	<path class="st197" d="M428.9,161.62l-0.17,0.1l-0.11-0.43l0.69-0.26h0.59v2h-1V161.62z"/>
	<path class="st197" d="M440.9,163.08l0.74-0.65c0.08-0.06,0.14-0.12,0.19-0.17c0.05-0.05,0.1-0.1,0.13-0.14
		c0.03-0.04,0.06-0.09,0.07-0.13c0.01-0.04,0.02-0.09,0.02-0.14c0-0.1-0.03-0.18-0.09-0.23c-0.06-0.05-0.14-0.08-0.23-0.08
		c-0.09,0-0.18,0.03-0.25,0.08c-0.07,0.05-0.15,0.13-0.24,0.24l-0.37-0.3c0.06-0.08,0.12-0.15,0.18-0.21
		c0.06-0.06,0.13-0.11,0.19-0.16c0.07-0.04,0.15-0.07,0.23-0.1c0.08-0.02,0.18-0.03,0.29-0.03c0.12,0,0.24,0.02,0.34,0.05
		c0.1,0.04,0.19,0.08,0.26,0.15c0.07,0.06,0.13,0.14,0.17,0.23c0.04,0.09-0.63,0.3-0.63,0.3v0.01c0,0,0.67,0.19,0.65,0.27
		c-0.03,0.08-0.06,0.15-0.12,0.22c-0.05,0.07-0.12,0.14-0.2,0.21c-0.08,0.07-0.17,0.15-0.28,0.23l-0.39,0.29h1.33v1h-2V163.08z"/>
	<path class="st197" d="M454.34,163.54c-0.22,0-0.4-0.04-0.55-0.12c-0.15-0.08-0.28-0.18-0.38-0.3l0.36-0.35
		c0.08,0.09,0.17,0.16,0.26,0.21c0.09,0.05,0.2,0.07,0.32,0.07c0.1,0,0.18-0.03,0.24-0.08c0.06-0.05,0.09-0.12,0.31-0.21v-0.01
		c-0.21-0.1-0.26-0.17-0.34-0.22c-0.08-0.05-0.2-0.08-0.34-0.51H454l-0.08,0.1l0.57-1.1h-0.59l0,0h1v0.47l-0.34,0.58
		c0.08,0.01,0.16,0.04,0.24,0.06c0.08,0.03,0.15,0.07,0.21,0.12c0.06,0.05,0.11,0.12,0.15,0.2c0.04,0.08,0.75,0.29,0.75,0.29v0.01
		c0,0-0.72,0.22-0.76,0.31c-0.04,0.09-0.1,0.18-0.17,0.25c-0.07,0.07-0.17,0.13-0.27,0.16
		C454.59,163.52,454.47,163.54,454.34,163.54z"/>
	<path class="st197" d="M466.9,163.03h-1.77l-0.09-0.39l1.39-1.61h0.47v1h1v1l0,0v1h-1V163.03z M466.9,163.03v-0.74l-0.64,0.74
		H466.9z"/>
	<circle class="st193" cx="425.4" cy="166.53" r="0.5"/>
	<circle class="st193" cx="432.4" cy="166.53" r="0.5"/>
	<circle class="st193" cx="438.4" cy="166.53" r="0.5"/>
	<circle class="st193" cx="445.4" cy="166.53" r="0.5"/>
	<circle class="st193" cx="451.4" cy="166.53" r="0.5"/>
	<circle class="st193" cx="457.4" cy="166.53" r="0.5"/>
	<circle class="st193" cx="463.4" cy="166.53" r="0.5"/>
	<circle class="st193" cx="470.4" cy="166.53" r="0.5"/>
	<path class="st195" d="M523.17,177.03h-45.55c-1.5,0-2.72-1.22-2.72-2.72v-7.55c0-1.5,1.22-2.72,2.72-2.72h45.55
		c1.5,0,2.72,1.22,2.72,2.72v7.55C525.9,175.81,524.68,177.03,523.17,177.03z"/>
	<path class="st196" d="M521.45,175.03h-3.12c-1.9,0-3.44-1.54-3.44-3.44v-3.12c0-1.9,1.54-3.44,3.44-3.44h3.12
		c1.9,0,3.44,1.54,3.44,3.44v3.12C524.9,173.49,523.36,175.03,521.45,175.03z"/>
	<path class="st196" d="M508.45,175.03h-3.12c-1.9,0-3.44-1.54-3.44-3.44v-3.12c0-1.9,1.54-3.44,3.44-3.44h3.12
		c1.9,0,3.44,1.54,3.44,3.44v3.12C511.9,173.49,510.36,175.03,508.45,175.03z"/>
	<path class="st196" d="M496.45,175.03h-3.12c-1.9,0-3.44-1.54-3.44-3.44v-3.12c0-1.9,1.54-3.44,3.44-3.44h3.12
		c1.9,0,3.44,1.54,3.44,3.44v3.12C499.9,173.49,498.36,175.03,496.45,175.03z"/>
	<path class="st196" d="M483.45,175.03h-3.12c-1.9,0-3.44-1.54-3.44-3.44v-3.12c0-1.9,1.54-3.44,3.44-3.44h3.12
		c1.9,0,3.44,1.54,3.44,3.44v3.12C486.9,173.49,485.36,175.03,483.45,175.03z"/>
	<path class="st197" d="M481.92,163.56c-0.19,0-0.36-0.03-0.51-0.09c-0.14-0.06-0.27-0.15-0.39-0.26l0.32-0.38
		c0.09,0.08,0.18,0.15,0.27,0.19c0.09,0.05,0.19,0.07,0.3,0.07c0.12,0,0.22-0.03,0.29-0.09c0.07-0.06,0.69-0.25,0.69-0.25v-0.01
		c0,0-0.62-0.18-0.7-0.24c-0.08-0.06-0.18-0.09-0.31-0.09c-0.08,0-0.15,0.01-0.21,0.03c-0.07,0.02-0.13,0.04-0.19,0.06l-0.3-0.2
		l0.07-1.27h1.64l0,0h-1.19l-0.03,0.97c0.05-0.01,0.1-0.02,0.14-0.03c0.05-0.01,0.1-0.01,0.17-0.01c0.12,0,0.22,0.01,0.33,0.04
		c0.1,0.03,0.19,0.07,0.27,0.14c0.08,0.06,0.14,0.14,0.18,0.24c0.04,0.1,0.07,0.21,0.13,0.35v0.01c-0.06,0.13-0.09,0.24-0.13,0.34
		c-0.04,0.1-0.1,0.19-0.18,0.26c-0.08,0.07-0.18,0.13-0.29,0.17C482.18,163.54,482.06,163.56,481.92,163.56z"/>
	<path class="st197" d="M494.93,163.63c-0.17,0-0.31-0.02-0.42-0.07c-0.12-0.05-0.22-0.11-0.31-0.2c-0.09-0.09-0.16-0.21-0.22-0.36
		c-0.05-0.15-0.08-0.35-0.08-0.6v-0.01c0-0.2,0.02-0.38,0.07-0.55c0.04-0.17,0.11-0.32,0.2-0.44c0.09-0.12,0.21-0.22,0.35-0.29
		c0.14-0.07,0.3-0.11,0.49-0.11c0.09,0,0.17,0.01,0.24,0.02c0.07,0.01,0.14,0.03,0.2,0.05c0.06,0.02,0.12,0.05,0.18,0.09
		c0.06,0.03,0.11,0.07,0.17,0.12l-0.29,0.43c-0.04-0.03-0.08-0.06-0.12-0.09c-0.04-0.03-0.08-0.05-0.12-0.06
		c-0.04-0.02-0.08-0.03-0.13-0.04c-0.05-0.01-0.1-0.01-0.15-0.01c-0.08,0-0.15,0.02-0.21,0.05c-0.06,0.03-0.11,0.07-0.15,0.12
		c-0.04,0.05-0.08,0.11-0.1,0.19c-0.02,0.07-0.04,0.15-0.05,0.23c0.06-0.04,0.13-0.08,0.22-0.11c0.08-0.03,0.18-0.05,0.31-0.05
		s0.24,0.02,0.35,0.05c0.11,0.04,0.2,0.09,0.28,0.15c0.08,0.07,0.14,0.15,0.19,0.25c0.05,0.1,0.07,0.22,0.07,0.35v0.01
		c0,0.13-0.02,0.25-0.07,0.36c-0.05,0.11-0.12,0.2-0.2,0.28c-0.09,0.08-0.19,0.14-0.31,0.18
		C495.2,163.61,495.07,163.63,494.93,163.63z M494.52,163.1c0.13,0,0.23-0.03,0.3-0.1c0.07-0.07,0.11-0.15,0.07-0.25v-0.01
		c0.04-0.1,0-0.19-0.07-0.25c-0.07-0.06-0.18-0.1-0.31-0.1c-0.13,0-0.23,0.03-0.3,0.1c-0.07,0.06-0.11,0.15-0.31,0.25v0.01
		c0.21,0.1,0.24,0.19,0.32,0.25C494.29,163.07,494.39,163.1,494.52,163.1z"/>
	<path class="st197" d="M507.28,161.03h-1.38l0,0h2v-0.06l-1.11,2.06h-0.61L507.28,161.03z"/>
	<path class="st197" d="M519.67,163.55c-0.13,0-0.25-0.02-0.37-0.05c-0.11-0.03-0.21-0.08-0.29-0.14c-0.08-0.06-0.15-0.13-0.19-0.22
		c-0.05-0.08-0.92-0.28-0.92-0.28v-0.01c0,0,0.89-0.26,0.95-0.35c0.06-0.09,0.16-0.16,0.29-0.22c-0.09-0.06-0.17-0.13-0.22-0.21
		c-0.05-0.08-0.02-0.32-0.02-0.32v-0.01c0,0-0.05-0.18-0.01-0.26c0.04-0.08,0.1-0.15,0.17-0.21c0.07-0.06,0.16-0.11,0.26-0.14
		c0.1-0.03,0.22-0.05,0.34-0.05c0.13,0,0.24,0.02,0.34,0.05c0.1,0.03,0.19,0.08,0.27,0.14c0.07,0.06,0.13,0.13,0.17,0.21
		c0.04,0.08-0.56,0.26-0.56,0.26v0.01c0,0,0.59,0.24,0.53,0.32c-0.05,0.08-0.13,0.15-0.22,0.21c0.12,0.06,0.22,0.14,0.28,0.22
		c0.07,0.09,0.41,0.34,0.41,0.34v0.01c0,0-0.33,0.21-0.37,0.3c-0.05,0.09-0.11,0.16-0.19,0.22c-0.08,0.06-0.18,0.11-0.29,0.14
		C519.93,163.53,519.8,163.55,519.67,163.55z M519.67,163.12c0.13,0,0.23-0.03,0.3-0.09c0.07-0.06,0.11-0.13-0.08-0.21v-0.01
		c0.19-0.09,0.15-0.17,0.07-0.22c-0.08-0.05-0.18-0.08-0.3-0.08c-0.12,0-0.22,0.03-0.3,0.08c-0.08,0.05-0.12,0.12-0.48,0.22v0.01
		c0.36,0.08,0.4,0.15,0.47,0.21C519.44,163.09,519.54,163.12,519.67,163.12z M519.67,162.1c0.1,0,0.19-0.03,0.25-0.08
		c0.06-0.05,0.09-0.12-0.02-0.21v-0.01c0.12-0.07,0.09-0.14,0.03-0.19c-0.06-0.06-0.14-0.09-0.25-0.09c-0.11,0-0.19,0.03-0.25,0.08
		c-0.06,0.06-0.09,0.12-0.52,0.19v0.01c0.43,0.08,0.46,0.15,0.53,0.21C519.48,162.07,519.57,162.1,519.67,162.1z"/>
	<circle class="st193" cx="478.4" cy="166.53" r="0.5"/>
	<circle class="st193" cx="485.4" cy="166.53" r="0.5"/>
	<circle class="st193" cx="491.4" cy="166.53" r="0.5"/>
	<circle class="st193" cx="498.4" cy="166.53" r="0.5"/>
	<circle class="st193" cx="503.4" cy="166.53" r="0.5"/>
	<circle class="st193" cx="510.4" cy="166.53" r="0.5"/>
	<circle class="st193" cx="516.4" cy="166.53" r="0.5"/>
	<circle class="st193" cx="523.4" cy="166.53" r="0.5"/>
	<g>
		<circle class="st193" cx="419.4" cy="170.53" r="1.5"/>
	</g>
	<path class="st195" d="M576.17,177.03h-45.55c-1.5,0-2.72-1.22-2.72-2.72v-7.55c0-1.5,1.22-2.72,2.72-2.72h45.55
		c1.5,0,2.72,1.22,2.72,2.72v7.55C578.9,175.81,577.68,177.03,576.17,177.03z"/>
	<path class="st196" d="M574.45,175.03h-3.12c-1.9,0-3.44-1.54-3.44-3.44v-3.12c0-1.9,1.54-3.44,3.44-3.44h3.12
		c1.9,0,3.44,1.54,3.44,3.44v3.12C577.9,173.49,576.36,175.03,574.45,175.03z"/>
	<path class="st196" d="M561.45,175.03h-3.12c-1.9,0-3.44-1.54-3.44-3.44v-3.12c0-1.9,1.54-3.44,3.44-3.44h3.12
		c1.9,0,3.44,1.54,3.44,3.44v3.12C564.9,173.49,563.36,175.03,561.45,175.03z"/>
	<path class="st196" d="M548.45,175.03h-3.12c-1.9,0-3.44-1.54-3.44-3.44v-3.12c0-1.9,1.54-3.44,3.44-3.44h3.12
		c1.9,0,3.44,1.54,3.44,3.44v3.12C551.9,173.49,550.36,175.03,548.45,175.03z"/>
	<path class="st196" d="M536.45,175.03h-3.12c-1.9,0-3.44-1.54-3.44-3.44v-3.12c0-1.9,1.54-3.44,3.44-3.44h3.12
		c1.9,0,3.44,1.54,3.44,3.44v3.12C539.9,173.49,538.36,175.03,536.45,175.03z"/>
	<path class="st197" d="M534.79,163.53c-0.19,0-0.34-0.03-0.47-0.08c-0.13-0.06-0.25-0.13-0.36-0.22l0.29-0.42
		c0.09,0.07,0.18,0.13,0.26,0.16s0.18,0.05,0.29,0.05c0.16,0,0.28-0.05,0.36-0.16c0.08-0.11,0.13-0.25,0.15-0.42
		c-0.06,0.05-0.14,0.1-0.22,0.13c-0.08,0.03-0.18,0.05-0.29,0.05c-0.14,0-0.26-0.02-0.37-0.06c-0.11-0.04-0.21-0.09-0.29-0.16
		c-0.08-0.07-0.14-0.16-0.18-0.26c-0.04-0.1-0.06-0.22-0.06-0.34v-0.01c0-0.13,0.02-0.25,0.07-0.36s0.11-0.2,0.2-0.28
		c0.08-0.08,0.19-0.14,0.31-0.18c0.12-0.04,0.25-0.07,0.39-0.07c0.08,0,0.16,0.01,0.23,0.02c0.07,0.01,0.13,0.03,0.19,0.05
		c0.06,0.02,0.11,0.05,0.16,0.09c0.05,0.03,0.1,0.08,0.15,0.12c0.05,0.05,0.09,0.1,0.12,0.16c0.04,0.06,0.07,0.13,0.09,0.2
		c0.03,0.08,0.05,0.16,0.06,0.26c0.01,0.1,0.02,0.21,0.02,0.34v0.01c0,0.21-0.02,0.39-0.07,0.56c-0.05,0.17-0.12,0.32-0.21,0.44
		c-0.09,0.12-0.21,0.21-0.35,0.28C535.13,163.5,534.97,163.53,534.79,163.53z M534.72,162.16c0.13,0,0.23-0.03,0.3-0.1
		c0.07-0.07,0.11-0.15-0.13-0.25v-0.01c0.24-0.11,0.2-0.19,0.13-0.26c-0.07-0.07-0.18-0.1-0.31-0.1c-0.13,0-0.23,0.03-0.3,0.1
		c-0.07,0.07-0.11,0.15-0.51,0.26v0.01c0.41,0.11,0.45,0.19,0.52,0.26C534.49,162.13,534.59,162.16,534.72,162.16z"/>
	<g>
		<path class="st197" d="M545.9,161.54l-0.31,0.1l-0.11-0.43l0.69-0.18h0.73v2h-1V161.54z"/>
		<path class="st197" d="M547.89,163.39c-0.15,0-0.29-0.03-0.41-0.09c-0.12-0.06-0.23-0.14-0.32-0.24c-0.09-0.1-0.15-0.23-0.2-0.37
			c-0.05-0.14-0.07-0.29-0.07-0.46v-0.01c0-0.16,0.02-0.32,0.07-0.46s0.12-0.26,0.2-0.37c0.09-0.11,0.19-0.19,0.32-0.25
			c0.12-0.06,0.26-0.09,0.41-0.09c0.15,0,0.28,0.03,0.41,0.09c0.12,0.06,0.23,0.14,0.32,0.24c0.09,0.1,0.15,0.23,0.2,0.37
			c0.05,0.14,0.07,0.29,0.07,0.46v0.01c0,0.16-0.02,0.32-0.07,0.46c-0.05,0.14-0.12,0.26-0.2,0.37c-0.09,0.11-0.19,0.19-0.32,0.25
			C548.18,163.36,548.04,163.39,547.89,163.39z M548.4,162.95c0.08,0,0.14-0.02,0.21-0.05c0.06-0.04,0.11-0.09,0.16-0.15
			c0.04-0.06,0.08-0.14,0.1-0.23c0.02-0.09,0.03-0.18,0.03-0.29v-0.01c0-0.1-0.01-0.2-0.04-0.29c-0.02-0.09-0.06-0.16-0.1-0.23
			c-0.04-0.07-0.1-0.12-0.16-0.15c-0.06-0.04-0.13-0.06-0.2-0.06c-0.08,0-0.14,0.02-0.21,0.05c-0.06,0.04-0.11,0.09-0.16,0.15
			c-0.04,0.06-0.08,0.14-0.1,0.23c-0.02,0.09-0.04,0.18-0.04,0.29v0.01c0,0.1,0.01,0.2,0.04,0.29c0.02,0.09,0.06,0.17,0.1,0.23
			c0.04,0.06,0.1,0.11,0.16,0.15C548.26,162.93,548.32,162.95,548.4,162.95z"/>
	</g>
	<g>
		<path class="st197" d="M558.9,161.55l-0.14,0.1l-0.11-0.43l0.69-0.19h0.56v2h-1V161.55z"/>
		<path class="st197" d="M560.9,161.55l-0.7,0.1l-0.11-0.43l0.69-0.19h-0.88v2h1V161.55z"/>
	</g>
	<g>
		<path class="st197" d="M570.9,161.56l0.04,0.1l-0.11-0.43l0.69-0.2h0.39v2h-1V161.56z"/>
		<path class="st197" d="M571.9,163.02l1.25-0.65c0.08-0.06,0.14-0.12,0.19-0.17c0.05-0.05,0.1-0.1,0.13-0.14
			c0.03-0.04,0.06-0.09,0.07-0.13c0.01-0.04,0.02-0.09,0.02-0.14c0-0.1-0.03-0.18-0.09-0.23c-0.06-0.05-0.14-0.08-0.23-0.08
			c-0.09,0-0.18,0.03-0.25,0.08c-0.07,0.05-0.15,0.13-0.24,0.24l-0.37-0.3c0.06-0.08,0.12-0.15,0.18-0.21
			c0.06-0.06,0.13-0.11,0.19-0.16c0.07-0.04,0.15-0.07,0.23-0.1c0.08-0.02,0.18-0.03,0.29-0.03c0.12,0,0.24,0.02,0.34,0.05
			c0.1,0.04,0.19,0.08,0.26,0.15c0.07,0.06,0.13,0.14,0.17,0.23c0.04,0.09-0.14,0.3-0.14,0.3v0.01c0,0,0.19,0.19,0.16,0.27
			c-0.03,0.08-0.06,0.15-0.12,0.22c-0.05,0.07-0.12,0.14-0.2,0.21c-0.08,0.07-0.17,0.15-0.28,0.23l-0.39,0.35h1.82v1h-3V163.02z"/>
	</g>
	<circle class="st193" cx="531.4" cy="166.53" r="0.5"/>
	<circle class="st193" cx="538.4" cy="166.53" r="0.5"/>
	<circle class="st193" cx="544.4" cy="166.53" r="0.5"/>
	<circle class="st193" cx="550.4" cy="166.53" r="0.5"/>
	<circle class="st193" cx="556.4" cy="166.53" r="0.5"/>
	<circle class="st193" cx="563.4" cy="166.53" r="0.5"/>
	<circle class="st193" cx="569.4" cy="166.53" r="0.5"/>
	<circle class="st193" cx="575.4" cy="166.53" r="0.5"/>
	<path class="st195" d="M629.17,177.03h-45.55c-1.5,0-2.72-1.22-2.72-2.72v-7.55c0-1.5,1.22-2.72,2.72-2.72h45.55
		c1.5,0,2.72,1.22,2.72,2.72v7.55C631.9,175.81,630.68,177.03,629.17,177.03z"/>
	<path class="st196" d="M626.45,175.03h-3.12c-1.9,0-3.44-1.54-3.44-3.44v-3.12c0-1.9,1.54-3.44,3.44-3.44h3.12
		c1.9,0,3.44,1.54,3.44,3.44v3.12C629.9,173.49,628.36,175.03,626.45,175.03z"/>
	<path class="st196" d="M614.45,175.03h-3.12c-1.9,0-3.44-1.54-3.44-3.44v-3.12c0-1.9,1.54-3.44,3.44-3.44h3.12
		c1.9,0,3.44,1.54,3.44,3.44v3.12C617.9,173.49,616.36,175.03,614.45,175.03z"/>
	<path class="st196" d="M601.45,175.03h-3.12c-1.9,0-3.44-1.54-3.44-3.44v-3.12c0-1.9,1.54-3.44,3.44-3.44h3.12
		c1.9,0,3.44,1.54,3.44,3.44v3.12C604.9,173.49,603.36,175.03,601.45,175.03z"/>
	<path class="st196" d="M589.45,175.03h-3.12c-1.9,0-3.44-1.54-3.44-3.44v-3.12c0-1.9,1.54-3.44,3.44-3.44h3.12
		c1.9,0,3.44,1.54,3.44,3.44v3.12C592.9,173.49,591.36,175.03,589.45,175.03z"/>
	<g>
		<path class="st197" d="M586.9,161.77l-0.81,0.1l-0.11-0.43l0.69-0.41h-0.76v2h1V161.77z"/>
		<path class="st197" d="M588.4,163.69c-0.22,0-0.4-0.04-0.55-0.12c-0.15-0.08-0.28-0.18-0.38-0.3l0.36-0.35
			c0.08,0.09,0.17,0.16,0.26,0.21c0.09,0.05,0.2,0.07,0.32,0.07c0.1,0,0.18-0.03,0.24-0.08c0.06-0.05,0.09-0.12,0.25-0.21v-0.01
			c-0.16-0.1-0.2-0.17-0.28-0.22c-0.08-0.05-0.2-0.08-0.34,0.34h-0.22l-0.08-0.75l0.57-1.25h-0.65l0,0h1v0.62l-0.28,0.58
			c0.08,0.01,0.16,0.04,0.24,0.06c0.08,0.03,0.15,0.07,0.21,0.12c0.06,0.05,0.11,0.12,0.15,0.2c0.04,0.08,0.69,0.29,0.69,0.29v0.01
			c0,0-0.66,0.22-0.7,0.31c-0.04,0.09-0.1,0.18-0.17,0.25c-0.07,0.07-0.17,0.13-0.27,0.16C588.65,163.67,588.53,163.69,588.4,163.69
			z"/>
	</g>
	<g>
		<path class="st197" d="M598.9,161.79l-0.36,0.1l-0.11-0.43l0.69-0.43h0.78v2h-1V161.79z"/>
		<path class="st197" d="M600.9,163.03h-1.77l-0.09-0.39l1.39-1.61h0.47v1h1v1l0,0v1h-1V163.03z M600.9,163.03v-0.74l-0.64,0.74
			H600.9z"/>
	</g>
	<g>
		<path class="st197" d="M612.9,161.77l-1.67,0.1l-0.11-0.43l0.69-0.41h0.09v2h1V161.77z"/>
		<path class="st197" d="M613.52,163.69c-0.19,0-0.36-0.03-0.51-0.09c-0.14-0.06-0.27-0.15-0.39-0.26l0.32-0.38
			c0.09,0.08,0.18,0.15,0.27,0.19c0.09,0.05,0.19,0.07,0.3,0.07c0.12,0,0.22-0.03,0.29-0.09c0.07-0.06,0.09-0.25,0.09-0.25v-0.01
			c0,0-0.02-0.18-0.1-0.24s-0.18-0.09-0.31-0.09c-0.08,0-0.15,0.01-0.21,0.03c-0.07,0.02-0.13,0.04-0.19,0.06l-0.3-0.2l0.07-1.4
			h2.04l0,0h-1.59l-0.03,1.1c0.05-0.01,0.1-0.02,0.14-0.03c0.05-0.01,0.1-0.01,0.17-0.01c0.12,0,0.22,0.01,0.33,0.04
			c0.1,0.03,0.19,0.07,0.27,0.14c0.08,0.06,0.14,0.14,0.18,0.24c0.04,0.1,0.07,0.21,0.53,0.35v0.01c-0.46,0.13-0.48,0.24-0.53,0.34
			c-0.04,0.1-0.1,0.19-0.18,0.26c-0.08,0.07-0.18,0.13-0.29,0.17S613.66,163.69,613.52,163.69z"/>
	</g>
	<g>
		<path class="st197" d="M623.9,161.79l-0.14,0.1l-0.11-0.43l0.69-0.42h0.57v2h-1V161.79z"/>
		<path class="st197" d="M625.93,163.78c-0.17,0-0.31-0.02-0.42-0.07c-0.12-0.05-0.22-0.11-0.31-0.2c-0.09-0.09-0.16-0.21-0.22-0.36
			c-0.05-0.15-0.08-0.35-0.08-0.6v-0.01c0-0.2,0.02-0.38,0.07-0.55c0.04-0.17,0.11-0.32,0.2-0.44c0.09-0.12,0.21-0.22,0.35-0.29
			c0.14-0.07,0.3-0.11,0.49-0.11c0.09,0,0.17,0.01,0.24,0.02s0.14,0.03,0.2,0.05c0.06,0.02,0.12,0.05,0.18,0.09
			c0.06,0.03,0.11,0.07,0.17,0.12l-0.29,0.43c-0.04-0.03-0.08-0.06-0.12-0.09c-0.04-0.03-0.08-0.05-0.12-0.06s-0.08-0.03-0.13-0.04
			c-0.05-0.01-0.1-0.01-0.15-0.01c-0.08,0-0.15,0.02-0.21,0.05c-0.06,0.03-0.11,0.07-0.15,0.12c-0.04,0.05-0.08,0.11-0.1,0.19
			c-0.02,0.07-0.04,0.15-0.05,0.23c0.06-0.04,0.13-0.08,0.22-0.11c0.08-0.03,0.18-0.05,0.31-0.05s0.24,0.02,0.35,0.05
			c0.11,0.04,0.2,0.09,0.28,0.15s0.14,0.15,0.19,0.25c0.05,0.1,0.07,0.22,0.07,0.35v0.01c0,0.13-0.02,0.25-0.07,0.36
			c-0.05,0.11-0.12,0.2-0.2,0.28c-0.09,0.08-0.19,0.14-0.31,0.18C626.2,163.76,626.07,163.78,625.93,163.78z M626.14,163.25
			c0.13,0,0.23-0.03,0.3-0.1c0.07-0.07,0.11-0.15,0.45-0.25v-0.01c-0.34-0.1-0.38-0.19-0.45-0.25s-0.18-0.1-0.31-0.1
			c-0.13,0-0.23,0.03-0.3,0.1c-0.07,0.06-0.11,0.15,0.06,0.25v0.01c-0.17,0.1-0.13,0.19-0.06,0.25
			C625.91,163.21,626.01,163.25,626.14,163.25z"/>
	</g>
	<circle class="st193" cx="584.4" cy="166.53" r="0.5"/>
	<circle class="st193" cx="591.4" cy="166.53" r="0.5"/>
	<circle class="st193" cx="596.4" cy="166.53" r="0.5"/>
	<circle class="st193" cx="603.4" cy="166.53" r="0.5"/>
	<circle class="st193" cx="609.4" cy="166.53" r="0.5"/>
	<circle class="st193" cx="616.4" cy="166.53" r="0.5"/>
	<circle class="st193" cx="622.4" cy="166.53" r="0.5"/>
	<circle class="st193" cx="628.4" cy="166.53" r="0.5"/>
</g>
<g>
	<g>
		<line class="st233" x1="161.4" y1="366.65" x2="161.4" y2="319.41"/>
		<g>
			<rect x="159.94" y="365.13" class="st199" width="2.91" height="2.91"/>
		</g>
		<g>
			<rect x="159.94" y="318.03" class="st199" width="2.91" height="2.91"/>
		</g>
	</g>
</g>
<g>
	<g>
		<path class="st233" d="M161.4,261.65v-42.34c0-5.38,4.4-9.78,9.78-9.78l249.44-0.02c5.38,0,9.73-4.4,9.67-9.78l-0.36-30.31"/>
		<g>
			<rect x="159.94" y="260.13" class="st199" width="2.91" height="2.91"/>
		</g>
		<g>
			
				<rect x="428.47" y="168.03" transform="matrix(0.9999 -0.0118 0.0118 0.9999 -1.9642 5.0698)" class="st199" width="2.91" height="2.91"/>
		</g>
	</g>
</g>
<g>
	<g>
		<path class="st233" d="M400.4,260.65v-29.34c0-5.38,4.4-9.78,9.78-9.78l22.44,0c5.38,0,9.78-4.4,9.78-9.78v-43.34"/>
		<g>
			<rect x="398.94" y="259.13" class="st199" width="2.91" height="2.91"/>
		</g>
		<g>
			<rect x="440.94" y="167.03" class="st199" width="2.91" height="2.91"/>
		</g>
	</g>
</g>
<g>
	<g>
		<path class="st233" d="M640.4,260.65v-29.34c0-5.38-4.4-9.78-9.78-9.78l-166.44,0c-5.38,0-9.78-4.4-9.78-9.78v-43.34"/>
		<g>
			<rect x="638.94" y="259.13" class="st199" width="2.91" height="2.91"/>
		</g>
		<g>
			<rect x="452.94" y="167.03" class="st199" width="2.91" height="2.91"/>
		</g>
	</g>
</g>
<g>
	<g>
		<path class="st233" d="M880.4,261.65v-42.34c0-5.38-4.4-9.78-9.78-9.78l-393.44-0.02c-5.38,0-9.78-4.4-9.78-9.78v-30.31"/>
		<g>
			<rect x="878.94" y="260.13" class="st199" width="2.91" height="2.91"/>
		</g>
		<g>
			<rect x="465.94" y="168.03" class="st199" width="2.91" height="2.91"/>
		</g>
	</g>
</g>
<g>
	<g>
		<line class="st233" x1="400.4" y1="366.65" x2="400.4" y2="319.41"/>
		<g>
			<rect x="398.94" y="365.13" class="st199" width="2.91" height="2.91"/>
		</g>
		<g>
			<rect x="398.94" y="318.03" class="st199" width="2.91" height="2.91"/>
		</g>
	</g>
</g>
<g>
	<g>
		<line class="st233" x1="640.4" y1="366.65" x2="640.4" y2="319.41"/>
		<g>
			<rect x="638.94" y="365.13" class="st199" width="2.91" height="2.91"/>
		</g>
		<g>
			<rect x="638.94" y="318.03" class="st199" width="2.91" height="2.91"/>
		</g>
	</g>
</g>
<g>
	<g>
		<line class="st233" x1="880.4" y1="366.65" x2="880.4" y2="319.41"/>
		<g>
			<rect x="878.94" y="365.13" class="st199" width="2.91" height="2.91"/>
		</g>
		<g>
			<rect x="878.94" y="318.03" class="st199" width="2.91" height="2.91"/>
		</g>
	</g>
</g>
<g>
	<g>
		<path class="st233" d="M667.4,0.03l-0.01,185.72c0,5.38-4.4,9.78-9.78,9.78l-22.43,0c-5.38,0-9.78-4.4-9.78-9.78v-17.34"/>
		<g>
			<rect x="623.94" y="167.03" class="st199" width="2.91" height="2.91"/>
		</g>
	</g>
</g>
<g>
	<text transform="matrix(1 0 0 1 1058.1827 71.6582)" class="st234 st235">INTERNET</text>
</g>
<g>
	<text transform="matrix(1 0 0 1 1058.1827 154.1963)"><tspan x="0" y="0" class="st234 st235">16-PORT</tspan><tspan x="0" y="15.84" class="st234 st235">10 GIGABIT</tspan><tspan x="0" y="31.69" class="st234 st235">ETHERNET</tspan><tspan x="0" y="47.53" class="st234 st235">SWITCH</tspan></text>
</g>
<g>
	<text transform="matrix(1 0 0 1 1058.1827 297.1026)" class="st234 st235">4 SERVERS</text>
</g>
<g>
	<text transform="matrix(1 0 0 1 1058.1827 486.7344)"><tspan x="0" y="0" class="st234 st235">16 8TB</tspan><tspan x="0" y="15.84" class="st234 st235">DRIVES</tspan></text>
</g>
<text transform="matrix(1 0 0 1 115.3242 257.0996)" class="st234 st236">NODE 1</text>
<text transform="matrix(1 0 0 1 355.7667 257.0996)" class="st234 st236">NODE 2</text>
<text transform="matrix(1 0 0 1 596.2081 257.0996)" class="st234 st236">NODE 3</text>
<text transform="matrix(1 0 0 1 836.65 257.0996)" class="st234 st236">NODE 4</text>
<text transform="matrix(1 0 0 1 174.1304 257.0996)" class="st234 st236">192.168.1.11:9000</text>
<text transform="matrix(1 0 0 1 409.397 257.0996)" class="st234 st236">192.168.1.12:9000</text>
<text transform="matrix(1 0 0 1 650.1651 257.0996)" class="st234 st236">192.168.1.13:9000</text>
<text transform="matrix(1 0 0 1 888.9766 257.0996)" class="st234 st236">192.168.1.14:9000</text>
<g>
	<path class="st237" d="M724.77,318.53H556.02c-2.55,0-4.63-2.07-4.63-4.63v-46.75c0-2.55,2.07-4.63,4.63-4.63h168.75
		c2.55,0,4.63,2.07,4.63,4.63v46.75C729.4,316.46,727.33,318.53,724.77,318.53z"/>
	<g>
		<circle class="st59" cx="651.9" cy="286.03" r="3"/>
		<circle class="st59" cx="663.9" cy="286.03" r="3"/>
		<circle class="st59" cx="674.9" cy="286.03" r="3"/>
		<circle class="st59" cx="686.9" cy="286.03" r="3"/>
		<circle class="st59" cx="697.9" cy="286.03" r="3"/>
		<circle class="st59" cx="657.9" cy="294.03" r="3"/>
		<circle class="st59" cx="669.9" cy="294.03" r="3"/>
		<circle class="st59" cx="680.9" cy="294.03" r="3"/>
		<circle class="st59" cx="692.9" cy="294.03" r="3"/>
		<circle class="st59" cx="704.9" cy="294.03" r="3"/>
	</g>
	<circle class="st229" cx="584.9" cy="290.03" r="10.5"/>
</g>
<g>
	<path class="st237" d="M484.77,318.53H316.02c-2.55,0-4.63-2.07-4.63-4.63v-46.75c0-2.55,2.07-4.63,4.63-4.63h168.75
		c2.55,0,4.63,2.07,4.63,4.63v46.75C489.4,316.46,487.33,318.53,484.77,318.53z"/>
	<g>
		<circle class="st59" cx="412.9" cy="286.03" r="3"/>
		<circle class="st59" cx="423.9" cy="286.03" r="3"/>
		<circle class="st59" cx="435.9" cy="286.03" r="3"/>
		<circle class="st59" cx="446.9" cy="286.03" r="3"/>
		<circle class="st59" cx="458.9" cy="286.03" r="3"/>
		<circle class="st59" cx="418.9" cy="294.03" r="3"/>
		<circle class="st59" cx="429.9" cy="294.03" r="3"/>
		<circle class="st59" cx="441.9" cy="294.03" r="3"/>
		<circle class="st59" cx="452.9" cy="294.03" r="3"/>
		<circle class="st59" cx="464.9" cy="294.03" r="3"/>
	</g>
	<circle class="st229" cx="345.9" cy="290.03" r="10.5"/>
</g>
<g>
	<path class="st237" d="M245.77,318.53H77.02c-2.55,0-4.63-2.07-4.63-4.63v-46.75c0-2.55,2.07-4.63,4.63-4.63h168.75
		c2.55,0,4.63,2.07,4.63,4.63v46.75C250.4,316.46,248.33,318.53,245.77,318.53z"/>
	<g>
		<circle class="st59" cx="172.9" cy="286.03" r="3"/>
		<circle class="st59" cx="184.9" cy="286.03" r="3"/>
		<circle class="st59" cx="195.9" cy="286.03" r="3"/>
		<circle class="st59" cx="207.9" cy="286.03" r="3"/>
		<circle class="st59" cx="218.9" cy="286.03" r="3"/>
		<circle class="st59" cx="178.9" cy="294.03" r="3"/>
		<circle class="st59" cx="190.9" cy="294.03" r="3"/>
		<circle class="st59" cx="201.9" cy="294.03" r="3"/>
		<circle class="st59" cx="213.9" cy="294.03" r="3"/>
		<circle class="st59" cx="224.9" cy="294.03" r="3"/>
	</g>
	<circle class="st229" cx="105.9" cy="290.03" r="10.5"/>
</g>
<g>
	<path class="st237" d="M964.77,318.53H796.02c-2.55,0-4.63-2.07-4.63-4.63v-46.75c0-2.55,2.07-4.63,4.63-4.63h168.75
		c2.55,0,4.63,2.07,4.63,4.63v46.75C969.4,316.46,967.33,318.53,964.77,318.53z"/>
	<g>
		<circle class="st59" cx="891.9" cy="286.03" r="3"/>
		<circle class="st59" cx="902.9" cy="286.03" r="3"/>
		<circle class="st59" cx="914.9" cy="286.03" r="3"/>
		<circle class="st59" cx="926.9" cy="286.03" r="3"/>
		<circle class="st59" cx="937.9" cy="286.03" r="3"/>
		<circle class="st59" cx="897.9" cy="294.03" r="3"/>
		<circle class="st59" cx="908.9" cy="294.03" r="3"/>
		<circle class="st59" cx="920.9" cy="294.03" r="3"/>
		<circle class="st59" cx="932.9" cy="294.03" r="3"/>
		<circle class="st59" cx="943.9" cy="294.03" r="3"/>
	</g>
	<circle class="st229" cx="824.9" cy="290.03" r="10.5"/>
</g>
<g>
	<g>
		<path class="st194" d="M724.01,588.53H556.78c-2.97,0-5.39-2.41-5.39-5.39V373.92c0-2.97,2.41-5.39,5.39-5.39h167.23
			c2.97,0,5.39,2.41,5.39,5.39v209.23C729.4,586.12,726.99,588.53,724.01,588.53z"/>
		<path class="st238" d="M724.01,588.53H556.78c-2.97,0-5.39-2.41-5.39-5.39V373.92c0-2.97,2.41-5.39,5.39-5.39h167.23
			c2.97,0,5.39,2.41,5.39,5.39v209.23C729.4,586.12,726.99,588.53,724.01,588.53z"/>
	</g>
	<text transform="matrix(1 0 0 1 664.3538 578.9746)" class="st234 st239">EXPORT 4</text>
	<text transform="matrix(1 0 0 1 580.3082 578.9746)" class="st234 st239">EXPORT 3 </text>
	<text transform="matrix(1 0 0 1 581.3546 475.3555)" class="st234 st239">EXPORT 1</text>
	<text transform="matrix(1 0 0 1 664.3538 474.9268)" class="st234 st239">EXPORT 2</text>
	<g>
		<path class="st205" d="M628.9,388.28c0-1.24-1.01-2.25-2.25-2.25H598.4h-28.25c-1.24,0-2.25,1.01-2.25,2.25v75.5
			c0,1.24,1.01,2.25,2.25,2.25h28.25h28.25c1.24,0,2.25-1.01,2.25-2.25V388.28z"/>
		<path class="st240" d="M598.4,466.03l0-11.86c2.62-0.07,5.16-0.5,7.56-1.22l6.14,4.47c0.13,0.1,0.26,0.19,0.39,0.28l0.04,0.03l0,0
			c1.7,1.12,3.82,1.67,6.07,1.36c3.74-0.51,6.81-3.45,7.45-7.17c0.66-3.86-1.19-7.37-4.18-9.15c0.19-0.25,3.79-5.1,4.11-6.25h2.92"
			/>
		<circle class="st241" cx="598.87" cy="423.63" r="27.68"/>
		<circle class="st59" cx="572.9" cy="390.03" r="2"/>
		<circle class="st59" cx="624.9" cy="390.03" r="2"/>
		<circle class="st59" cx="572.9" cy="462.03" r="2"/>
		<circle class="st59" cx="624.9" cy="462.03" r="2"/>
		<circle class="st59" cx="598.77" cy="423.63" r="2.21"/>
		<circle class="st59" cx="598.77" cy="423.63" r="2.21"/>
		<circle class="st242" cx="598.77" cy="423.63" r="5.24"/>
		<path class="st183" d="M620.21,444.29l-29.29-8.99c-0.11-0.03-0.22-0.05-0.34-0.05c-0.75,0-1.35,0.6-1.35,1.35
			c0,0.44,0.21,0.82,0.53,1.07l0,0l24.49,17.83l0,0c1,0.66,2.2,1.04,3.49,1.04c3.52,0,6.37-2.85,6.37-6.37
			C624.12,447.53,622.51,445.26,620.21,444.29z"/>
		<g>
			<circle class="st0" cx="617.9" cy="450.03" r="4"/>
		</g>
	</g>
	<g>
		<path class="st205" d="M712.9,388.28c0-1.24-1.01-2.25-2.25-2.25H682.4h-28.25c-1.24,0-2.25,1.01-2.25,2.25v75.5
			c0,1.24,1.01,2.25,2.25,2.25h28.25h28.25c1.24,0,2.25-1.01,2.25-2.25V388.28z"/>
		<path class="st240" d="M682.4,466.03l0-11.86c2.62-0.07,5.16-0.5,7.56-1.22l6.14,4.47c0.13,0.1,0.26,0.19,0.39,0.28l0.04,0.03l0,0
			c1.7,1.12,3.82,1.67,6.07,1.36c3.74-0.51,6.81-3.45,7.45-7.17c0.66-3.86-1.19-7.37-4.18-9.15c0.19-0.25,3.79-5.1,4.11-6.25h2.92"
			/>
		<circle class="st241" cx="681.91" cy="423.63" r="27.68"/>
		<circle class="st59" cx="655.9" cy="390.03" r="2"/>
		<circle class="st59" cx="707.9" cy="390.03" r="2"/>
		<circle class="st59" cx="655.9" cy="462.03" r="2"/>
		<circle class="st59" cx="707.9" cy="462.03" r="2"/>
		<circle class="st59" cx="681.8" cy="423.63" r="2.21"/>
		<circle class="st59" cx="681.8" cy="423.63" r="2.21"/>
		<circle class="st242" cx="681.8" cy="423.63" r="5.24"/>
		<path class="st183" d="M703.25,444.29l-29.29-8.99c-0.11-0.03-0.22-0.05-0.34-0.05c-0.75,0-1.35,0.6-1.35,1.35
			c0,0.44,0.21,0.82,0.53,1.07l0,0l24.49,17.83l0,0c1,0.66,2.2,1.04,3.49,1.04c3.52,0,6.37-2.85,6.37-6.37
			C707.16,447.53,705.54,445.26,703.25,444.29z"/>
		<g>
			<circle class="st0" cx="700.9" cy="450.03" r="4"/>
		</g>
	</g>
	<g>
		<path class="st205" d="M628.9,492.28c0-1.24-1.01-2.25-2.25-2.25H598.4h-28.25c-1.24,0-2.25,1.01-2.25,2.25v75.5
			c0,1.24,1.01,2.25,2.25,2.25h28.25h28.25c1.24,0,2.25-1.01,2.25-2.25V492.28z"/>
		<path class="st240" d="M598.4,570.03l0-11.86c2.62-0.07,5.16-0.5,7.56-1.22l6.14,4.47c0.13,0.1,0.26,0.19,0.39,0.28l0.04,0.03l0,0
			c1.7,1.12,3.82,1.67,6.07,1.36c3.74-0.51,6.81-3.45,7.45-7.17c0.66-3.86-1.19-7.37-4.18-9.15c0.19-0.25,3.79-5.1,4.11-6.25h2.92"
			/>
		<circle class="st241" cx="598.87" cy="527.78" r="27.68"/>
		<circle class="st59" cx="572.9" cy="494.03" r="2"/>
		<circle class="st59" cx="624.9" cy="494.03" r="2"/>
		<circle class="st59" cx="572.9" cy="566.03" r="2"/>
		<circle class="st59" cx="624.9" cy="566.03" r="2"/>
		<circle class="st59" cx="598.77" cy="527.78" r="2.21"/>
		<circle class="st59" cx="598.77" cy="527.78" r="2.21"/>
		<circle class="st242" cx="598.77" cy="527.78" r="5.24"/>
		<path class="st183" d="M620.21,548.44l-29.29-8.99c-0.11-0.03-0.22-0.05-0.34-0.05c-0.75,0-1.35,0.6-1.35,1.35
			c0,0.44,0.21,0.82,0.53,1.07l0,0l24.49,17.83l0,0c1,0.66,2.2,1.04,3.49,1.04c3.52,0,6.37-2.85,6.37-6.37
			C624.12,551.67,622.51,549.41,620.21,548.44z"/>
		<g>
			<circle class="st0" cx="617.9" cy="554.03" r="4"/>
		</g>
	</g>
	<g>
		<path class="st205" d="M712.9,492.28c0-1.24-1.01-2.25-2.25-2.25H682.4h-28.25c-1.24,0-2.25,1.01-2.25,2.25v75.5
			c0,1.24,1.01,2.25,2.25,2.25h28.25h28.25c1.24,0,2.25-1.01,2.25-2.25V492.28z"/>
		<path class="st240" d="M682.4,570.03l0-11.86c2.62-0.07,5.16-0.5,7.56-1.22l6.14,4.47c0.13,0.1,0.26,0.19,0.39,0.28l0.04,0.03l0,0
			c1.7,1.12,3.82,1.67,6.07,1.36c3.74-0.51,6.81-3.45,7.45-7.17c0.66-3.86-1.19-7.37-4.18-9.15c0.19-0.25,3.79-5.1,4.11-6.25h2.92"
			/>
		<circle class="st241" cx="681.91" cy="527.78" r="27.68"/>
		<circle class="st59" cx="655.9" cy="494.03" r="2"/>
		<circle class="st59" cx="707.9" cy="494.03" r="2"/>
		<circle class="st59" cx="655.9" cy="566.03" r="2"/>
		<circle class="st59" cx="707.9" cy="566.03" r="2"/>
		<circle class="st59" cx="681.8" cy="527.78" r="2.21"/>
		<circle class="st59" cx="681.8" cy="527.78" r="2.21"/>
		<circle class="st242" cx="681.8" cy="527.78" r="5.24"/>
		<path class="st183" d="M703.25,548.44l-29.29-8.99c-0.11-0.03-0.22-0.05-0.34-0.05c-0.75,0-1.35,0.6-1.35,1.35
			c0,0.44,0.21,0.82,0.53,1.07l0,0l24.49,17.83l0,0c1,0.66,2.2,1.04,3.49,1.04c3.52,0,6.37-2.85,6.37-6.37
			C707.16,551.67,705.54,549.41,703.25,548.44z"/>
		<g>
			<circle class="st0" cx="700.9" cy="554.03" r="4"/>
		</g>
	</g>
</g>
<g>
	<g>
		<path class="st194" d="M484.01,588.53H316.78c-2.97,0-5.39-2.41-5.39-5.39V373.92c0-2.97,2.41-5.39,5.39-5.39h167.23
			c2.97,0,5.39,2.41,5.39,5.39v209.23C489.4,586.12,486.99,588.53,484.01,588.53z"/>
		<path class="st238" d="M484.01,588.53H316.78c-2.97,0-5.39-2.41-5.39-5.39V373.92c0-2.97,2.41-5.39,5.39-5.39h167.23
			c2.97,0,5.39,2.41,5.39,5.39v209.23C489.4,586.12,486.99,588.53,484.01,588.53z"/>
	</g>
	<text transform="matrix(1 0 0 1 424.7813 578.9746)" class="st234 st239">EXPORT 4</text>
	<text transform="matrix(1 0 0 1 340.7357 578.9746)" class="st234 st239">EXPORT 3 </text>
	<text transform="matrix(1 0 0 1 341.7818 475.3555)" class="st234 st239">EXPORT 1</text>
	<text transform="matrix(1 0 0 1 424.7813 474.9268)" class="st234 st239">EXPORT 2</text>
	<g>
		<path class="st205" d="M389.9,388.28c0-1.24-1.01-2.25-2.25-2.25H359.4h-28.25c-1.24,0-2.25,1.01-2.25,2.25v75.5
			c0,1.24,1.01,2.25,2.25,2.25h28.25h28.25c1.24,0,2.25-1.01,2.25-2.25V388.28z"/>
		<path class="st240" d="M359.4,466.03l0-11.86c2.62-0.07,5.16-0.5,7.56-1.22l6.14,4.47c0.13,0.1,0.26,0.19,0.39,0.28l0.04,0.03l0,0
			c1.7,1.12,3.82,1.67,6.07,1.36c3.74-0.51,6.81-3.45,7.45-7.17c0.66-3.86-1.19-7.37-4.18-9.15c0.19-0.25,3.79-5.1,4.11-6.25h2.92"
			/>
		<circle class="st241" cx="359.3" cy="423.63" r="27.68"/>
		<circle class="st59" cx="332.9" cy="390.03" r="2"/>
		<circle class="st59" cx="385.9" cy="390.03" r="2"/>
		<circle class="st59" cx="332.9" cy="462.03" r="2"/>
		<circle class="st59" cx="385.9" cy="462.03" r="2"/>
		<circle class="st59" cx="359.19" cy="423.63" r="2.21"/>
		<circle class="st59" cx="359.19" cy="423.63" r="2.21"/>
		<circle class="st242" cx="359.19" cy="423.63" r="5.24"/>
		<path class="st183" d="M380.64,444.29l-29.29-8.99c-0.11-0.03-0.22-0.05-0.34-0.05c-0.75,0-1.35,0.6-1.35,1.35
			c0,0.44,0.21,0.82,0.53,1.07l0,0l24.49,17.83l0,0c1,0.66,2.2,1.04,3.49,1.04c3.52,0,6.37-2.85,6.37-6.37
			C384.55,447.53,382.93,445.26,380.64,444.29z"/>
		<g>
			<circle class="st0" cx="377.9" cy="450.03" r="4"/>
		</g>
	</g>
	<g>
		<path class="st205" d="M472.9,388.28c0-1.24-1.01-2.25-2.25-2.25H442.4h-28.25c-1.24,0-2.25,1.01-2.25,2.25v75.5
			c0,1.24,1.01,2.25,2.25,2.25h28.25h28.25c1.24,0,2.25-1.01,2.25-2.25V388.28z"/>
		<path class="st240" d="M442.4,466.03l0-11.86c2.62-0.07,5.16-0.5,7.56-1.22l6.14,4.47c0.13,0.1,0.26,0.19,0.39,0.28l0.04,0.03l0,0
			c1.7,1.12,3.82,1.67,6.07,1.36c3.74-0.51,6.81-3.45,7.45-7.17c0.66-3.86-1.19-7.37-4.18-9.15c0.19-0.25,3.79-5.1,4.11-6.25h2.92"
			/>
		<circle class="st241" cx="442.33" cy="423.63" r="27.68"/>
		<circle class="st59" cx="415.9" cy="390.03" r="2"/>
		<circle class="st59" cx="468.9" cy="390.03" r="2"/>
		<circle class="st59" cx="415.9" cy="462.03" r="2"/>
		<circle class="st59" cx="468.9" cy="462.03" r="2"/>
		<circle class="st59" cx="442.23" cy="423.63" r="2.21"/>
		<circle class="st59" cx="442.23" cy="423.63" r="2.21"/>
		<circle class="st242" cx="442.23" cy="423.63" r="5.24"/>
		<path class="st183" d="M463.68,444.29l-29.29-8.99c-0.11-0.03-0.22-0.05-0.34-0.05c-0.75,0-1.35,0.6-1.35,1.35
			c0,0.44,0.21,0.82,0.53,1.07l0,0l24.49,17.83l0,0c1,0.66,2.2,1.04,3.49,1.04c3.52,0,6.37-2.85,6.37-6.37
			C467.58,447.53,465.97,445.26,463.68,444.29z"/>
		<g>
			<circle class="st0" cx="460.9" cy="450.03" r="4"/>
		</g>
	</g>
	<g>
		<path class="st205" d="M389.9,492.28c0-1.24-1.01-2.25-2.25-2.25H359.4h-28.25c-1.24,0-2.25,1.01-2.25,2.25v75.5
			c0,1.24,1.01,2.25,2.25,2.25h28.25h28.25c1.24,0,2.25-1.01,2.25-2.25V492.28z"/>
		<path class="st240" d="M359.4,570.03l0-11.86c2.62-0.07,5.16-0.5,7.56-1.22l6.14,4.47c0.13,0.1,0.26,0.19,0.39,0.28l0.04,0.03l0,0
			c1.7,1.12,3.82,1.67,6.07,1.36c3.74-0.51,6.81-3.45,7.45-7.17c0.66-3.86-1.19-7.37-4.18-9.15c0.19-0.25,3.79-5.1,4.11-6.25h2.92"
			/>
		<circle class="st241" cx="359.3" cy="527.78" r="27.68"/>
		<circle class="st59" cx="332.9" cy="494.03" r="2"/>
		<circle class="st59" cx="385.9" cy="494.03" r="2"/>
		<circle class="st59" cx="332.9" cy="566.03" r="2"/>
		<circle class="st59" cx="385.9" cy="566.03" r="2"/>
		<circle class="st59" cx="359.19" cy="527.78" r="2.21"/>
		<circle class="st59" cx="359.19" cy="527.78" r="2.21"/>
		<circle class="st242" cx="359.19" cy="527.78" r="5.24"/>
		<path class="st183" d="M380.64,548.44l-29.29-8.99c-0.11-0.03-0.22-0.05-0.34-0.05c-0.75,0-1.35,0.6-1.35,1.35
			c0,0.44,0.21,0.82,0.53,1.07l0,0l24.49,17.83l0,0c1,0.66,2.2,1.04,3.49,1.04c3.52,0,6.37-2.85,6.37-6.37
			C384.55,551.67,382.93,549.41,380.64,548.44z"/>
		<g>
			<circle class="st0" cx="377.9" cy="554.03" r="4"/>
		</g>
	</g>
	<g>
		<path class="st205" d="M472.9,492.28c0-1.24-1.01-2.25-2.25-2.25H442.4h-28.25c-1.24,0-2.25,1.01-2.25,2.25v75.5
			c0,1.24,1.01,2.25,2.25,2.25h28.25h28.25c1.24,0,2.25-1.01,2.25-2.25V492.28z"/>
		<path class="st240" d="M442.4,570.03l0-11.86c2.62-0.07,5.16-0.5,7.56-1.22l6.14,4.47c0.13,0.1,0.26,0.19,0.39,0.28l0.04,0.03l0,0
			c1.7,1.12,3.82,1.67,6.07,1.36c3.74-0.51,6.81-3.45,7.45-7.17c0.66-3.86-1.19-7.37-4.18-9.15c0.19-0.25,3.79-5.1,4.11-6.25h2.92"
			/>
		<circle class="st241" cx="442.33" cy="527.78" r="27.68"/>
		<circle class="st59" cx="415.9" cy="494.03" r="2"/>
		<circle class="st59" cx="468.9" cy="494.03" r="2"/>
		<circle class="st59" cx="415.9" cy="566.03" r="2"/>
		<circle class="st59" cx="468.9" cy="566.03" r="2"/>
		<circle class="st59" cx="442.23" cy="527.78" r="2.21"/>
		<circle class="st59" cx="442.23" cy="527.78" r="2.21"/>
		<circle class="st242" cx="442.23" cy="527.78" r="5.24"/>
		<path class="st183" d="M463.68,548.44l-29.29-8.99c-0.11-0.03-0.22-0.05-0.34-0.05c-0.75,0-1.35,0.6-1.35,1.35
			c0,0.44,0.21,0.82,0.53,1.07l0,0l24.49,17.83l0,0c1,0.66,2.2,1.04,3.49,1.04c3.52,0,6.37-2.85,6.37-6.37
			C467.58,551.67,465.97,549.41,463.68,548.44z"/>
		<g>
			<circle class="st0" cx="460.9" cy="554.03" r="4"/>
		</g>
	</g>
</g>
<g>
	<g>
		<path class="st194" d="M245.01,588.53H77.78c-2.97,0-5.39-2.41-5.39-5.39V373.92c0-2.97,2.41-5.39,5.39-5.39h167.23
			c2.97,0,5.39,2.41,5.39,5.39v209.23C250.4,586.12,247.99,588.53,245.01,588.53z"/>
		<path class="st238" d="M245.01,588.53H77.78c-2.97,0-5.39-2.41-5.39-5.39V373.92c0-2.97,2.41-5.39,5.39-5.39h167.23
			c2.97,0,5.39,2.41,5.39,5.39v209.23C250.4,586.12,247.99,588.53,245.01,588.53z"/>
	</g>
	<text transform="matrix(1 0 0 1 185.1546 578.9746)" class="st234 st239">EXPORT 4</text>
	<text transform="matrix(1 0 0 1 101.109 578.9746)" class="st234 st239">EXPORT 3 </text>
	<text transform="matrix(1 0 0 1 102.1552 475.3555)" class="st234 st239">EXPORT 1</text>
	<text transform="matrix(1 0 0 1 185.1546 474.9268)" class="st234 st239">EXPORT 2</text>
	<g>
		<path class="st205" d="M149.9,388.28c0-1.24-1.01-2.25-2.25-2.25H119.4H91.15c-1.24,0-2.25,1.01-2.25,2.25v75.5
			c0,1.24,1.01,2.25,2.25,2.25h28.25h28.25c1.24,0,2.25-1.01,2.25-2.25V388.28z"/>
		<path class="st240" d="M119.4,466.03l0-11.86c2.62-0.07,5.16-0.5,7.56-1.22l6.14,4.47c0.13,0.1,0.26,0.19,0.39,0.28l0.04,0.03l0,0
			c1.7,1.12,3.82,1.67,6.07,1.36c3.74-0.51,6.81-3.45,7.45-7.17c0.66-3.86-1.19-7.37-4.18-9.15c0.19-0.25,3.79-5.1,4.11-6.25h2.92"
			/>
		<circle class="st241" cx="119.67" cy="423.63" r="27.68"/>
		<circle class="st59" cx="93.9" cy="390.03" r="2"/>
		<circle class="st59" cx="145.9" cy="390.03" r="2"/>
		<circle class="st59" cx="93.9" cy="462.03" r="2"/>
		<circle class="st59" cx="145.9" cy="462.03" r="2"/>
		<circle class="st59" cx="119.57" cy="423.63" r="2.21"/>
		<circle class="st59" cx="119.57" cy="423.63" r="2.21"/>
		<circle class="st242" cx="119.57" cy="423.63" r="5.24"/>
		<path class="st183" d="M141.01,444.29l-29.29-8.99c-0.11-0.03-0.22-0.05-0.34-0.05c-0.75,0-1.35,0.6-1.35,1.35
			c0,0.44,0.21,0.82,0.53,1.07l0,0l24.49,17.83l0,0c1,0.66,2.2,1.04,3.49,1.04c3.52,0,6.37-2.85,6.37-6.37
			C144.92,447.53,143.31,445.26,141.01,444.29z"/>
		<g>
			<circle class="st0" cx="138.9" cy="450.03" r="4"/>
		</g>
	</g>
	<g>
		<path class="st205" d="M232.9,388.28c0-1.24-1.01-2.25-2.25-2.25H202.4h-28.25c-1.24,0-2.25,1.01-2.25,2.25v75.5
			c0,1.24,1.01,2.25,2.25,2.25h28.25h28.25c1.24,0,2.25-1.01,2.25-2.25V388.28z"/>
		<path class="st240" d="M202.4,466.03l0-11.86c2.62-0.07,5.16-0.5,7.56-1.22l6.14,4.47c0.13,0.1,0.26,0.19,0.39,0.28l0.04,0.03l0,0
			c1.7,1.12,3.82,1.67,6.07,1.36c3.74-0.51,6.81-3.45,7.45-7.17c0.66-3.86-1.19-7.37-4.18-9.15c0.19-0.25,3.79-5.1,4.11-6.25h2.92"
			/>
		<circle class="st241" cx="202.71" cy="423.63" r="27.68"/>
		<circle class="st59" cx="176.9" cy="390.03" r="2"/>
		<circle class="st59" cx="228.9" cy="390.03" r="2"/>
		<circle class="st59" cx="176.9" cy="462.03" r="2"/>
		<circle class="st59" cx="228.9" cy="462.03" r="2"/>
		<circle class="st59" cx="202.6" cy="423.63" r="2.21"/>
		<circle class="st59" cx="202.6" cy="423.63" r="2.21"/>
		<circle class="st242" cx="202.6" cy="423.63" r="5.24"/>
		<path class="st183" d="M224.05,444.29l-29.29-8.99c-0.11-0.03-0.22-0.05-0.34-0.05c-0.75,0-1.35,0.6-1.35,1.35
			c0,0.44,0.21,0.82,0.53,1.07l0,0l24.49,17.83l0,0c1,0.66,2.2,1.04,3.49,1.04c3.52,0,6.37-2.85,6.37-6.37
			C227.96,447.53,226.34,445.26,224.05,444.29z"/>
		<g>
			<circle class="st0" cx="221.9" cy="450.03" r="4"/>
		</g>
	</g>
	<g>
		<path class="st205" d="M149.9,492.28c0-1.24-1.01-2.25-2.25-2.25H119.4H91.15c-1.24,0-2.25,1.01-2.25,2.25v75.5
			c0,1.24,1.01,2.25,2.25,2.25h28.25h28.25c1.24,0,2.25-1.01,2.25-2.25V492.28z"/>
		<path class="st240" d="M119.4,570.03l0-11.86c2.62-0.07,5.16-0.5,7.56-1.22l6.14,4.47c0.13,0.1,0.26,0.19,0.39,0.28l0.04,0.03l0,0
			c1.7,1.12,3.82,1.67,6.07,1.36c3.74-0.51,6.81-3.45,7.45-7.17c0.66-3.86-1.19-7.37-4.18-9.15c0.19-0.25,3.79-5.1,4.11-6.25h2.92"
			/>
		<circle class="st241" cx="119.67" cy="527.78" r="27.68"/>
		<circle class="st59" cx="93.9" cy="494.03" r="2"/>
		<circle class="st59" cx="145.9" cy="494.03" r="2"/>
		<circle class="st59" cx="93.9" cy="566.03" r="2"/>
		<circle class="st59" cx="145.9" cy="566.03" r="2"/>
		<circle class="st59" cx="119.57" cy="527.78" r="2.21"/>
		<circle class="st59" cx="119.57" cy="527.78" r="2.21"/>
		<circle class="st242" cx="119.57" cy="527.78" r="5.24"/>
		<path class="st183" d="M141.01,548.44l-29.29-8.99c-0.11-0.03-0.22-0.05-0.34-0.05c-0.75,0-1.35,0.6-1.35,1.35
			c0,0.44,0.21,0.82,0.53,1.07l0,0l24.49,17.83l0,0c1,0.66,2.2,1.04,3.49,1.04c3.52,0,6.37-2.85,6.37-6.37
			C144.92,551.67,143.31,549.41,141.01,548.44z"/>
		<g>
			<circle class="st0" cx="138.9" cy="554.03" r="4"/>
		</g>
	</g>
	<g>
		<path class="st205" d="M232.9,492.28c0-1.24-1.01-2.25-2.25-2.25H202.4h-28.25c-1.24,0-2.25,1.01-2.25,2.25v75.5
			c0,1.24,1.01,2.25,2.25,2.25h28.25h28.25c1.24,0,2.25-1.01,2.25-2.25V492.28z"/>
		<path class="st240" d="M202.4,570.03l0-11.86c2.62-0.07,5.16-0.5,7.56-1.22l6.14,4.47c0.13,0.1,0.26,0.19,0.39,0.28l0.04,0.03l0,0
			c1.7,1.12,3.82,1.67,6.07,1.36c3.74-0.51,6.81-3.45,7.45-7.17c0.66-3.86-1.19-7.37-4.18-9.15c0.19-0.25,3.79-5.1,4.11-6.25h2.92"
			/>
		<circle class="st241" cx="202.71" cy="527.78" r="27.68"/>
		<circle class="st59" cx="176.9" cy="494.03" r="2"/>
		<circle class="st59" cx="228.9" cy="494.03" r="2"/>
		<circle class="st59" cx="176.9" cy="566.03" r="2"/>
		<circle class="st59" cx="228.9" cy="566.03" r="2"/>
		<circle class="st59" cx="202.6" cy="527.78" r="2.21"/>
		<circle class="st59" cx="202.6" cy="527.78" r="2.21"/>
		<circle class="st242" cx="202.6" cy="527.78" r="5.24"/>
		<path class="st183" d="M224.05,548.44l-29.29-8.99c-0.11-0.03-0.22-0.05-0.34-0.05c-0.75,0-1.35,0.6-1.35,1.35
			c0,0.44,0.21,0.82,0.53,1.07l0,0l24.49,17.83l0,0c1,0.66,2.2,1.04,3.49,1.04c3.52,0,6.37-2.85,6.37-6.37
			C227.96,551.67,226.34,549.41,224.05,548.44z"/>
		<g>
			<circle class="st0" cx="221.9" cy="554.03" r="4"/>
		</g>
	</g>
</g>
<g>
	<g>
		<line class="st243" x1="616.86" y1="148.53" x2="1045.9" y2="148.53"/>
		<g>
			<circle class="st142" cx="616.97" cy="148.53" r="2.07"/>
		</g>
	</g>
</g>
<g>
	<g>
		<line class="st243" x1="667.86" y1="66.53" x2="1047.9" y2="66.53"/>
		<g>
			<circle class="st142" cx="667.97" cy="66.53" r="2.07"/>
		</g>
	</g>
</g>
<g>
	<g>
		<line class="st243" x1="958.86" y1="291.53" x2="1046.9" y2="291.53"/>
		<g>
			<circle class="st142" cx="958.97" cy="291.53" r="2.07"/>
		</g>
	</g>
</g>
<g>
	<g>
		<path class="st194" d="M964.01,588.53H796.78c-2.97,0-5.39-2.41-5.39-5.39V373.92c0-2.97,2.41-5.39,5.39-5.39h167.23
			c2.97,0,5.39,2.41,5.39,5.39v209.23C969.4,586.12,966.99,588.53,964.01,588.53z"/>
		<path class="st238" d="M964.01,588.53H796.78c-2.97,0-5.39-2.41-5.39-5.39V373.92c0-2.97,2.41-5.39,5.39-5.39h167.23
			c2.97,0,5.39,2.41,5.39,5.39v209.23C969.4,586.12,966.99,588.53,964.01,588.53z"/>
	</g>
	<text transform="matrix(1 0 0 1 903.9805 578.9746)" class="st234 st239">EXPORT 4</text>
	<text transform="matrix(1 0 0 1 819.9351 578.9746)" class="st234 st239">EXPORT 3 </text>
	<text transform="matrix(1 0 0 1 820.9815 475.3555)" class="st234 st239">EXPORT 1</text>
	<text transform="matrix(1 0 0 1 903.9808 474.9268)" class="st234 st239">EXPORT 2</text>
	<g>
		<path class="st205" d="M868.9,388.28c0-1.24-1.01-2.25-2.25-2.25H838.4h-28.25c-1.24,0-2.25,1.01-2.25,2.25v75.5
			c0,1.24,1.01,2.25,2.25,2.25h28.25h28.25c1.24,0,2.25-1.01,2.25-2.25V388.28z"/>
		<path class="st240" d="M838.4,466.03l0-11.86c2.62-0.07,5.16-0.5,7.56-1.22l6.14,4.47c0.13,0.1,0.26,0.19,0.39,0.28l0.04,0.03l0,0
			c1.7,1.12,3.82,1.67,6.07,1.36c3.74-0.51,6.81-3.45,7.45-7.17c0.66-3.86-1.19-7.37-4.18-9.15c0.19-0.25,3.79-5.1,4.11-6.25h2.92"
			/>
		<circle class="st241" cx="838.5" cy="423.63" r="27.68"/>
		<circle class="st59" cx="811.9" cy="390.03" r="2"/>
		<circle class="st59" cx="864.9" cy="390.03" r="2"/>
		<circle class="st59" cx="811.9" cy="462.03" r="2"/>
		<circle class="st59" cx="864.9" cy="462.03" r="2"/>
		<circle class="st59" cx="838.39" cy="423.63" r="2.21"/>
		<circle class="st59" cx="838.39" cy="423.63" r="2.21"/>
		<circle class="st242" cx="838.39" cy="423.63" r="5.24"/>
		<path class="st183" d="M859.84,444.29l-29.29-8.99c-0.11-0.03-0.22-0.05-0.34-0.05c-0.75,0-1.35,0.6-1.35,1.35
			c0,0.44,0.21,0.82,0.53,1.07l0,0l24.49,17.83l0,0c1,0.66,2.2,1.04,3.49,1.04c3.52,0,6.37-2.85,6.37-6.37
			C863.75,447.53,862.13,445.26,859.84,444.29z"/>
		<g>
			<circle class="st0" cx="856.9" cy="450.03" r="4"/>
		</g>
	</g>
	<g>
		<path class="st205" d="M951.9,388.28c0-1.24-1.01-2.25-2.25-2.25H921.4h-28.25c-1.24,0-2.25,1.01-2.25,2.25v75.5
			c0,1.24,1.01,2.25,2.25,2.25h28.25h28.25c1.24,0,2.25-1.01,2.25-2.25V388.28z"/>
		<path class="st240" d="M921.4,466.03l0-11.86c2.62-0.07,5.16-0.5,7.56-1.22l6.14,4.47c0.13,0.1,0.26,0.19,0.39,0.28l0.04,0.03l0,0
			c1.7,1.12,3.82,1.67,6.07,1.36c3.74-0.51,6.81-3.45,7.45-7.17c0.66-3.86-1.19-7.37-4.18-9.15c0.19-0.25,3.79-5.1,4.11-6.25h2.92"
			/>
		<circle class="st241" cx="921.53" cy="423.63" r="27.68"/>
		<circle class="st59" cx="894.9" cy="390.03" r="2"/>
		<circle class="st59" cx="947.9" cy="390.03" r="2"/>
		<circle class="st59" cx="894.9" cy="462.03" r="2"/>
		<circle class="st59" cx="947.9" cy="462.03" r="2"/>
		<circle class="st59" cx="921.43" cy="423.63" r="2.21"/>
		<circle class="st59" cx="921.43" cy="423.63" r="2.21"/>
		<circle class="st242" cx="921.43" cy="423.63" r="5.24"/>
		<path class="st183" d="M942.87,444.29l-29.29-8.99c-0.11-0.03-0.22-0.05-0.34-0.05c-0.75,0-1.35,0.6-1.35,1.35
			c0,0.44,0.21,0.82,0.53,1.07l0,0l24.49,17.83l0,0c1,0.66,2.2,1.04,3.49,1.04c3.52,0,6.37-2.85,6.37-6.37
			C946.78,447.53,945.17,445.26,942.87,444.29z"/>
		<g>
			<circle class="st0" cx="940.9" cy="450.03" r="4"/>
		</g>
	</g>
	<g>
		<path class="st205" d="M868.9,492.28c0-1.24-1.01-2.25-2.25-2.25H838.4h-28.25c-1.24,0-2.25,1.01-2.25,2.25v75.5
			c0,1.24,1.01,2.25,2.25,2.25h28.25h28.25c1.24,0,2.25-1.01,2.25-2.25V492.28z"/>
		<path class="st240" d="M838.4,570.03l0-11.86c2.62-0.07,5.16-0.5,7.56-1.22l6.14,4.47c0.13,0.1,0.26,0.19,0.39,0.28l0.04,0.03l0,0
			c1.7,1.12,3.82,1.67,6.07,1.36c3.74-0.51,6.81-3.45,7.45-7.17c0.66-3.86-1.19-7.37-4.18-9.15c0.19-0.25,3.79-5.1,4.11-6.25h2.92"
			/>
		<circle class="st241" cx="838.5" cy="527.78" r="27.68"/>
		<circle class="st59" cx="811.9" cy="494.03" r="2"/>
		<circle class="st59" cx="864.9" cy="494.03" r="2"/>
		<circle class="st59" cx="811.9" cy="566.03" r="2"/>
		<circle class="st59" cx="864.9" cy="566.03" r="2"/>
		<circle class="st59" cx="838.39" cy="527.78" r="2.21"/>
		<circle class="st59" cx="838.39" cy="527.78" r="2.21"/>
		<circle class="st242" cx="838.39" cy="527.78" r="5.24"/>
		<path class="st183" d="M859.84,548.44l-29.29-8.99c-0.11-0.03-0.22-0.05-0.34-0.05c-0.75,0-1.35,0.6-1.35,1.35
			c0,0.44,0.21,0.82,0.53,1.07l0,0l24.49,17.83l0,0c1,0.66,2.2,1.04,3.49,1.04c3.52,0,6.37-2.85,6.37-6.37
			C863.75,551.67,862.13,549.41,859.84,548.44z"/>
		<g>
			<circle class="st0" cx="856.9" cy="554.03" r="4"/>
		</g>
	</g>
	<g>
		<path class="st205" d="M951.9,492.28c0-1.24-1.01-2.25-2.25-2.25H921.4h-28.25c-1.24,0-2.25,1.01-2.25,2.25v75.5
			c0,1.24,1.01,2.25,2.25,2.25h28.25h28.25c1.24,0,2.25-1.01,2.25-2.25V492.28z"/>
		<path class="st240" d="M921.4,570.03l0-11.86c2.62-0.07,5.16-0.5,7.56-1.22l6.14,4.47c0.13,0.1,0.26,0.19,0.39,0.28l0.04,0.03l0,0
			c1.7,1.12,3.82,1.67,6.07,1.36c3.74-0.51,6.81-3.45,7.45-7.17c0.66-3.86-1.19-7.37-4.18-9.15c0.19-0.25,3.79-5.1,4.11-6.25h2.92"
			/>
		<circle class="st241" cx="921.53" cy="527.78" r="27.68"/>
		<circle class="st59" cx="894.9" cy="494.03" r="2"/>
		<circle class="st59" cx="947.9" cy="494.03" r="2"/>
		<circle class="st59" cx="894.9" cy="566.03" r="2"/>
		<circle class="st59" cx="947.9" cy="566.03" r="2"/>
		<circle class="st59" cx="921.43" cy="527.78" r="2.21"/>
		<circle class="st59" cx="921.43" cy="527.78" r="2.21"/>
		<circle class="st242" cx="921.43" cy="527.78" r="5.24"/>
		<path class="st183" d="M942.87,548.44l-29.29-8.99c-0.11-0.03-0.22-0.05-0.34-0.05c-0.75,0-1.35,0.6-1.35,1.35
			c0,0.44,0.21,0.82,0.53,1.07l0,0l24.49,17.83l0,0c1,0.66,2.2,1.04,3.49,1.04c3.52,0,6.37-2.85,6.37-6.37
			C946.78,551.67,945.17,549.41,942.87,548.44z"/>
		<g>
			<circle class="st0" cx="940.9" cy="554.03" r="4"/>
		</g>
	</g>
</g>
<g>
	<g>
		<line class="st243" x1="958.86" y1="481.53" x2="1046.9" y2="481.53"/>
		<g>
			<circle class="st142" cx="958.97" cy="481.53" r="2.07"/>
		</g>
	</g>
</g>
</svg>
