<?xml version="1.0" encoding="UTF-8"?>
<svg width="93px" height="187px" viewBox="0 0 93 187" version="1.1" xmlns="http://www.w3.org/2000/svg" xmlns:xlink="http://www.w3.org/1999/xlink">
    <!-- Generator: Sketch 48.2 (47327) - http://www.bohemiancoding.com/sketch -->
    <title>logo</title>
    <desc>Created with Sketch.</desc>
    <defs></defs>
    <g id="Page-1" stroke="none" stroke-width="1" fill="none" fill-rule="evenodd">
        <g id="logo" transform="translate(0.187500, -0.683594)" fill="#FFFFFF" fill-rule="nonzero">
            <path d="M91.49,46.551 C86.7827023,38.7699609 82.062696,30.9966172 77.33,23.231 C74.87,19.231 72.33,15.231 69.88,11.231 C69.57,10.731 69.18,10.291 68.88,9.831 C64.35,2.931 55.44,-1.679 46.73,2.701 C42.9729806,4.51194908 40.0995718,7.75449451 38.7536428,11.7020516 C37.4077139,15.6496086 37.701799,19.9721186 39.57,23.701 C41.08,26.641 43.57,29.121 45.91,31.581 C53.03,39.141 60.38,46.491 67.45,54.111 C72.4175495,59.4492221 74.4526451,66.8835066 72.8965704,74.0075359 C71.3404956,81.1315653 66.390952,87.0402215 59.65,89.821 C59.4938176,89.83842 59.3361824,89.83842 59.18,89.821 L59.18,54.591 C46.6388051,61.0478363 35.3944735,69.759905 26.01,80.291 C11.32,96.671 2.64,117.141 0.01,132.071 L23.96,119.821 C31.96,115.771 39.86,111.821 48.14,107.581 L48.14,175.921 L59.14,187.131 L59.14,101.831 C59.14,101.831 59.39,101.711 60.22,101.261 C63.5480598,99.6738911 66.7772674,97.8873078 69.89,95.911 C77.7130888,90.4306687 82.7479457,81.8029342 83.6709542,72.295947 C84.5939627,62.7889599 81.3127806,53.3538429 74.69,46.471 C66.49,37.891 58.24,29.351 50.05,20.761 C47.67,18.261 47.72,15.101 50.05,12.881 C52.38,10.661 55.56,10.881 57.96,13.331 L61.38,16.781 C64.1,19.681 66.79,22.611 69.53,25.481 C76.4547149,32.7389629 83.3947303,39.9823123 90.35,47.211 C90.7,47.571 91.12,47.871 91.5,48.211 L91.93,47.951 C91.8351945,47.4695902 91.6876376,47.0000911 91.49,46.551 Z M48.11,94.931 C47.9883217,95.5022568 47.6230065,95.9917791 47.11,96.271 C42.72,98.601 38.29,100.871 33.87,103.141 L17.76,111.401 C24.771203,96.7435071 35.1132853,83.9289138 47.96,73.981 C48.08,74.221 48.16,74.301 48.16,74.381 C48.15,81.231 48.17,88.081 48.11,94.931 Z" id="Shape"></path>
        </g>
    </g>
</svg>