<?xml version="1.0" encoding="UTF-8" standalone="no"?>
<!DOCTYPE svg PUBLIC "-//W3C//DTD SVG 1.1//EN" "http://www.w3.org/Graphics/SVG/1.1/DTD/svg11.dtd">
<svg version="1.1" xmlns="http://www.w3.org/2000/svg" xmlns:xlink="http://www.w3.org/1999/xlink" preserveAspectRatio="xMidYMid meet" viewBox="3 3 18 18" width="18" height="18"><defs><path d="M19.49 3.06L19.72 3.13L19.94 3.23L20.14 3.36L20.33 3.5L20.49 3.67L20.64 3.85L20.76 4.06L20.86 4.27L20.94 4.51L20.98 4.75L21 5L21 19L20.98 19.25L20.94 19.49L20.86 19.72L20.76 19.94L20.64 20.14L20.49 20.33L20.33 20.49L20.14 20.64L19.94 20.76L19.72 20.86L19.49 20.94L19.25 20.98L19 21L4.99 21L4.74 20.98L4.5 20.94L4.27 20.86L4.05 20.76L3.85 20.64L3.66 20.49L3.5 20.33L3.35 20.14L3.23 19.94L3.13 19.72L3.06 19.49L3.02 19.25L3 19L3.01 5L3.03 4.75L3.07 4.51L3.14 4.27L3.24 4.06L3.36 3.85L3.5 3.67L3.67 3.5L3.85 3.36L4.05 3.23L4.27 3.13L4.5 3.06L4.74 3.02L4.99 3L19 3L19.25 3.02L19.49 3.06ZM4.99 15L9 15L9.04 15.49L9.15 15.95L9.34 16.38L9.58 16.77L9.88 17.12L10.23 17.42L10.62 17.67L11.05 17.85L11.52 17.96L12 18L12.48 17.96L12.95 17.85L13.38 17.67L13.77 17.42L14.12 17.12L14.42 16.77L14.66 16.38L14.85 15.95L14.96 15.49L15 15L19 15L19 5L4.99 5L4.99 15Z" id="djjSqJazw"></path></defs><g visibility="inherit"><g visibility="inherit"><use xlink:href="#djjSqJazw" opacity="1" fill="#f96b59" fill-opacity="1"></use><g><use xlink:href="#djjSqJazw" opacity="1" fill-opacity="0" stroke="#000000" stroke-width="1" stroke-opacity="0"></use></g></g></g></svg>