<svg xmlns="http://www.w3.org/2000/svg" width="14" height="13"><g stroke-width="1.15" stroke="#586D77" fill="none" fill-rule="evenodd"><path d="M13.309 8.503l-.025-.068.002-.072a.83.83 0 0 0-.013-.166l-1.139-6.442c-.07-.394-.412-.68-.811-.68h-8.2c-.399 0-.741.286-.811.679L1.163 8.197a.82.82 0 0 0-.013.145v.02l.002.073-.025.068a.82.82 0 0 0-.052.29v2.097c0 .455.369.824.824.824h10.637c.455 0 .824-.369.824-.824V8.791a.82.82 0 0 0-.051-.287z"/><path d="M1.802 7.916H12.7" stroke-linecap="square"/></g></svg>