<?xml version="1.0" encoding="UTF-8"?>
<svg width="15px" height="13px" viewBox="0 0 15 13" version="1.1" xmlns="http://www.w3.org/2000/svg" xmlns:xlink="http://www.w3.org/1999/xlink">
    <!-- Generator: Sketch 48.2 (47327) - http://www.bohemiancoding.com/sketch -->
    <title>Untitled 2</title>
    <desc>Created with Sketch.</desc>
    <defs></defs>
    <g id="Page-1" stroke="none" stroke-width="1" fill="none" fill-rule="evenodd">
        <g id="bucket" transform="translate(1.000000, 1.000000)" stroke="#859EAB" stroke-width="1.15">
            <path d="M12.738688,7.628 L12.713688,7.56 L12.715688,7.488 C12.7169299,7.43237079 12.7125747,7.37675769 12.702688,7.322 L11.563688,0.88 C11.493688,0.486 11.151688,0.2 10.752688,0.2 L2.552688,0.2 C2.153688,0.2 1.811688,0.486 1.741688,0.879 L0.592688,7.322 C0.584064237,7.36985231 0.579713763,7.41837683 0.579688,7.467 L0.579688,7.487 L0.581688,7.56 L0.556688,7.628 C0.521988279,7.7207344 0.504370632,7.81898667 0.504688,7.918 L0.504688,10.015 C0.504688,10.47 0.873688,10.839 1.328688,10.839 L11.965688,10.839 C12.420688,10.839 12.789688,10.47 12.789688,10.015 L12.789688,7.916 C12.7899648,7.81805523 12.772692,7.72085306 12.738688,7.629 L12.738688,7.628 Z" id="Shape"></path>
            <path d="M1.231688,7.041 L12.129688,7.041" id="Shape" stroke-linecap="square"></path>
        </g>
    </g>
</svg>