<?xml version="1.0" encoding="UTF-8" standalone="no"?>
<!DOCTYPE svg PUBLIC "-//W3C//DTD SVG 1.1//EN" "http://www.w3.org/Graphics/SVG/1.1/DTD/svg11.dtd">
<svg version="1.1" xmlns="http://www.w3.org/2000/svg" xmlns:xlink="http://www.w3.org/1999/xlink" preserveAspectRatio="xMidYMid meet" viewBox="70 90 15 15" width="15" height="15"><defs><path d="M83.74 90.05L83.93 90.11L84.12 90.19L84.28 90.3L84.44 90.42L84.58 90.56L84.7 90.71L84.8 90.88L84.88 91.06L84.95 91.26L84.98 91.46L85 91.67L85 103.33L84.98 103.54L84.95 103.74L84.88 103.93L84.8 104.12L84.7 104.28L84.58 104.44L84.44 104.58L84.28 104.7L84.12 104.8L83.93 104.88L83.74 104.95L83.54 104.98L83.33 105L71.66 105L71.45 104.98L71.25 104.95L71.06 104.88L70.88 104.8L70.71 104.7L70.55 104.58L70.42 104.44L70.29 104.28L70.19 104.12L70.11 103.93L70.05 103.74L70.02 103.54L70 103.33L70.01 91.67L70.03 91.46L70.06 91.26L70.12 91.06L70.2 90.88L70.3 90.71L70.42 90.56L70.56 90.42L70.71 90.3L70.88 90.19L71.06 90.11L71.25 90.05L71.45 90.02L71.66 90L83.33 90L83.54 90.02L83.74 90.05ZM71.66 100L75 100L75.03 100.41L75.13 100.79L75.28 101.15L75.48 101.48L75.73 101.77L76.03 102.02L76.35 102.23L76.71 102.38L77.1 102.47L77.5 102.5L77.9 102.47L78.29 102.38L78.65 102.23L78.98 102.02L79.27 101.77L79.52 101.48L79.72 101.15L79.88 100.79L79.97 100.41L80 100L83.33 100L83.33 91.67L71.66 91.67L71.66 100Z" id="e8cai6eIJ"></path><path d="M83.74 90.05L83.93 90.11L84.12 90.19L84.28 90.3L84.44 90.42L84.58 90.56L84.7 90.71L84.8 90.88L84.88 91.06L84.95 91.26L84.98 91.46L85 91.67L85 103.33L84.98 103.54L84.95 103.74L84.88 103.93L84.8 104.12L84.7 104.28L84.58 104.44L84.44 104.58L84.28 104.7L84.12 104.8L83.93 104.88L83.74 104.95L83.54 104.98L83.33 105L71.66 105L71.45 104.98L71.25 104.95L71.06 104.88L70.88 104.8L70.71 104.7L70.55 104.58L70.42 104.44L70.29 104.28L70.19 104.12L70.11 103.93L70.05 103.74L70.02 103.54L70 103.33L70.01 91.67L70.03 91.46L70.06 91.26L70.12 91.06L70.2 90.88L70.3 90.71L70.42 90.56L70.56 90.42L70.71 90.3L70.88 90.19L71.06 90.11L71.25 90.05L71.45 90.02L71.66 90L83.33 90L83.54 90.02L83.74 90.05ZM71.66 100L75 100L75.03 100.41L75.13 100.79L75.28 101.15L75.48 101.48L75.73 101.77L76.03 102.02L76.35 102.23L76.71 102.38L77.1 102.47L77.5 102.5L77.9 102.47L78.29 102.38L78.65 102.23L78.98 102.02L79.27 101.77L79.52 101.48L79.72 101.15L79.88 100.79L79.97 100.41L80 100L83.33 100L83.33 91.67L71.66 91.67L71.66 100Z" id="a1RJG6fzqL"></path></defs><g visibility="inherit"><g visibility="inherit"><use xlink:href="#e8cai6eIJ" opacity="1" fill="#ffffff" fill-opacity="1"></use><g><use xlink:href="#e8cai6eIJ" opacity="1" fill-opacity="0" stroke="#000000" stroke-width="1" stroke-opacity="0"></use></g></g><g visibility="inherit"><use xlink:href="#a1RJG6fzqL" opacity="1" fill="#ffffff" fill-opacity="1"></use><g><use xlink:href="#a1RJG6fzqL" opacity="1" fill-opacity="0" stroke="#000000" stroke-width="1" stroke-opacity="0"></use></g></g></g></svg>