<?xml version="1.0" encoding="UTF-8"?>
<svg width="14px" height="15px" viewBox="0 0 14 15" version="1.1" xmlns="http://www.w3.org/2000/svg" xmlns:xlink="http://www.w3.org/1999/xlink">
    <!-- Generator: Sketch 48.2 (47327) - http://www.bohemiancoding.com/sketch -->
    <title>Untitled</title>
    <desc>Created with Sketch.</desc>
    <defs></defs>
    <g id="Page-1" stroke="none" stroke-width="1" fill="none" fill-rule="evenodd">
        <g id="®®r" transform="translate(7.125683, 7.546056) rotate(-45.000000) translate(-7.125683, -7.546056) translate(1.625683, 2.546056)" fill="#586D77">
            <path d="M3.01846398,0.682658579 L3.01846398,0.682658579 C2.83416852,0.824769803 2.79997144,1.0893747 2.94208267,1.27367016 C2.95311034,1.28797129 2.96504597,1.30154871 2.9778157,1.31431844 L6.71122499,5.04772773 L2.98030105,8.77865167 C2.81295893,8.94599379 2.81295893,9.21730897 2.98030105,9.38465108 C2.99233803,9.39668807 3.0050816,9.40799709 3.01846398,9.41851801 L3.01846398,9.41851801 C3.23503246,9.58877915 3.54468631,9.57029477 3.739462,9.37547898 L7.35397568,5.7600757 C7.74443137,5.36953964 7.74439879,4.73643079 7.35390292,4.34593491 L3.73701179,0.728898237 C3.54317037,0.535056817 3.23555168,0.515261081 3.01846398,0.682658579 Z" id="Shape" transform="translate(5.250585, 5.052028) rotate(45.000000) translate(-5.250585, -5.052028) "></path>
        </g>
    </g>
</svg>