<svg xmlns="http://www.w3.org/2000/svg" width="16" height="15"><g stroke="#fff" fill="none" fill-rule="evenodd"><path d="M2.953 1.28L1.501 9.125h12.866L13.035 1.28z" fill="#fff" stroke-width="1"/><g stroke-width="1.15"><path d="M14.942 10.125l-.029-.083.002-.089a1.1 1.1 0 0 0-.014-.204l-1.298-7.914c-.079-.483-.469-.836-.925-.836H3.333c-.455 0-.845.352-.924.834L1.101 9.749c-.01.059-.015.118-.015.177v.024l.002.089-.029.083a1.08 1.08 0 0 0-.059.356v2.577c0 .559.42 1.012.939 1.012h12.122c.519 0 .939-.454.939-1.012v-2.577c0-.123-.02-.241-.058-.353z"/><path d="M1.933 9.4h12.133" stroke-linecap="square"/></g></g></svg>