<?xml version="1.0" encoding="UTF-8" standalone="no"?>
<!DOCTYPE svg PUBLIC "-//W3C//DTD SVG 1.1//EN" "http://www.w3.org/Graphics/SVG/1.1/DTD/svg11.dtd">
<svg version="1.1" xmlns="http://www.w3.org/2000/svg" xmlns:xlink="http://www.w3.org/1999/xlink" preserveAspectRatio="xMidYMid meet" viewBox="108.38297872340428 162.9716312056738 20 16" width="20" height="16"><defs><path d="M110.38 162.97C109.28 162.97 108.39 163.87 108.39 164.97C108.39 166.17 108.38 175.77 108.38 176.97C108.38 178.07 109.28 178.97 110.38 178.97C111.98 178.97 124.78 178.97 126.38 178.97C127.48 178.97 128.38 178.07 128.38 176.97C128.38 175.97 128.38 167.97 128.38 166.97C128.38 165.87 127.48 164.97 126.38 164.97C125.85 164.97 123.18 164.97 118.38 164.97L116.38 162.97C112.78 162.97 110.78 162.97 110.38 162.97Z" id="g240zQeaHz"></path></defs><g><g><use xlink:href="#g240zQeaHz" opacity="1" fill="#81c3f1" fill-opacity="1"></use><g><use xlink:href="#g240zQeaHz" opacity="1" fill-opacity="0" stroke="#000000" stroke-width="1" stroke-opacity="0"></use></g></g></g></svg>