<?xml version="1.0" encoding="UTF-8" standalone="no"?>
<!DOCTYPE svg PUBLIC "-//W3C//DTD SVG 1.1//EN" "http://www.w3.org/Graphics/SVG/1.1/DTD/svg11.dtd">
<svg version="1.1" xmlns="http://www.w3.org/2000/svg" xmlns:xlink="http://www.w3.org/1999/xlink" preserveAspectRatio="xMidYMid meet" viewBox="59.0921985815603 164.21276595744686 16.999999999999986 14.360000000000014" width="17" height="14.36"><defs><path d="M74.39 166.01L74.64 166.03L74.88 166.08L75.11 166.18L75.32 166.3L75.51 166.45L75.67 166.63L75.82 166.83L75.93 167.05L76.02 167.29L76.07 167.54L76.09 167.8L76.09 176.78L76.07 177.04L76.02 177.29L75.93 177.53L75.82 177.75L75.67 177.95L75.51 178.13L75.32 178.28L75.11 178.41L74.88 178.5L74.64 178.55L74.39 178.57L60.79 178.57L60.54 178.55L60.3 178.5L60.08 178.41L59.87 178.28L59.68 178.13L59.51 177.95L59.37 177.75L59.25 177.53L59.16 177.29L59.11 177.04L59.09 176.78L59.1 166.01L59.12 165.74L59.17 165.49L59.26 165.25L59.37 165.03L59.52 164.83L59.68 164.65L59.87 164.5L60.08 164.38L60.3 164.29L60.54 164.23L60.79 164.21L65.89 164.21L67.59 166.01L74.39 166.01ZM60.79 176.78L74.39 176.78L74.39 167.8L60.79 167.8L60.79 176.78Z" id="a312FMvMb"></path></defs><g visibility="inherit"><g visibility="inherit"><use xlink:href="#a312FMvMb" opacity="1" fill="#ffffff" fill-opacity="1"></use><g><use xlink:href="#a312FMvMb" opacity="1" fill-opacity="0" stroke="#000000" stroke-width="1" stroke-opacity="0"></use></g></g></g></svg>