<?xml version="1.0" encoding="UTF-8" standalone="no"?>
<!DOCTYPE svg PUBLIC "-//W3C//DTD SVG 1.1//EN" "http://www.w3.org/Graphics/SVG/1.1/DTD/svg11.dtd">
<svg version="1.1" xmlns="http://www.w3.org/2000/svg" xmlns:xlink="http://www.w3.org/1999/xlink" preserveAspectRatio="xMidYMid meet" viewBox="55.6521739130435 70.00876419697258 20.48036840375005 19.973129292975685" width="20.48" height="19.97"><defs><path d="M65.89 70.01C60.23 70.01 55.65 74.59 55.65 80.25C55.65 84.77 58.59 88.61 62.65 89.96C63.17 90.06 63.35 89.74 63.35 89.47C63.35 89.23 63.35 88.58 63.34 87.73C60.49 88.35 59.89 86.36 59.89 86.36C59.43 85.17 58.75 84.86 58.75 84.86C57.82 84.22 58.82 84.24 58.82 84.24C59.85 84.31 60.39 85.29 60.39 85.29C61.31 86.86 62.79 86.41 63.37 86.14C63.47 85.48 63.73 85.03 64.02 84.77C61.75 84.52 59.36 83.64 59.36 79.71C59.36 78.6 59.76 77.68 60.41 76.97C60.3 76.71 59.95 75.67 60.5 74.26C60.5 74.26 61.36 73.98 63.32 75.31C64.14 75.08 65.01 74.97 65.88 74.96C66.75 74.97 67.62 75.08 68.44 75.31C70.38 73.98 71.24 74.26 71.24 74.26C71.79 75.67 71.45 76.71 71.34 76.97C72 77.68 72.39 78.6 72.39 79.71C72.39 83.65 70 84.51 67.72 84.77C68.08 85.07 68.41 85.7 68.41 86.66C68.41 88.03 68.4 89.13 68.4 89.46C68.4 89.73 68.58 90.05 69.1 89.95C73.2 88.61 76.13 84.77 76.13 80.25C76.13 74.59 71.55 70.01 65.89 70.01" id="a5DF57mK7"></path></defs><g visibility="inherit"><g visibility="inherit"><use xlink:href="#a5DF57mK7" opacity="1" fill="#000000" fill-opacity="1"></use><g><use xlink:href="#a5DF57mK7" opacity="1" fill-opacity="0" stroke="#000000" stroke-width="1" stroke-opacity="0"></use></g></g></g></svg>