<svg xmlns="http://www.w3.org/2000/svg" width="17" height="17"><path d="M8.698.91a7.85 7.85 0 0 0-7.85 7.85 7.85 7.85 0 1 0 15.7 0A7.85 7.85 0 0 0 8.698.91zm2.605 11.319l-.358.357c-.095.095-.161.212-.195.339-.048.179-.086.36-.151.534l-.55 1.483a6.34 6.34 0 0 1-1.35.148v-.867c.053-.399-.242-1.148-.716-1.623a1.01 1.01 0 0 1-.297-.716v-1.013a1.01 1.01 0 0 0-.521-.885L5.619 9.16a4.55 4.55 0 0 1-1.002-.688l-.025-.023a3.63 3.63 0 0 1-.572-.657L2.925 6.174c.648-1.44 1.816-2.597 3.267-3.225l.76.38c.337.168.733-.077.733-.453v-.358c.253-.041.51-.066.772-.076l.896.896c.198.198.198.519 0 .716l-.476.476c-.099.099-.099.259 0 .358l.148.148c.099.099.099.259 0 .358l-.253.253c-.048.047-.112.074-.179.074h-.285c-.066 0-.129.025-.177.072l-.314.305c-.079.077-.099.196-.05.295l.493.987c.084.168-.038.366-.226.366h-.179c-.061 0-.12-.022-.166-.062l-.294-.255c-.135-.117-.322-.155-.492-.098l-.987.329a.38.38 0 0 0-.049.698l.351.175c.298.149.626.227.959.227s.715.864 1.013 1.013h2.113c.269 0 .526.107.716.297l.433.433c.181.181.283.427.283.683 0 .392-.156.768-.434 1.044zm2.745-2.891a.76.76 0 0 1-.448-.316l-.569-.854a.76.76 0 0 1 0-.843l.62-.93a.76.76 0 0 1 .292-.258l.411-.205a6.28 6.28 0 0 1 .675 2.827 6.31 6.31 0 0 1-.058.809l-.924-.23z" fill="#455A64" fill-rule="nonzero"/></svg>