<?xml version="1.0" encoding="UTF-8" standalone="no"?>
<!DOCTYPE svg PUBLIC "-//W3C//DTD SVG 1.1//EN" "http://www.w3.org/Graphics/SVG/1.1/DTD/svg11.dtd">
<svg version="1.1" xmlns="http://www.w3.org/2000/svg" xmlns:xlink="http://www.w3.org/1999/xlink" preserveAspectRatio="xMidYMid meet" viewBox="231.82608695652172 281.30434782608694 20 4.449999999999989" width="20" height="4.45"><defs><path d="M235.62 281.96L236.1 282.67L236.27 283.53L236.1 284.39L235.62 285.1L234.91 285.58L234.05 285.75L233.19 285.58L232.48 285.1L232 284.39L231.83 283.53L232 282.67L232.48 281.96L233.19 281.48L234.05 281.3L234.91 281.48L235.62 281.96Z" id="n3DLjmbi8"></path><path d="M243.4 281.96L243.87 282.67L244.05 283.53L243.87 284.39L243.4 285.1L242.69 285.58L241.83 285.75L240.96 285.58L240.26 285.1L239.78 284.39L239.6 283.53L239.78 282.67L240.26 281.96L240.96 281.48L241.83 281.3L242.69 281.48L243.4 281.96Z" id="b9g5P6JS"></path><path d="M251.17 281.96L251.65 282.67L251.83 283.53L251.65 284.39L251.17 285.1L250.47 285.58L249.6 285.75L248.74 285.58L248.03 285.1L247.56 284.39L247.38 283.53L247.56 282.67L248.03 281.96L248.74 281.48L249.6 281.3L250.47 281.48L251.17 281.96Z" id="c2VIsKL20E"></path></defs><g visibility="inherit"><g visibility="inherit"><use xlink:href="#n3DLjmbi8" opacity="1" fill="#000000" fill-opacity="1"></use><g><use xlink:href="#n3DLjmbi8" opacity="1" fill-opacity="0" stroke="#000000" stroke-width="1" stroke-opacity="0"></use></g></g><g visibility="inherit"><use xlink:href="#b9g5P6JS" opacity="1" fill="#000000" fill-opacity="1"></use><g><use xlink:href="#b9g5P6JS" opacity="1" fill-opacity="0" stroke="#000000" stroke-width="1" stroke-opacity="0"></use></g></g><g visibility="inherit"><use xlink:href="#c2VIsKL20E" opacity="1" fill="#000000" fill-opacity="1"></use><g><use xlink:href="#c2VIsKL20E" opacity="1" fill-opacity="0" stroke="#000000" stroke-width="1" stroke-opacity="0"></use></g></g></g></svg>