<?xml version="1.0" encoding="UTF-8"?>
<svg width="19px" height="17px" viewBox="0 0 19 17" version="1.1" xmlns="http://www.w3.org/2000/svg" xmlns:xlink="http://www.w3.org/1999/xlink">
    <!-- Generator: Sketch 48.2 (47327) - http://www.bohemiancoding.com/sketch -->
    <title>Untitled</title>
    <desc>Created with Sketch.</desc>
    <defs></defs>
    <g id="Page-1" stroke="none" stroke-width="1" fill="none" fill-rule="evenodd">
        <path d="M0.99999982,12.999999 L0.99999982,14.9999989 L6.99999946,14.9999989 L6.99999946,12.999999 L0.99999982,12.999999 Z M0.99999982,2.9999997 L0.99999982,4.99999958 L10.9999992,4.99999958 L10.9999992,2.9999997 L0.99999982,2.9999997 Z M10.9999992,16.9999987 L10.9999992,14.9999989 L18.9999987,14.9999989 L18.9999987,12.999999 L10.9999992,12.999999 L10.9999992,10.9999991 L8.99999934,10.9999991 L8.99999934,16.9999987 L10.9999992,16.9999987 Z M4.99999958,5.99999946 L4.99999958,7.99999934 L0.99999982,7.99999934 L0.99999982,9.99999922 L4.99999958,9.99999922 L4.99999958,11.9999991 L6.99999946,11.9999991 L6.99999946,5.99999946 L4.99999958,5.99999946 Z M18.9999987,9.99999922 L18.9999987,7.99999934 L8.99999934,7.99999934 L8.99999934,9.99999922 L18.9999987,9.99999922 Z M12.9999991,6.99999946 L14.999999,6.99999946 L14.999999,4.99999958 L18.9999987,4.99999958 L18.9999987,2.9999997 L14.999999,2.9999997 L14.999999,0.99999982 L12.9999991,0.99999982 L12.9999991,6.99999946 Z" id="Fill-3" fill="#586D77"></path>
    </g>
</svg>