<?xml version="1.0" encoding="UTF-8"?>
<svg width="16px" height="13px" viewBox="0 0 16 13" version="1.1" xmlns="http://www.w3.org/2000/svg" xmlns:xlink="http://www.w3.org/1999/xlink">
    <!-- Generator: Sketch 48.2 (47327) - http://www.bohemiancoding.com/sketch -->
    <title>Untitled</title>
    <desc>Created with Sketch.</desc>
    <defs></defs>
    <g id="Page-1" stroke="none" stroke-width="1" fill="none" fill-rule="evenodd">
        <g id="path-previous" fill="#455A64" fill-rule="nonzero" stroke="#455A64" stroke-width="0.5">
            <path d="M13.8928294,5.47365397 L9.50564241,1.08646694 C9.33908012,0.919904674 9.33908012,0.649633839 9.50564241,0.483071581 C9.67220467,0.316509322 9.94247544,0.316509322 10.1090377,0.483071581 L15.5280727,5.90210657 L15.5280727,5.90420169 L10.1268463,11.320094 C9.96028401,11.4866563 9.69106076,11.4856087 9.52554603,11.320094 C9.36003135,11.1545793 9.35898379,10.8832609 9.52554603,10.7177462 L13.9054002,6.32636892 L1.01620501,6.32636892 C0.7805037,6.32636892 0.589847529,6.13571275 0.589847529,5.90001144 C0.589847529,5.66431014 0.7805037,5.47365397 1.01620501,5.47365397 L13.8928294,5.47365397 Z" id="Shape" transform="translate(8.058960, 5.901387) scale(-1, 1) translate(-8.058960, -5.901387) "></path>
        </g>
    </g>
</svg>