<?xml version="1.0" encoding="UTF-8"?>
<svg width="15px" height="15px" viewBox="0 0 15 15" version="1.1" xmlns="http://www.w3.org/2000/svg" xmlns:xlink="http://www.w3.org/1999/xlink">
    <!-- Generator: Sketch 48.2 (47327) - http://www.bohemiancoding.com/sketch -->
    <title>Untitled 2</title>
    <desc>Created with Sketch.</desc>
    <defs></defs>
    <g id="Page-1" stroke="none" stroke-width="1" fill="none" fill-rule="evenodd">
        <g id="search" fill="#859EAB">
            <path d="M10.417,9.167 L9.759,9.167 L9.526,8.942 C10.343,7.992 10.834,6.759 10.834,5.417 C10.8323449,2.42595934 8.40804066,0.00165509989 5.417,-6.01740879e-16 C2.42595934,0.00165509989 0.00165509989,2.42595934 0,5.417 C0.00165509989,8.40804066 2.42595934,10.8323449 5.417,10.834 C6.759,10.834 7.992,10.342 8.942,9.526 L9.167,9.759 L9.167,10.417 L13.334,14.575 L14.576,13.333 L10.418,9.166 L10.417,9.167 Z M5.417,9.167 C3.342,9.167 1.667,7.492 1.667,5.417 C1.667,3.342 3.342,1.667 5.417,1.667 C7.492,1.667 9.167,3.342 9.167,5.417 C9.167,7.492 7.492,9.167 5.417,9.167 Z" id="Shape"></path>
        </g>
    </g>
</svg>