<?xml version="1.0" encoding="UTF-8" standalone="no"?>
<!DOCTYPE svg PUBLIC "-//W3C//DTD SVG 1.1//EN" "http://www.w3.org/Graphics/SVG/1.1/DTD/svg11.dtd">
<svg version="1.1" xmlns="http://www.w3.org/2000/svg" xmlns:xlink="http://www.w3.org/1999/xlink" preserveAspectRatio="xMidYMid meet" viewBox="71.79432624113477 69.66666666666666 14 14" width="14" height="14"><defs><path d="M78.81 69.99L79.62 70.38L80.35 70.89L80.98 71.52L81.49 72.24L81.87 73.05L82.12 73.93L82.2 74.87L82.18 75.3L82.13 75.71L82.05 76.12L81.93 76.51L81.79 76.89L81.62 77.26L81.42 77.61L81.19 77.94L80.94 78.26L81.17 78.47L81.8 78.47L85.79 82.47L84.6 83.67L80.6 79.67L80.6 79.04L80.38 78.82L80.07 79.07L79.74 79.29L79.39 79.49L79.02 79.66L78.64 79.81L78.25 79.92L77.84 80L77.42 80.06L77 80.07L76.06 79.99L75.18 79.75L74.37 79.36L73.65 78.85L73.02 78.22L72.5 77.5L72.12 76.69L71.88 75.8L71.79 74.87L71.88 73.93L72.12 73.05L72.5 72.24L73.02 71.52L73.65 70.89L74.37 70.38L75.18 69.99L76.06 69.75L77 69.67L77.93 69.75L78.81 69.99ZM74.45 72.32L73.68 73.47L73.4 74.87L73.68 76.27L74.45 77.42L75.59 78.19L77 78.47L78.4 78.19L79.55 77.42L80.32 76.27L80.6 74.87L80.32 73.47L79.55 72.32L78.4 71.55L77 71.27L75.59 71.55L74.45 72.32Z" id="dnyMvnnyy"></path></defs><g visibility="inherit"><g visibility="inherit"><use xlink:href="#dnyMvnnyy" opacity="1" fill="#3a3a3a" fill-opacity="1"></use><g><use xlink:href="#dnyMvnnyy" opacity="1" fill-opacity="0" stroke="#000000" stroke-width="1" stroke-opacity="0"></use></g></g></g></svg>