<?xml version="1.0" encoding="UTF-8" standalone="no"?>
<!DOCTYPE svg PUBLIC "-//W3C//DTD SVG 1.1//EN" "http://www.w3.org/Graphics/SVG/1.1/DTD/svg11.dtd">
<svg version="1.1" xmlns="http://www.w3.org/2000/svg" xmlns:xlink="http://www.w3.org/1999/xlink" preserveAspectRatio="xMidYMid meet" viewBox="161.40154589372 271.4347826086956 19.45333333333329 20" width="19.45" height="20"><defs><path d="M173.23 271.44L173.27 271.46L173.32 271.47L173.36 271.49L173.4 271.51L173.44 271.54L173.48 271.57L173.51 271.6L173.54 271.64L173.56 271.68L173.58 271.72L173.6 271.76L173.61 271.81L173.62 271.85L174 274.5L174.12 274.56L174.24 274.61L174.36 274.66L174.48 274.72L174.59 274.78L174.71 274.84L174.82 274.91L174.94 274.97L175.05 275.04L175.16 275.11L175.27 275.18L175.37 275.25L175.48 275.33L175.59 275.41L175.69 275.48L178.18 274.48L178.23 274.47L178.27 274.46L178.32 274.46L178.36 274.45L178.41 274.46L178.46 274.46L178.5 274.48L178.54 274.49L178.59 274.51L178.63 274.53L178.67 274.56L178.7 274.59L178.73 274.62L178.76 274.66L178.79 274.7L180.79 278.16L180.81 278.21L180.83 278.26L180.84 278.3L180.85 278.35L180.85 278.4L180.85 278.44L180.85 278.49L180.84 278.53L180.83 278.58L180.81 278.62L180.79 278.66L180.77 278.7L180.74 278.74L180.71 278.77L180.67 278.8L178.56 280.45L178.57 280.52L178.58 280.58L178.58 280.65L178.59 280.71L178.6 280.78L178.6 280.84L178.61 280.9L178.61 280.97L178.62 281.04L178.62 281.1L178.62 281.17L178.63 281.23L178.63 281.3L178.63 281.37L178.63 281.43L178.63 281.48L178.63 281.53L178.63 281.58L178.63 281.64L178.62 281.69L178.62 281.75L178.62 281.82L178.61 281.88L178.61 281.95L178.6 282.02L178.59 282.09L178.59 282.17L178.58 282.25L178.57 282.33L178.56 282.41L180.67 284.06L180.71 284.1L180.74 284.13L180.77 284.17L180.79 284.21L180.81 284.25L180.83 284.29L180.84 284.34L180.85 284.38L180.85 284.43L180.85 284.47L180.85 284.52L180.84 284.57L180.83 284.61L180.81 284.66L180.79 284.7L178.79 288.16L178.76 288.21L178.74 288.25L178.7 288.28L178.67 288.31L178.63 288.34L178.59 288.36L178.55 288.38L178.5 288.4L178.46 288.41L178.41 288.42L178.37 288.42L178.32 288.42L178.27 288.41L178.23 288.4L178.18 288.38L175.69 287.38L175.59 287.46L175.48 287.54L175.37 287.61L175.27 287.69L175.16 287.76L175.05 287.83L174.94 287.89L174.82 287.96L174.71 288.02L174.59 288.09L174.48 288.15L174.36 288.2L174.24 288.26L174.12 288.31L174 288.36L173.62 291.01L173.61 291.06L173.6 291.11L173.58 291.15L173.56 291.19L173.54 291.23L173.51 291.27L173.48 291.3L173.44 291.33L173.4 291.36L173.36 291.38L173.32 291.4L173.27 291.41L173.23 291.43L173.18 291.43L173.13 291.43L169.13 291.43L169.08 291.43L169.03 291.43L168.99 291.41L168.94 291.4L168.9 291.38L168.86 291.36L168.82 291.33L168.79 291.3L168.75 291.27L168.73 291.23L168.7 291.19L168.68 291.15L168.66 291.11L168.65 291.06L168.64 291.01L168.26 288.36L168.14 288.31L168.02 288.26L167.9 288.21L167.78 288.15L167.67 288.09L167.55 288.03L167.44 287.96L167.33 287.9L167.21 287.83L167.1 287.76L167 287.69L166.89 287.62L166.78 287.54L166.67 287.46L166.57 287.38L164.08 288.38L164.04 288.4L163.99 288.41L163.94 288.41L163.9 288.42L163.85 288.41L163.81 288.41L163.76 288.39L163.72 288.38L163.67 288.36L163.63 288.34L163.59 288.31L163.56 288.28L163.53 288.25L163.5 288.21L163.47 288.16L161.47 284.7L161.45 284.66L161.43 284.61L161.42 284.57L161.41 284.52L161.41 284.47L161.41 284.43L161.41 284.38L161.42 284.34L161.43 284.29L161.45 284.25L161.47 284.21L161.49 284.17L161.52 284.13L161.55 284.1L161.59 284.06L163.7 282.41L163.69 282.35L163.69 282.29L163.68 282.22L163.67 282.16L163.66 282.09L163.66 282.03L163.65 281.96L163.65 281.9L163.64 281.83L163.64 281.76L163.64 281.7L163.63 281.63L163.63 281.57L163.63 281.5L163.63 281.43L163.63 281.37L163.63 281.3L163.63 281.24L163.64 281.17L163.64 281.11L163.64 281.04L163.65 280.97L163.65 280.91L163.66 280.84L163.66 280.78L163.67 280.71L163.68 280.65L163.69 280.58L163.69 280.52L163.7 280.45L161.59 278.8L161.55 278.77L161.52 278.74L161.49 278.7L161.47 278.66L161.45 278.62L161.43 278.58L161.42 278.53L161.41 278.49L161.4 278.44L161.4 278.4L161.41 278.35L161.41 278.3L161.43 278.26L161.45 278.21L161.47 278.16L163.47 274.7L163.5 274.66L163.53 274.62L163.56 274.59L163.59 274.56L163.63 274.53L163.67 274.51L163.71 274.49L163.76 274.47L163.8 274.46L163.85 274.45L163.89 274.45L163.94 274.45L163.99 274.46L164.03 274.47L164.08 274.48L166.57 275.48L166.67 275.41L166.78 275.33L166.89 275.26L167 275.18L167.1 275.11L167.21 275.04L167.33 274.98L167.44 274.91L167.55 274.85L167.67 274.78L167.78 274.72L167.9 274.67L168.02 274.61L168.14 274.56L168.26 274.5L168.64 271.85L168.65 271.81L168.66 271.76L168.68 271.72L168.7 271.68L168.73 271.64L168.75 271.6L168.79 271.57L168.82 271.54L168.86 271.51L168.9 271.49L168.94 271.47L168.99 271.46L169.03 271.44L169.08 271.44L169.13 271.43L173.13 271.43L173.18 271.44L173.23 271.44ZM168.66 278.96L167.91 280.07L167.63 281.43L167.91 282.8L168.66 283.91L169.77 284.66L171.13 284.93L172.49 284.66L173.6 283.91L174.35 282.8L174.63 281.43L174.35 280.07L173.6 278.96L172.49 278.21L171.13 277.93L169.77 278.21L168.66 278.96Z" id="bCzBoVqNn"></path></defs><g visibility="inherit"><g visibility="inherit"><use xlink:href="#bCzBoVqNn" opacity="1" fill="#000000" fill-opacity="1"></use><g><use xlink:href="#bCzBoVqNn" opacity="1" fill-opacity="0" stroke="#000000" stroke-width="1" stroke-opacity="0"></use></g></g></g></svg>