<?xml version="1.0" encoding="UTF-8"?>
<svg width="12px" height="13px" viewBox="0 0 12 13" version="1.1" xmlns="http://www.w3.org/2000/svg" xmlns:xlink="http://www.w3.org/1999/xlink">
    <!-- Generator: Sketch 48.2 (47327) - http://www.bohemiancoding.com/sketch -->
    <title>Untitled</title>
    <desc>Created with Sketch.</desc>
    <defs></defs>
    <g id="Page-1" stroke="none" stroke-width="1" fill="none" fill-rule="evenodd">
        <g id="share" fill="#e5edf1" fill-rule="nonzero">
            <path d="M10,9.189 C9.493,9.189 9.04,9.385 8.693,9.692 L3.94,6.983 C3.973,6.833 4,6.683 4,6.526 C4,6.369 3.973,6.219 3.94,6.069 L8.64,3.387 C9,3.713 9.473,3.916 10,3.916 C11.107,3.916 12,3.042 12,1.958 C12,0.874 11.107,0 10,0 C8.893,0 8,0.874 8,1.958 C8,2.115 8.027,2.265 8.06,2.415 L3.36,5.097 C3,4.771 2.527,4.568 2,4.568 C0.893,4.568 0,5.442 0,6.526 C0,7.61 0.893,8.484 2,8.484 C2.527,8.484 3,8.282 3.36,7.955 L8.107,10.67 C8.074,10.807 8.054,10.951 8.054,11.094 C8.053,12.145 8.927,13 10,13 C11.073,13 11.947,12.145 11.947,11.094 C11.947,10.043 11.073,9.189 10,9.189 Z" id="Shape"></path>
        </g>
    </g>
</svg>