<svg xmlns="http://www.w3.org/2000/svg" width="13" height="14"><path d="M10.338 9.31c-.507 0-.96.196-1.307.503l-4.753-2.71c.033-.15.06-.3.06-.457s-.027-.307-.06-.457l4.7-2.682c.36.326.833.53 1.36.53 1.107 0 2-.874 2-1.958s-.893-1.958-2-1.958-2 .874-2 1.958a2.11 2.11 0 0 0 .06.457l-4.7 2.682c-.36-.326-.833-.53-1.36-.53-1.107 0-2 .874-2 1.958s.893 1.958 2 1.958a2.01 2.01 0 0 0 1.36-.529L8.445 10.8c-.033.137-.053.28-.053.424-.001 1.05.873 1.906 1.946 1.906s1.947-.855 1.947-1.906-.874-1.905-1.947-1.905z" fill="#ECF2F5" fill-rule="nonzero"/></svg>