<svg xmlns="http://www.w3.org/2000/svg" width="12" height="13"><path d="M10 9.189c-.507 0-.96.196-1.307.503L3.94 6.983c.033-.15.06-.3.06-.457s-.027-.307-.06-.457l4.7-2.682c.36.326.833.529 1.36.529 1.107 0 2-.874 2-1.958S11.107 0 10 0 8 .874 8 1.958c0 .157.027.307.06.457l-4.7 2.682C3 4.771 2.527 4.568 2 4.568c-1.107 0-2 .874-2 1.958s.893 1.958 2 1.958c.527 0 1-.202 1.36-.529l4.747 2.715c-.033.137-.053.281-.053.424C8.053 12.145 8.927 13 10 13s1.947-.855 1.947-1.906S11.073 9.189 10 9.189z" fill="#fff" fill-rule="nonzero"/></svg>