<?xml version="1.0" encoding="UTF-8"?>
<svg width="18px" height="16px" viewBox="0 0 18 16" version="1.1" xmlns="http://www.w3.org/2000/svg" xmlns:xlink="http://www.w3.org/1999/xlink">
    <!-- Generator: Sketch 48.2 (47327) - http://www.bohemiancoding.com/sketch -->
    <title>Untitled</title>
    <desc>Created with Sketch.</desc>
    <defs></defs>
    <g id="Page-1" stroke="none" stroke-width="1" fill="none" fill-rule="evenodd">
        <g id="sign-out" transform="translate(0.228770, 0.039232)" fill="#586D77" fill-rule="nonzero">
            <path d="M11.9035472,10.9298026 L13.117991,12.1442464 L17.42453,7.83770743 L13.117991,3.53116848 L11.9035472,4.74561229 L14.1257212,6.97639964 L5.79687482,6.97639964 L5.79687482,8.69901522 L14.1257212,8.69901522 L11.9035472,10.9298026 Z M2.54462619,0.08593735 L14.6029353,0.08593735 C14.9006699,0.08593735 15.4748751,0.08593735 16.3255509,0.08593735 C16.3255509,0.897774393 16.3255509,1.47197959 16.3255509,1.80855293 L14.6029353,1.80855293 L2.54462619,1.80855293 L2.54462619,13.866862 L14.6029353,13.866862 L16.3255509,13.866862 C16.3255509,14.2035669 16.3255509,14.7777721 16.3255509,15.5894775 C15.4747424,15.5894775 14.9005372,15.5894775 14.6029353,15.5894775 L2.54462619,15.5894775 C1.59718769,15.5894775 0.82201069,14.8143005 0.82201069,13.866862 L0.82201069,1.80855293 C0.82201069,0.861114447 1.59718769,0.08593735 2.54462619,0.08593735 Z" id="Fill-3"></path>
        </g>
    </g>
</svg>