<?xml version="1.0" encoding="UTF-8"?>
<svg width="17px" height="16px" viewBox="0 0 17 16" version="1.1" xmlns="http://www.w3.org/2000/svg" xmlns:xlink="http://www.w3.org/1999/xlink">
    <!-- Generator: Sketch 48.2 (47327) - http://www.bohemiancoding.com/sketch -->
    <title>Untitled</title>
    <desc>Created with Sketch.</desc>
    <defs></defs>
    <g id="Page-1" stroke="none" stroke-width="1" fill="none" fill-rule="evenodd">
        <path d="M6.90354722,10.9298026 L8.11799103,12.1442464 L12.42453,7.83770743 L8.11799103,3.53116848 L6.90354722,4.74561229 L9.12572123,6.97639964 L0.79687482,6.97639964 L0.79687482,8.69901522 L9.12572123,8.69901522 L6.90354722,10.9298026 Z M14.5777995,0.08593732 L2.5194904,0.08593732 C1.56343867,0.08593732 0.79687482,0.861114417 0.79687482,1.8085529 L0.79687482,5.25378406 L2.5194904,5.25378406 L2.5194904,1.8085529 L14.5777995,1.8085529 L14.5777995,13.866862 L2.5194904,13.866862 L2.5194904,10.4216308 L0.79687482,10.4216308 L0.79687482,13.866862 C0.79687482,14.8143005 1.56343867,15.5894775 2.5194904,15.5894775 L14.5777995,15.5894775 C15.525238,15.5894775 16.300415,14.8143005 16.300415,13.866862 L16.300415,1.8085529 C16.300415,0.861114417 15.525238,0.08593732 14.5777995,0.08593732 Z" id="Fill-3" fill="#586D77"></path>
    </g>
</svg>