<?xml version="1.0" encoding="UTF-8"?>
<svg width="469px" height="60px" viewBox="0 0 469 60" version="1.1" xmlns="http://www.w3.org/2000/svg" xmlns:xlink="http://www.w3.org/1999/xlink">
    <!-- Generator: Sketch 48.2 (47327) - http://www.bohemiancoding.com/sketch -->
    <title>Untitled</title>
    <desc>Created with Sketch.</desc>
    <defs></defs>
    <g id="Page-1" stroke="none" stroke-width="1" fill="none" fill-rule="evenodd">
        <path d="M27.9171869,0.94921875 L5.01068171,0.94921875 C2.24925796,0.94921875 0.0106817104,3.187795 0.0106817104,5.94921875 L0.0106817104,54.9836742 C0.0106817104,57.7450979 2.24925796,59.9836742 5.01068171,59.9836742 L43.0384854,59.9836742 C45.7999092,59.9836742 48.0384854,57.7450979 48.0384854,54.9836742 L48.0384854,21.4784647 C48.0384854,20.1754261 47.5298023,18.9238644 46.6207587,17.9902963 L31.4994602,2.46105043 C30.558243,1.49444073 29.2663438,0.94921875 27.9171869,0.94921875 Z" id="Path" fill="#2E3D45"></path>
        <path d="M87.9171869,0.94921875 L65.0106817,0.94921875 C62.249258,0.94921875 60.0106817,3.187795 60.0106817,5.94921875 L60.0106817,54.9836742 C60.0106817,57.7450979 62.249258,59.9836742 65.0106817,59.9836742 L103.038485,59.9836742 C105.799909,59.9836742 108.038485,57.7450979 108.038485,54.9836742 L108.038485,21.4784647 C108.038485,20.1754261 107.529802,18.9238644 106.620759,17.9902963 L91.4994602,2.46105043 C90.558243,1.49444073 89.2663438,0.94921875 87.9171869,0.94921875 Z" id="Path" fill="#2E3D45"></path>
        <path d="M147.917187,0.94921875 L125.010682,0.94921875 C122.249258,0.94921875 120.010682,3.187795 120.010682,5.94921875 L120.010682,54.9836742 C120.010682,57.7450979 122.249258,59.9836742 125.010682,59.9836742 L163.038485,59.9836742 C165.799909,59.9836742 168.038485,57.7450979 168.038485,54.9836742 L168.038485,21.4784647 C168.038485,20.1754261 167.529802,18.9238644 166.620759,17.9902963 L151.49946,2.46105043 C150.558243,1.49444073 149.266344,0.94921875 147.917187,0.94921875 Z" id="Path" fill="#2E3D45"></path>
        <path d="M207.917187,0.94921875 L185.010682,0.94921875 C182.249258,0.94921875 180.010682,3.187795 180.010682,5.94921875 L180.010682,54.9836742 C180.010682,57.7450979 182.249258,59.9836742 185.010682,59.9836742 L223.038485,59.9836742 C225.799909,59.9836742 228.038485,57.7450979 228.038485,54.9836742 L228.038485,21.4784647 C228.038485,20.1754261 227.529802,18.9238644 226.620759,17.9902963 L211.49946,2.46105043 C210.558243,1.49444073 209.266344,0.94921875 207.917187,0.94921875 Z" id="Path" fill="#2E3D45"></path>
        <path d="M267.917187,0.94921875 L245.010682,0.94921875 C242.249258,0.94921875 240.010682,3.187795 240.010682,5.94921875 L240.010682,54.9836742 C240.010682,57.7450979 242.249258,59.9836742 245.010682,59.9836742 L283.038485,59.9836742 C285.799909,59.9836742 288.038485,57.7450979 288.038485,54.9836742 L288.038485,21.4784647 C288.038485,20.1754261 287.529802,18.9238644 286.620759,17.9902963 L271.49946,2.46105043 C270.558243,1.49444073 269.266344,0.94921875 267.917187,0.94921875 Z" id="Path" fill="#2E3D45"></path>
        <path d="M327.917187,0.94921875 L305.010682,0.94921875 C302.249258,0.94921875 300.010682,3.187795 300.010682,5.94921875 L300.010682,54.9836742 C300.010682,57.7450979 302.249258,59.9836742 305.010682,59.9836742 L343.038485,59.9836742 C345.799909,59.9836742 348.038485,57.7450979 348.038485,54.9836742 L348.038485,21.4784647 C348.038485,20.1754261 347.529802,18.9238644 346.620759,17.9902963 L331.49946,2.46105043 C330.558243,1.49444073 329.266344,0.94921875 327.917187,0.94921875 Z" id="Path" fill="#2E3D45"></path>
        <path d="M387.917187,0.94921875 L365.010682,0.94921875 C362.249258,0.94921875 360.010682,3.187795 360.010682,5.94921875 L360.010682,54.9836742 C360.010682,57.7450979 362.249258,59.9836742 365.010682,59.9836742 L403.038485,59.9836742 C405.799909,59.9836742 408.038485,57.7450979 408.038485,54.9836742 L408.038485,21.4784647 C408.038485,20.1754261 407.529802,18.9238644 406.620759,17.9902963 L391.49946,2.46105043 C390.558243,1.49444073 389.266344,0.94921875 387.917187,0.94921875 Z" id="Path" fill="#2E3D45"></path>
        <path d="M447.917187,0.94921875 L425.010682,0.94921875 C422.249258,0.94921875 420.010682,3.187795 420.010682,5.94921875 L420.010682,54.9836742 C420.010682,57.7450979 422.249258,59.9836742 425.010682,59.9836742 L463.038485,59.9836742 C465.799909,59.9836742 468.038485,57.7450979 468.038485,54.9836742 L468.038485,21.4784647 C468.038485,20.1754261 467.529802,18.9238644 466.620759,17.9902963 L451.49946,2.46105043 C450.558243,1.49444073 449.266344,0.94921875 447.917187,0.94921875 Z" id="Path" fill="#2E3D45"></path>
        <g id="excel" transform="translate(434.000000, 28.000000)" fill="#617A8B" fill-rule="nonzero">
            <rect id="Rectangle-2" x="0" y="0" width="5" height="3.09259835"></rect>
            <rect id="Rectangle-2" x="0" y="5.15433056" width="5" height="3.09259835"></rect>
            <rect id="Rectangle-2" x="0" y="10.3086611" width="5" height="3.09259835"></rect>
            <rect id="Rectangle-2" x="6.99999999" y="0" width="5" height="3.09259835"></rect>
            <rect id="Rectangle-2" x="6.99999999" y="5.15433056" width="5" height="3.09259835"></rect>
            <rect id="Rectangle-2" x="6.99999999" y="10.3086611" width="5" height="3.09259835"></rect>
            <rect id="Rectangle-2" x="14" y="0" width="5" height="3.09259835"></rect>
            <rect id="Rectangle-2" x="14" y="5.15433056" width="5" height="3.09259835"></rect>
            <rect id="Rectangle-2" x="14" y="10.3086611" width="5" height="3.09259835"></rect>
        </g>
        <g id="folder" transform="translate(14.000000, 25.000000)" fill="#617A8B" fill-rule="nonzero">
            <path d="M7.99999996,0 L2,0 C0.900000087,0 0.00999998996,0.900000093 0.00999998996,2.00000001 L0,14 C0,15.1000003 0.900000087,16 2,16 L18,16 C19.1000002,16 20,15.1000003 20,14 L20,4.00000001 C20,2.90000009 19.1000002,2.00000001 18,2.00000001 L9.99999996,2.00000001 L7.99999996,0 Z" id="Shape"></path>
        </g>
        <g id="image" transform="translate(72.000000, 24.000000)" fill="#617A8B" fill-rule="nonzero">
            <path d="M13.590909,-3.76363638e-07 L9.6704545,5.22727238 L12.6500002,9.19999976 L10.9772726,10.4545451 C9.21045494,8.10227239 6.27272722,4.18181782 6.27272722,4.18181782 L-6.27273216e-08,12.5454541 L22.9999999,12.5454541 L13.590909,-3.76363638e-07 Z" id="Shape"></path>
        </g>
        <g id="pdf" transform="translate(135.000000, 22.500000)" fill="#617A8B" fill-rule="nonzero">
            <path d="M12.9434813,11.7078193 C11.5243518,10.2886898 9.92783089,8.15999533 8.50870126,6.2086921 C8.86348367,4.61217127 9.04087488,3.37043286 9.04087488,2.66086804 C9.04087488,-0.886956014 4.78348601,-0.886956014 4.78348601,2.66086804 C4.78348601,3.37043286 5.49305082,4.61217127 6.73478924,6.5634745 C6.20261563,9.04695135 5.49305082,12.0626018 4.6060948,14.5460787 C2.83218278,15.2556434 1.59044436,16.1425995 0.880879547,16.6747731 C-0.00607646688,17.5617291 -0.183467669,18.6260763 0.171314736,19.5130323 C0.526097141,20.3999883 1.41305316,20.932162 2.30000917,20.932162 C2.83218278,20.932162 3.36435639,20.7547707 3.71913879,20.3999883 C3.89652999,20.2225971 4.6060948,19.5130323 5.84783322,15.6104258 C8.15391886,14.7234698 10.6373957,13.8365138 12.4113077,13.3043402 C14.0078286,14.7234698 15.249567,15.4330347 16.4913054,15.4330347 C17.7330438,15.4330347 18.6199998,14.5460787 18.6199998,13.4817314 C18.6199998,12.7721666 18.2652175,12.239993 17.5556526,11.7078193 C16.8460878,11.353037 15.9591318,11.1756458 14.7173934,11.1756458 C14.362611,11.353037 13.8304373,11.353037 12.9434813,11.7078193 Z M2.47740038,19.1582499 C2.30000917,19.3356411 2.30000917,19.3356411 2.30000917,19.3356411 C2.12261797,19.3356411 1.94522676,19.1582499 1.76783556,18.8034675 C1.59044436,18.6260763 1.59044436,18.0939027 2.12261797,17.7391203 C2.30000917,17.5617291 2.83218278,17.2069466 3.89652999,16.6747731 C3.18696518,18.2712939 2.65479157,18.9808587 2.47740038,19.1582499 Z M6.38000684,2.48347683 C6.38000684,1.77391203 6.73478924,1.41912963 6.73478924,1.41912963 C6.73478924,1.41912963 7.08957165,1.77391203 7.08957165,2.48347683 C7.08957165,2.83825924 7.08957165,3.37043286 6.91218044,4.07999767 C6.55739803,3.19304165 6.38000684,2.66086804 6.38000684,2.48347683 Z M6.55739803,13.6591226 C7.08957165,11.8852106 7.62174525,10.1112986 7.97652766,8.33738654 C9.04087488,9.75651615 10.1052221,10.9982546 11.1695693,12.0626018 C9.75043969,12.5947754 8.15391886,12.9495579 6.55739803,13.6591226 Z M17.023479,13.6591226 C17.023479,13.8365138 16.8460878,14.013905 16.4913054,14.013905 C16.3139142,14.013905 15.6043494,13.8365138 14.5400021,12.9495579 C14.7173934,12.9495579 14.7173934,12.9495579 14.8947846,12.9495579 C15.9591318,12.9495579 16.6686966,13.126949 16.8460878,13.3043402 C16.8460878,13.4817314 17.023479,13.6591226 17.023479,13.6591226 Z" id="Shape"></path>
        </g>
        <g id="video" transform="translate(196.000000, 24.000000)" fill="#617A8B" fill-rule="nonzero">
            <path d="M13.1249998,-1.68750002e-07 L13.1249998,1.87499983 L11.2499998,1.87499983 L11.2499998,-1.68750002e-07 L3.74999978,-1.68750002e-07 L3.74999978,1.87499983 L1.87499978,1.87499983 L1.87499978,-1.68750002e-07 L-2.25000019e-07,-1.68750002e-07 L-2.25000019e-07,16.8749998 L1.87499978,16.8749998 L1.87499978,14.9999998 L3.74999978,14.9999998 L3.74999978,16.8749998 L11.2499998,16.8749998 L11.2499998,14.9999998 L13.1249998,14.9999998 L13.1249998,16.8749998 L14.9999998,16.8749998 L14.9999998,-1.68750002e-07 L13.1249998,-1.68750002e-07 Z M3.74999955,13.1249991 L1.87499967,13.1249991 L1.87499967,11.2499992 L3.74999955,11.2499992 L3.74999955,13.1249991 Z M3.74999955,9.37499927 L1.87499967,9.37499927 L1.87499967,7.49999938 L3.74999955,7.49999938 L3.74999955,9.37499927 Z M3.74999955,5.62499949 L1.87499967,5.62499949 L1.87499967,3.74999961 L3.74999955,3.74999961 L3.74999955,5.62499949 Z M13.124999,13.1249991 L11.2499991,13.1249991 L11.2499991,11.2499992 L13.124999,11.2499992 L13.124999,13.1249991 Z M13.124999,9.37499927 L11.2499991,9.37499927 L11.2499991,7.49999938 L13.124999,7.49999938 L13.124999,9.37499927 Z M13.124999,5.62499949 L11.2499991,5.62499949 L11.2499991,3.74999961 L13.124999,3.74999961 L13.124999,5.62499949 Z" id="Shape"></path>
        </g>
        <g id="audio" transform="translate(253.000000, 25.000000)" fill="#617A8B" fill-rule="nonzero">
            <path d="M16.6899956,0.302885892 C16.4835716,0.100936704 16.2326065,0 15.9375267,0 C15.8194481,0 15.7159842,0.0145115457 15.6276386,0.0433073022 L6.41930364,2.81258763 C6.19803256,2.88469069 6.01719345,3.01271813 5.87698015,3.1965942 C5.73684439,3.38058392 5.66671835,3.58427601 5.66671835,3.80789779 L5.66671835,14.2686004 C5.02469108,13.9872357 4.31641429,13.8465532 3.54169413,13.8465532 C3.20970997,13.8465532 2.8536527,13.8844045 2.47371613,13.9599933 C2.09358575,14.0355821 1.71171093,14.1509926 1.32813045,14.3060728 C0.944356146,14.4611532 0.627141486,14.6793946 0.376215114,14.9604564 C0.125366273,15.2417075 0,15.5628561 0,15.9233335 C0,16.2840761 0.125366273,16.6048457 0.376215114,16.8862105 C0.627141486,17.1673102 0.944317382,17.3855517 1.32813045,17.540594 C1.71186599,17.6956744 2.09374081,17.810971 2.47371613,17.8866736 C2.8536527,17.9622625 3.20970997,18 3.54169413,18 C3.87367828,18 4.22961926,17.9622625 4.60967212,17.8866736 C4.9898025,17.810971 5.37152225,17.6956744 5.7552578,17.540594 C6.13887704,17.3855137 6.4560917,17.1672722 6.70694055,16.8862105 C6.95802198,16.6048457 7.08334949,16.2840381 7.08334949,15.9233335 L7.08334949,8.25381104 L15.5834076,5.69004149 L15.5834076,11.4990929 C14.9412253,11.2178795 14.2330648,11.0770455 13.4583446,11.0770455 C13.1263217,11.0770455 12.7702257,11.1147831 12.3902891,11.1904856 C12.0101975,11.2660745 11.6285553,11.3814848 11.2447422,11.5365651 C10.861123,11.6916454 10.543792,11.909887 10.2927493,12.1912139 C10.0420168,12.4722 9.91626286,12.7932726 9.91626286,13.1538259 C9.91626286,13.5145685 10.0420168,13.8353381 10.2927493,14.1167028 C10.543792,14.3979541 10.8610842,14.6161956 11.2447422,14.7710864 C11.6284002,14.9261668 12.0101975,15.041577 12.3902891,15.1173175 C12.7702257,15.1930201 13.126283,15.230606 13.4583446,15.230606 C13.7902513,15.230606 14.1463085,15.1930201 14.5262451,15.1173175 C14.9062204,15.041577 15.2879788,14.9261668 15.6719083,14.7710864 C16.0555662,14.6161576 16.3726259,14.3979161 16.6236297,14.1167028 C16.8747888,13.8353381 17,13.5145305 17,13.1538259 L17,1.03820069 C16.9998837,0.749788454 16.8969236,0.504721411 16.6899956,0.302885892 Z" id="Shape"></path>
        </g>
        <g id="code" transform="translate(313.000000, 27.000000)" fill="#617A8B" fill-rule="nonzero">
            <polygon id="Shape" transform="translate(17.091428, 6.857142) scale(-1, 1) translate(-17.091428, -6.857142) " points="21.3257133 1.61142788 19.7142851 -4.11428573e-07 12.8571425 6.85714204 19.7142851 13.7142845 21.3257133 12.1028561 16.091428 6.85714204"></polygon>
            <polygon id="Shape" points="8.46857015 1.61142788 6.8571419 -4.11428573e-07 -5.48571475e-07 6.85714204 6.8571419 13.7142845 8.46857015 12.1028561 3.23428485 6.85714204"></polygon>
        </g>
        <g id="presentation" transform="translate(374.464844, 23.500000)" fill="#617A8B" fill-rule="nonzero">
            <path d="M8.16304337,0.383534587 L8.16304337,17.4406771 C3.83905758,17.0142486 0.48732923,13.3554907 0.48732923,8.91210585 C0.48732923,4.468721 3.83905799,0.809963151 8.16304337,0.383534587 Z M9.89434308,0.383534587 L9.89434308,8.05071991 L17.5444718,8.05071991 C17.1436294,4.00817738 13.9283578,0.784376849 9.89434308,0.383534587 Z M9.89434308,9.77349173 L9.89434308,17.4406771 C13.9368865,17.0398348 17.1436278,13.8160343 17.5444718,9.77349173 L9.89434308,9.77349173 Z" id="Shape"></path>
        </g>
    </g>
</svg>