<svg width="92" height="187" xmlns="http://www.w3.org/2000/svg"><path d="M91.49 45.551a8349.959 8349.959 0 0 0-14.16-23.32c-2.46-4-5-8-7.45-12-.31-.5-.7-.94-1-1.4-4.53-6.9-13.44-11.51-22.15-7.13a15.57 15.57 0 0 0-7.16 21c1.51 2.94 4 5.42 6.34 7.88 7.12 7.56 14.47 14.91 21.54 22.53a22.24 22.24 0 0 1-7.8 35.71 2.12 2.12 0 0 1-.47 0v-35.23a114.84 114.84 0 0 0-33.17 25.7c-14.69 16.38-23.37 36.85-26 51.78l23.95-12.25c8-4.05 15.9-8 24.18-12.24v68.34l11 11.21v-85.3s.25-.12 1.08-.57a91.61 91.61 0 0 0 9.67-5.35 32.69 32.69 0 0 0 4.8-49.44c-8.2-8.58-16.45-17.12-24.64-25.71-2.38-2.5-2.33-5.66 0-7.88 2.33-2.22 5.51-2 7.91.45l3.42 3.45c2.72 2.9 5.41 5.83 8.15 8.7a7134.178 7134.178 0 0 0 20.82 21.73c.35.36.77.66 1.15 1l.43-.26a6.68 6.68 0 0 0-.44-1.4zm-43.38 48.38a2 2 0 0 1-1 1.34c-4.39 2.33-8.82 4.6-13.24 6.87l-16.11 8.26a104.19 104.19 0 0 1 30.2-37.42c.12.24.2.32.2.4-.01 6.85.01 13.7-.05 20.55z" fill="#C72C48"/></svg>