<?xml version="1.0" encoding="UTF-8"?>
<svg width="301px" height="579px" viewBox="0 0 301 579" version="1.1" xmlns="http://www.w3.org/2000/svg" xmlns:xlink="http://www.w3.org/1999/xlink">
    <!-- Generator: Sketch 48.2 (47327) - http://www.bohemiancoding.com/sketch -->
    <title>Untitled</title>
    <desc>Created with Sketch.</desc>
    <defs></defs>
    <g id="Page-1" stroke="none" stroke-width="1" fill="none" fill-rule="evenodd">
        <g id="logo" fill-rule="nonzero">
            <path d="M225.096,28.504 C225.096,28.504 281.83,119.881 300.792,152.357 C301.098,152.886 300.968,153.585 300.512,154.041 C299.937,154.611 299.071,154.678 298.501,154.103 L200.745,51.864 L225.096,28.504 Z" id="Shape" fill="#F15A29"></path>
            <path d="M57.967,361.475 C74.56,326.371 96.942,294.61 124.641,266.911 C135.176,256.381 146.297,246.623 157.962,237.658 L157.962,310.006 L57.967,361.475 Z M0.233,428.293 L157.962,347.996 L157.962,531.553 L193.506,578.244 L193.506,329.713 L215.095,318.608 C225.04,313.612 234.367,306.964 242.664,298.662 C283.779,257.552 284.432,191.195 244.488,149.369 L163.004,64.475 C159.755,61.003 158.05,56.458 158.2,51.68 C158.35,46.871 160.361,42.404 163.859,39.108 C171.073,32.325 182.567,32.781 189.35,39.989 L200.746,51.867 L225.097,28.506 C196.326,-8.811 161.123,-4.126 140.732,14.54 C130.679,24.003 124.906,36.818 124.47,50.623 C124.035,64.449 129.015,77.601 138.483,87.66 L138.592,87.779 L220.501,173.103 C247.438,201.771 246.899,246.861 218.879,274.875 C214.51,279.244 209.722,282.944 204.649,285.98 L193.507,291.711 L193.507,175.746 C159.429,193.308 128.352,215.871 100.954,243.275 C66.83,277.394 40.038,317.136 21.32,361.392 C12.136,383.1 5.099,405.456 0.233,428.293 Z" id="Shape" fill="#000000"></path>
        </g>
    </g>
</svg>