<?xml version="1.0" encoding="UTF-8"?>
<!DOCTYPE svg PUBLIC "-//W3C//DTD SVG 1.1//EN" "http://www.w3.org/Graphics/SVG/1.1/DTD/svg11.dtd">
<!-- Creator: CorelDRAW X6 -->
<svg xmlns="http://www.w3.org/2000/svg" xml:space="preserve" width="44.7691mm" height="28.7077mm" version="1.1" style="shape-rendering:geometricPrecision; text-rendering:geometricPrecision; image-rendering:optimizeQuality; fill-rule:evenodd; clip-rule:evenodd"
viewBox="0 0 1783 1144"
 xmlns:xlink="http://www.w3.org/1999/xlink">
 <defs>
  <style type="text/css">
   <![CDATA[
    .fil0 {fill:#008FD7}
    .fil2 {fill:#00A2E9}
    .fil3 {fill:#E62129}
    .fil1 {fill:url(#id0)}
   ]]>
  </style>
  <linearGradient id="id0" gradientUnits="userSpaceOnUse" x1="84.3183" y1="557.232" x2="1627.83" y2="557.232">
   <stop offset="0" style="stop-color:#0084CD"/>
   <stop offset="0.478431" style="stop-color:#FEFEFE"/>
   <stop offset="1" style="stop-color:#2DAFE6"/>
  </linearGradient>
 </defs>
 <g id="图层_x0020_1">
  <metadata id="CorelCorpID_0Corel-Layer"/>
  <path class="fil0" d="M1783 1127c-207,-173 -492,-336 -854,-173 -388,242 -621,224 -768,104 -311,-285 -155,-759 311,-733 121,-474 673,-388 802,0 345,-26 535,241 440,578 -17,-380 -224,-509 -492,-475 -95,-293 -337,-354 -500,-259 -95,52 -155,147 -181,267 -354,-52 -604,276 -285,552 86,69 181,69 302,34 181,-60 371,-198 595,-207 86,0 164,9 233,26 207,60 345,207 397,285z"/>
  <path class="fil1" d="M1775 1109c-129,-155 -259,-224 -388,-267 -129,-34 -242,-26 -362,0 -181,35 -336,138 -466,181 -121,35 -224,35 -302,-34 -319,-259 -69,-613 285,-552 95,-431 569,-397 682,-9 267,-43 474,95 492,475 -103,-397 -345,-431 -561,-362 -52,-397 -578,-354 -544,17 -362,-147 -526,233 -259,371 164,86 431,-138 768,-198 267,-43 500,190 656,380z"/>
  <polygon class="fil2" points="658,593 778,524 870,595 752,665 "/>
  <polygon class="fil2" points="881,595 987,532 1103,601 996,665 "/>
  <polygon class="fil3" points="757,670 876,737 992,669 875,600 "/>
 </g>
</svg>
