<?xml version="1.0" encoding="UTF-8" standalone="no"?>
<svg id="svg3092" xmlns:rdf="http://www.w3.org/1999/02/22-rdf-syntax-ns#" xmlns="http://www.w3.org/2000/svg" width="137" version="1.1" xmlns:cc="http://creativecommons.org/ns#" height="218.15" viewbox="0 0 160 256" xmlns:dc="http://purl.org/dc/elements/1.1/">
 <metadata id="metadata3097">
  <rdf:RDF>
   <cc:Work rdf:about="">
    <dc:format>image/svg+xml</dc:format>
    <dc:type rdf:resource="http://purl.org/dc/dcmitype/StillImage"/>
    <dc:title/>
   </cc:Work>
  </rdf:RDF>
 </metadata>
 <g id="layer1" transform="translate(1 -982.85)">
  <g id="g4144" transform="matrix(1.0113 0 0 1.0113 5.4604 -13.224)">
   <g id="g4140">
    <g id="minio" style="image-rendering:auto" transform="translate(-739.32 295.23)">
     <title id="title3337">Minio Logo</title>
     <path id="path48" d="m803.43 801.81c12.408 4.1707 27.05 9.1166 37.952 12.809-12.013-21.207-27.843-34.117-37.952-40.786v27.977zm0 93.721-14.223 8.9622v-92.459c-1.5298-0.5139-2.9795-0.9981-4.334-1.4526-19.986-6.6719-32.721-17.957-35.852-31.779-2.5458-11.214 1.5506-23.022 11.247-32.397 8.8493-8.5522 21.228-18.4 31.173-26.316 3.6033-2.8666 6.7313-5.3173 9.2028-7.3967 2.3141-1.9398 1.616-4.9549 0.57033-6.2144-1.7407-2.0913-4.6192-1.7467-6.562-0.32379-0.10398 0.0802-5.656 4.4083-5.656 4.4083l-8.582-11.57s5.6084-4.141 5.8223-4.3014c8.3978-6.155 19.54-4.9876 25.924 2.7151 3.1904 3.8409 4.6846 8.6978 4.2093 13.671-0.47232 4.9549-2.8458 9.4315-6.6808 12.592-2.5844 2.1299-5.7391 4.643-9.3929 7.5452-9.7078 7.7264-21.789 17.339-30.142 25.419-6.1253 5.9233-8.7067 12.678-7.269 19.023 1.9873 8.7542 11.333 16.341 26.322 21.379v-46.225c40.296 13.623 68.762 61.223 78.206 87.64 0 0-41.763-14.158-63.983-21.641v78.72" fill="#4d4d4d"/>
     <path id="path50" d="m803.43 826.13-14.223-4.7826v-9.3097l14.223 4.7767v9.3157" fill="#000000"/>
     <path id="path52" d="m734.76 745.06c-0.23469 0.16636-0.54956 0.14853-0.73077-0.0743-0.17823-0.22576-0.13063-0.53766 0.0802-0.73373 4.9311-4.5152 24.457-23.868 46.308-45.262l8.5819 11.57s-53.541 34.013-54.239 34.5" fill="#f15a24"/>
    </g>
   </g>
  </g>
 </g>
</svg>
