<?xml version="1.0" encoding="UTF-8"?>
<svg width="302px" height="579px" viewBox="0 0 302 579" version="1.1" xmlns="http://www.w3.org/2000/svg" xmlns:xlink="http://www.w3.org/1999/xlink">
    <!-- Generator: Sketch 48.2 (47327) - http://www.bohemiancoding.com/sketch -->
    <title>Untitled 2</title>
    <desc>Created with Sketch.</desc>
    <defs></defs>
    <g id="Page-1" stroke="none" stroke-width="1" fill="none" fill-rule="evenodd">
        <g id="Minio_Logo_White" fill-rule="nonzero">
            <g id="Group">
                <path d="M225.835,28.882 C225.835,28.882 282.569,120.259 301.531,152.735 C301.837,153.264 301.707,153.963 301.251,154.419 C300.676,154.994 299.81,155.056 299.24,154.481 L201.484,52.243 L225.835,28.882 Z" id="Shape" fill="#F15A29"></path>
                <path d="M58.706,361.854 C75.299,326.75 97.681,294.989 125.38,267.29 C135.915,256.76 147.036,247.002 158.701,238.037 L158.701,310.385 L58.706,361.854 Z M0.971,428.672 L158.7,348.375 L158.7,531.932 L194.244,578.623 L194.244,330.092 L215.833,318.987 C225.778,313.991 235.105,307.343 243.402,299.041 C284.517,257.931 285.17,191.574 245.226,149.749 L163.742,64.855 C160.493,61.383 158.788,56.838 158.938,52.06 C159.088,47.251 161.099,42.784 164.597,39.488 C171.811,32.704 183.305,33.161 190.088,40.369 L201.484,52.247 L225.835,28.881 C197.064,-8.431 161.861,-3.746 141.47,14.92 C131.417,24.383 125.644,37.198 125.208,51.003 C124.773,64.829 129.753,77.981 139.221,88.04 L139.33,88.159 L221.239,173.483 C248.176,202.151 247.637,247.235 219.617,275.255 C215.248,279.623 210.46,283.324 205.387,286.36 L194.245,292.091 L194.245,176.126 C160.167,193.688 129.09,216.251 101.692,243.655 C67.568,277.774 40.776,317.516 22.058,361.772 C12.875,383.479 5.837,405.829 0.971,428.672 Z" id="Shape" fill="#FFFFFF"></path>
                <polygon id="Shape" fill="#BCBEC0" points="194.246 330.09 194.246 367.609 158.701 385.648 158.701 348.373"></polygon>
            </g>
        </g>
    </g>
</svg>