<?xml version="1.0" encoding="utf-8"?>
<!-- Generator: Adobe Illustrator 21.0.0, SVG Export Plug-In . SVG Version: 6.00 Build 0)  -->
<svg version="1.1" id="Layer_1" xmlns="http://www.w3.org/2000/svg" xmlns:xlink="http://www.w3.org/1999/xlink" x="0px" y="0px"
	 viewBox="0 0 93 187" style="enable-background:new 0 0 93 187;" xml:space="preserve">
<style type="text/css">
	.st0{fill:#333333;}
	.st1{fill:url(#SVGID_1_);}
	.st2{fill:url(#SVGID_2_);}
	.st3{fill:#FFFFFF;}
</style>
<g>
	<g>
		<path class="st0" d="M36.4,163.5h-2.6l-0.6-2.7c-1.1,1.2-2.1,2.1-3.2,2.5c-1.1,0.5-2.3,0.7-3.7,0.7c-1.7,0-3.2-0.3-4.6-0.9
			c-1.4-0.6-2.5-1.5-3.4-2.6c-0.9-1.1-1.7-2.3-2.2-3.8c-0.5-1.4-0.7-3-0.7-4.6c0-1.6,0.2-3.1,0.7-4.6c0.5-1.4,1.2-2.7,2.2-3.8
			c0.9-1.1,2.1-1.9,3.4-2.6c1.3-0.6,2.9-1,4.6-1c1.2,0,2.4,0.2,3.5,0.5c1.1,0.3,2.1,0.8,3,1.5c0.9,0.6,1.6,1.5,2.2,2.4
			c0.6,1,0.9,2.1,1.1,3.4h-3.9c-0.1-0.7-0.3-1.4-0.7-2c-0.4-0.6-0.8-1-1.3-1.4c-0.5-0.4-1.1-0.7-1.8-0.9c-0.7-0.2-1.4-0.3-2.1-0.3
			c-1.2,0-2.3,0.2-3.1,0.7c-0.9,0.5-1.6,1.1-2.2,2c-0.6,0.8-1,1.7-1.2,2.8c-0.3,1-0.4,2.1-0.4,3.2c0,1.1,0.1,2.1,0.4,3.2
			c0.3,1,0.7,2,1.2,2.8c0.6,0.8,1.3,1.5,2.2,2c0.9,0.5,1.9,0.7,3.1,0.7c1,0,1.9-0.1,2.7-0.4c0.8-0.3,1.5-0.7,2-1.2
			c0.5-0.5,1-1.2,1.2-2c0.3-0.8,0.4-1.7,0.4-2.6h-6.1v-3h9.7V163.5z"/>
		<path class="st0" d="M44.1,155.9c0,0.9,0.1,1.6,0.4,2.2c0.3,0.6,0.7,1.1,1.2,1.5c0.5,0.4,1.1,0.7,1.8,0.9c0.7,0.2,1.4,0.3,2.2,0.3
			c0.9,0,1.6-0.1,2.2-0.3s1.1-0.5,1.5-0.8c0.4-0.3,0.7-0.7,0.8-1.1c0.2-0.4,0.3-0.8,0.3-1.3c0-0.9-0.2-1.5-0.6-1.9
			c-0.4-0.4-0.8-0.7-1.3-0.9c-0.8-0.3-1.7-0.6-2.8-0.8c-1.1-0.3-2.4-0.6-4-1c-1-0.3-1.8-0.6-2.4-1c-0.6-0.4-1.2-0.9-1.5-1.4
			c-0.4-0.5-0.7-1.1-0.8-1.6c-0.2-0.6-0.2-1.2-0.2-1.8c0-1.1,0.2-2.1,0.7-3c0.5-0.8,1.1-1.5,1.9-2.1c0.8-0.6,1.7-1,2.7-1.2
			c1-0.3,2-0.4,3-0.4c1.2,0,2.3,0.2,3.4,0.5c1.1,0.3,2,0.8,2.8,1.4c0.8,0.6,1.4,1.4,1.9,2.3c0.5,0.9,0.7,2,0.7,3.1h-4
			c-0.1-1.5-0.6-2.5-1.5-3.1c-0.9-0.6-2-0.9-3.4-0.9c-0.5,0-0.9,0-1.4,0.1c-0.5,0.1-0.9,0.3-1.3,0.5c-0.4,0.2-0.7,0.5-1,0.9
			c-0.3,0.4-0.4,0.9-0.4,1.4c0,0.8,0.2,1.4,0.7,1.9c0.5,0.5,1.2,0.8,2,1c0.1,0,0.4,0.1,1,0.3c0.6,0.2,1.2,0.3,2,0.5
			c0.7,0.2,1.4,0.4,2.1,0.6c0.7,0.2,1.2,0.3,1.5,0.4c0.7,0.2,1.4,0.6,1.9,1c0.6,0.4,1,0.9,1.4,1.4c0.4,0.5,0.6,1.1,0.8,1.7
			c0.2,0.6,0.3,1.2,0.3,1.8c0,1.3-0.3,2.4-0.8,3.3c-0.5,0.9-1.2,1.6-2.1,2.2c-0.9,0.6-1.8,1-2.9,1.3c-1.1,0.3-2.2,0.4-3.3,0.4
			c-1.3,0-2.5-0.2-3.7-0.5c-1.1-0.3-2.1-0.8-3-1.5c-0.9-0.7-1.5-1.5-2-2.5c-0.5-1-0.8-2.2-0.8-3.7H44.1z"/>
		<path class="st0" d="M77,163.5H61.8c0-1.8,0.5-3.5,1.3-4.8c0.9-1.4,2.1-2.6,3.6-3.6c0.7-0.5,1.5-1,2.3-1.5c0.8-0.5,1.5-1,2.2-1.6
			c0.7-0.6,1.2-1.2,1.6-1.9c0.4-0.7,0.6-1.4,0.7-2.3c0-0.4,0-0.8-0.1-1.3c-0.1-0.5-0.3-0.9-0.6-1.3c-0.3-0.4-0.7-0.7-1.1-1
			c-0.5-0.3-1.1-0.4-1.9-0.4c-0.7,0-1.3,0.1-1.8,0.4c-0.5,0.3-0.9,0.7-1.1,1.2c-0.3,0.5-0.5,1.1-0.6,1.8c-0.1,0.7-0.2,1.4-0.2,2.2
			h-3.6c0-1.2,0.2-2.4,0.5-3.4c0.3-1.1,0.8-2,1.5-2.7c0.7-0.8,1.5-1.4,2.4-1.8c0.9-0.4,2-0.7,3.3-0.7c1.4,0,2.5,0.2,3.4,0.7
			c0.9,0.4,1.7,1,2.2,1.7c0.6,0.7,1,1.4,1.2,2.2c0.2,0.8,0.4,1.6,0.4,2.3c0,0.9-0.1,1.7-0.4,2.4c-0.3,0.7-0.6,1.4-1.1,2
			c-0.5,0.6-1,1.2-1.6,1.7c-0.6,0.5-1.2,1-1.8,1.4c-0.6,0.4-1.3,0.9-1.9,1.3c-0.6,0.4-1.2,0.8-1.8,1.2s-1,0.8-1.4,1.3
			c-0.4,0.4-0.7,0.9-0.8,1.4H77V163.5z"/>
	</g>
	<g>
		<g>
			<linearGradient id="SVGID_1_" gradientUnits="userSpaceOnUse" x1="13.0166" y1="115.7432" x2="38.5755" y2="22.9522">
				<stop  offset="0" style="stop-color:#4D8DFF"/>
				<stop  offset="0.4088" style="stop-color:#719DFF"/>
				<stop  offset="0.7786" style="stop-color:#8AA9FF"/>
				<stop  offset="1" style="stop-color:#94ADFF"/>
			</linearGradient>
			<polygon class="st1" points="46.6,112.9 46.6,19 2.3,33.7 3.2,101.7 46.6,114.8 			"/>
		</g>
		<g>
			
				<linearGradient id="SVGID_2_" gradientUnits="userSpaceOnUse" x1="538.2159" y1="-414.7846" x2="563.7748" y2="-507.5756" gradientTransform="matrix(-1 0 0 -1 618.3652 -396.7758)">
				<stop  offset="0" style="stop-color:#4D8DFF"/>
				<stop  offset="0.4088" style="stop-color:#719DFF"/>
				<stop  offset="0.7786" style="stop-color:#8AA9FF"/>
				<stop  offset="1" style="stop-color:#94ADFF"/>
			</linearGradient>
			<polygon class="st2" points="46.6,114.8 90.9,100 90,32 46.6,19 			"/>
		</g>
	</g>
	<path class="st3" d="M58.2,64l-11,9.5h13.9c-0.5,2.8-1.9,5.1-4.3,7.2c-2.7,2.4-5.7,3.6-9,3.6c-3.9,0-7.7-1.6-11.1-4.8
		c-3.7-3.5-5.5-7.8-5.5-13.1c0-5.2,1.6-9.4,4.9-12.9c3.3-3.5,7.3-5.2,12.2-5.2c5.4,0,9.9,2.6,13.7,7.9l0.7,1l6.8-6.9l-0.7-0.8
		c-3.1-3.7-6.4-6.5-9.6-8.2c-3.4-1.7-7.1-2.5-11.1-2.5c-7.3,0-13.6,2.7-18.7,8.1c-5.1,5.3-7.7,11.9-7.7,19.6c0,7.5,2.5,14,7.6,19.4
		c5,5.3,11.2,8,18.2,8c7.2,0,13.3-2.8,18-8.3c2.1-2.5,3.6-5.2,4.5-8.1c0.9-3,1.3-6.6,1.3-10.5V64H58.2z"/>
</g>
</svg>
