<svg xmlns="http://www.w3.org/2000/svg" xmlns:xlink="http://www.w3.org/1999/xlink" width="780" height="280"><g transform="translate(-360 -380)"><path d="M380 405c0-2.76 2.24-5 5-5h730c2.76 0 5 2.24 5 5v230c0 2.76-2.24 5-5 5H385c-2.76 0-5-2.24-5-5z" stroke="#fff" fill="#0a6c8e"/><use xlink:href="#a" transform="matrix(1,0,0,1,385,405) translate(374 16)"/><path d="M400 455c0-2.76 2.24-5 5-5h690c2.76 0 5 2.24 5 5v150c0 2.76-2.24 5-5 5H405c-2.76 0-5-2.24-5-5z" stroke="#fff" fill="#99d2f2"/><use xlink:href="#b" transform="matrix(1,0,0,1,405,455) translate(0 17.77777777777778)"/><path d="M420 515c0-2.76 2.24-5 5-5h39.38c2.76 0 5 2.24 5 5v30c0 2.76-2.24 5-5 5H425c-2.76 0-5-2.24-5-5z" stroke="#fff" stroke-width="3" fill="#666"/><use xlink:href="#c" transform="matrix(1,0,0,1,425,515) translate(15.679012345679013 18.11111111111111)"/><path d="M480 515c0-2.76 2.24-5 5-5h39.38c2.76 0 5 2.24 5 5v30c0 2.76-2.24 5-5 5H485c-2.76 0-5-2.24-5-5z" stroke="#fff" stroke-width="3" fill="#666"/><use xlink:href="#d" transform="matrix(1,0,0,1,485,515) translate(15.679012345679013 18.11111111111111)"/><path d="M540 515c0-2.76 2.24-5 5-5h39.38c2.76 0 5 2.24 5 5v30c0 2.76-2.24 5-5 5H545c-2.76 0-5-2.24-5-5z" stroke="#fff" stroke-width="3" fill="#666"/><use xlink:href="#e" transform="matrix(1,0,0,1,545,515) translate(15.679012345679013 18.11111111111111)"/><path d="M756.28 515c0-2.76 2.24-5 5-5h39.44c2.76 0 5 2.24 5 5v30c0 2.76-2.24 5-5 5h-39.44c-2.76 0-5-2.24-5-5z" stroke="#fff" stroke-width="3" fill="#0a6c8e"/><use xlink:href="#f" transform="matrix(1,0,0,1,761.28,515) translate(10.493827160493828 18.11111111111111)"/><path d="M890.56 515c0-2.76 2.24-5 5-5H935c2.76 0 5 2.24 5 5v30c0 2.76-2.24 5-5 5h-39.44c-2.76 0-5-2.24-5-5z" stroke="#fff" stroke-width="3" fill="#0a6c8e"/><use xlink:href="#g" transform="matrix(1,0,0,1,895.5599999999998,515) translate(10.493827160493828 18.11111111111111)"/><path d="M822.92 515c0-2.76 2.24-5 5-5h39.44c2.76 0 5 2.24 5 5v30c0 2.76-2.24 5-5 5h-39.44c-2.76 0-5-2.24-5-5z" stroke="#fff" stroke-width="3" fill="#0a6c8e"/><use xlink:href="#h" transform="matrix(1,0,0,1,827.92,515) translate(10.493827160493828 18.11111111111111)"/><path d="M1020 515c0-2.76 2.24-5 5-5h39.44c2.76 0 5 2.24 5 5v30c0 2.76-2.24 5-5 5H1025c-2.76 0-5-2.24-5-5z" stroke="#fff" stroke-width="3" fill="#0a6c8e"/><use xlink:href="#i" transform="matrix(1,0,0,1,1025,515) translate(10.493827160493828 18.11111111111111)"/><g fill="none"><path d="M701.67 422c0-2.76-2.24-5-5-5H444c-2.76 0-5 2.24-5 5v70c0 2.76 2.24 5 5 5h252.67c2.76 0 5-2.24 5-5z"/><path d="M439 497c0-9.07 7.35-16.42 16.42-16.42h98.5c9.06 0 16.4-7.35 16.4-16.4 0 9.05 7.36 16.4 16.43 16.4h98.5c9.07 0 16.42 7.35 16.42 16.42" stroke="#666" stroke-width="2"/></g><use xlink:href="#j" transform="matrix(6.123233995736766e-17,1,-1,6.123233995736766e-17,696.6666666666667,421.9999999999999) translate(10.5 132.5)"/><g fill="none"><path d="M1033 432.67c0-2.76-2.24-5-5-5H795.33c-2.76 0-5 2.24-5 5v56.66c0 2.76 2.24 5 5 5H1028c2.76 0 5-2.24 5-5z"/><path d="M790.33 494.33c0-8.37 6.8-15.16 15.17-15.16h91c8.38 0 15.17-6.8 15.17-15.17 0 8.38 6.8 15.17 15.16 15.17h91c8.38 0 15.17 6.8 15.17 15.16" stroke="#666" stroke-width="2"/></g><use xlink:href="#k" transform="matrix(6.123233995736766e-17,1,-1,6.123233995736766e-17,1028,432.66666666666663) translate(6 122.5)"/><path d="M462 470c0-2.76 2.24-5 5-5h230c2.76 0 5 2.24 5 5v50c0 2.76-2.24 5-5 5H467c-2.76 0-5-2.24-5-5z" fill="none"/><use xlink:href="#l" transform="matrix(1,0,0,1,467,470) translate(74.90123456790124 28.11111111111111)"/><use xlink:href="#m" transform="matrix(1,0,0,1,467,470) translate(112.8395061728395 28.11111111111111)"/><path d="M795 470c0-2.76 2.24-5 5-5h230c2.76 0 5 2.24 5 5v50c0 2.76-2.24 5-5 5H800c-2.76 0-5-2.24-5-5z" fill="none"/><use xlink:href="#n" transform="matrix(1,0,0,1,800,470) translate(70.12654320987654 28.11111111111111)"/><use xlink:href="#o" transform="matrix(1,0,0,1,800,470) translate(117.6141975308642 28.11111111111111)"/><path d="M680 515c0-2.76 2.24-5 5-5h39.38c2.76 0 5 2.24 5 5v30c0 2.76-2.24 5-5 5H685c-2.76 0-5-2.24-5-5z" stroke="#fff" stroke-width="3" fill="#666"/><use xlink:href="#p" transform="matrix(1,0,0,1,685,515) translate(15.679012345679013 18.11111111111111)"/><path d="M590.73 530c0-2.76 2.24-5 5-5H669c2.76 0 5 2.24 5 5v20c0 2.76-2.24 5-5 5h-73.27c-2.76 0-5-2.24-5-5z" fill="none"/><use xlink:href="#q" transform="matrix(1,0,0,1,595.7266666666667,530) translate(-0.03703703703703809 11.11111111111111)"/><path d="M940 515c0-2.76 2.24-5 5-5h70c2.76 0 5 2.24 5 5v50c0 2.76-2.24 5-5 5h-70c-2.76 0-5-2.24-5-5z" fill="none"/><use xlink:href="#r" transform="matrix(1,0,0,1,945,515) translate(1.6666666666666643 29)"/><path d="M560 405c0-2.76 2.24-5 5-5h370c2.76 0 5 2.24 5 5v50c0 2.76-2.24 5-5 5H565c-2.76 0-5-2.24-5-5z" fill="none"/><g><use xlink:href="#s" transform="matrix(1,0,0,1,565,405) translate(29.7777777777778 29)"/><use xlink:href="#t" transform="matrix(1,0,0,1,565,405) translate(93.05555555555557 29)"/><use xlink:href="#u" transform="matrix(1,0,0,1,565,405) translate(229.55555555555557 29)"/><use xlink:href="#v" transform="matrix(1,0,0,1,565,405) translate(273.94444444444446 29)"/><use xlink:href="#w" transform="matrix(1,0,0,1,565,405) translate(301.7222222222222 29)"/></g><defs><path fill="#fff" d="M27 0v-27h64v-190l-56 39v-29l58-41h29v221h61V0H27" id="x"/><use transform="matrix(0.043209876543209874,0,0,0.043209876543209874,0,0)" xlink:href="#x" id="c"/><path fill="#fff" d="M101-251c82-7 93 87 43 132L82-64C71-53 59-42 53-27h129V0H18c2-99 128-94 128-182 0-28-16-43-45-43s-46 15-49 41l-32-3c6-41 34-60 81-64" id="y"/><use transform="matrix(0.043209876543209874,0,0,0.043209876543209874,0,0)" xlink:href="#y" id="d"/><path fill="#fff" d="M126-127c33 6 58 20 58 59 0 88-139 92-164 29-3-8-5-16-6-25l32-3c6 27 21 44 54 44 32 0 52-15 52-46 0-38-36-46-79-43v-28c39 1 72-4 72-42 0-27-17-43-46-43-28 0-47 15-49 41l-32-3c6-42 35-63 81-64 48-1 79 21 79 65 0 36-21 52-52 59" id="z"/><use transform="matrix(0.043209876543209874,0,0,0.043209876543209874,0,0)" xlink:href="#z" id="e"/><path fill="#fff" d="M30-248c87 1 191-15 191 75 0 78-77 80-158 76V0H30v-248zm33 125c57 0 124 11 124-50 0-59-68-47-124-48v98" id="A"/><g id="f"><use transform="matrix(0.043209876543209874,0,0,0.043209876543209874,0,0)" xlink:href="#x"/><use transform="matrix(0.043209876543209874,0,0,0.043209876543209874,8.641975308641975,0)" xlink:href="#A"/></g><g id="g"><use transform="matrix(0.043209876543209874,0,0,0.043209876543209874,0,0)" xlink:href="#z"/><use transform="matrix(0.043209876543209874,0,0,0.043209876543209874,8.641975308641975,0)" xlink:href="#A"/></g><g id="h"><use transform="matrix(0.043209876543209874,0,0,0.043209876543209874,0,0)" xlink:href="#y"/><use transform="matrix(0.043209876543209874,0,0,0.043209876543209874,8.641975308641975,0)" xlink:href="#A"/></g><path fill="#fff" d="M134-131c28 9 52 24 51 62-1 50-34 73-85 73S17-19 16-69c0-36 21-54 49-61-75-25-45-126 34-121 46 3 78 18 79 63 0 33-17 51-44 57zm-34-11c31 1 46-15 46-44 0-28-17-43-47-42-29 0-46 13-45 42 1 28 16 44 46 44zm1 122c35 0 51-18 51-52 0-30-18-46-53-46-33 0-51 17-51 47 0 34 19 51 53 51" id="B"/><g id="i"><use transform="matrix(0.043209876543209874,0,0,0.043209876543209874,0,0)" xlink:href="#B"/><use transform="matrix(0.043209876543209874,0,0,0.043209876543209874,8.641975308641975,0)" xlink:href="#A"/></g><path fill="#666" d="M24-248c120-7 223 5 221 122C244-46 201 0 124 0H24v-248zM76-40c74 7 117-18 117-86 0-67-45-88-117-82v168" id="C"/><path fill="#666" d="M133-34C117-15 103 5 69 4 32 3 11-16 11-54c-1-60 55-63 116-61 1-26-3-47-28-47-18 1-26 9-28 27l-52-2c7-38 36-58 82-57s74 22 75 68l1 82c-1 14 12 18 25 15v27c-30 8-71 5-69-32zm-48 3c29 0 43-24 42-57-32 0-66-3-65 30 0 17 8 27 23 27" id="D"/><path fill="#666" d="M115-3C79 11 28 4 28-45v-112H4v-33h27l15-45h31v45h36v33H77v99c-1 23 16 31 38 25v30" id="E"/><g id="l"><use transform="matrix(0.043209876543209874,0,0,0.043209876543209874,0,0)" xlink:href="#C"/><use transform="matrix(0.043209876543209874,0,0,0.043209876543209874,11.191358024691358,0)" xlink:href="#D"/><use transform="matrix(0.043209876543209874,0,0,0.043209876543209874,19.833333333333332,0)" xlink:href="#E"/><use transform="matrix(0.043209876543209874,0,0,0.043209876543209874,24.975308641975307,0)" xlink:href="#D"/></g><path fill="#666" d="M182-130c37 4 62 22 62 59C244 23 116-4 24 0v-248c84 5 203-23 205 63 0 31-19 50-47 55zM76-148c40-3 101 13 101-30 0-44-60-28-101-31v61zm0 110c48-3 116 14 116-37 0-48-69-32-116-35v72" id="F"/><path fill="#666" d="M25 0v-261h50V0H25" id="G"/><path fill="#666" d="M110-194c64 0 96 36 96 99 0 64-35 99-97 99-61 0-95-36-95-99 0-62 34-99 96-99zm-1 164c35 0 45-28 45-65 0-40-10-65-43-65-34 0-45 26-45 65 0 36 10 65 43 65" id="H"/><path fill="#666" d="M190-63c-7 42-38 67-86 67-59 0-84-38-90-98-12-110 154-137 174-36l-49 2c-2-19-15-32-35-32-30 0-35 28-38 64-6 74 65 87 74 30" id="I"/><path fill="#666" d="M147 0L96-86 75-71V0H25v-261h50v150l67-79h53l-66 74L201 0h-54" id="J"/><g id="m"><use transform="matrix(0.043209876543209874,0,0,0.043209876543209874,0,0)" xlink:href="#F"/><use transform="matrix(0.043209876543209874,0,0,0.043209876543209874,11.191358024691358,0)" xlink:href="#G"/><use transform="matrix(0.043209876543209874,0,0,0.043209876543209874,15.512345679012345,0)" xlink:href="#H"/><use transform="matrix(0.043209876543209874,0,0,0.043209876543209874,24.975308641975307,0)" xlink:href="#I"/><use transform="matrix(0.043209876543209874,0,0,0.043209876543209874,33.61728395061728,0)" xlink:href="#J"/></g><path fill="#666" d="M24-248c93 1 206-16 204 79-1 75-69 88-152 82V0H24v-248zm52 121c47 0 100 7 100-41 0-47-54-39-100-39v80" id="K"/><path fill="#666" d="M135-150c-39-12-60 13-60 57V0H25l-1-190h47c2 13-1 29 3 40 6-28 27-53 61-41v41" id="L"/><path fill="#666" d="M25-224v-37h50v37H25zM25 0v-190h50V0H25" id="M"/><path fill="#666" d="M123 10C108 53 80 86 19 72V37c35 8 53-11 59-39L3-190h52l48 148c12-52 28-100 44-148h51" id="N"/><g id="n"><use transform="matrix(0.043209876543209874,0,0,0.043209876543209874,0,0)" xlink:href="#K"/><use transform="matrix(0.043209876543209874,0,0,0.043209876543209874,10.37037037037037,0)" xlink:href="#D"/><use transform="matrix(0.043209876543209874,0,0,0.043209876543209874,19.012345679012345,0)" xlink:href="#L"/><use transform="matrix(0.043209876543209874,0,0,0.043209876543209874,25.061728395061728,0)" xlink:href="#M"/><use transform="matrix(0.043209876543209874,0,0,0.043209876543209874,29.382716049382715,0)" xlink:href="#E"/><use transform="matrix(0.043209876543209874,0,0,0.043209876543209874,34.52469135802469,0)" xlink:href="#N"/></g><g id="o"><use transform="matrix(0.043209876543209874,0,0,0.043209876543209874,0,0)" xlink:href="#F"/><use transform="matrix(0.043209876543209874,0,0,0.043209876543209874,11.191358024691358,0)" xlink:href="#G"/><use transform="matrix(0.043209876543209874,0,0,0.043209876543209874,15.512345679012345,0)" xlink:href="#H"/><use transform="matrix(0.043209876543209874,0,0,0.043209876543209874,24.975308641975307,0)" xlink:href="#I"/><use transform="matrix(0.043209876543209874,0,0,0.043209876543209874,33.61728395061728,0)" xlink:href="#J"/></g><use transform="matrix(0.043209876543209874,0,0,0.043209876543209874,0,0)" xlink:href="#B" id="p"/><path fill="#666" d="M24 0v-54h51V0H24" id="O"/><g id="q"><use transform="matrix(0.06172839506172839,0,0,0.06172839506172839,0,0)" xlink:href="#O"/><use transform="matrix(0.06172839506172839,0,0,0.06172839506172839,6.172839506172839,0)" xlink:href="#O"/><use transform="matrix(0.06172839506172839,0,0,0.06172839506172839,12.345679012345679,0)" xlink:href="#O"/><use transform="matrix(0.06172839506172839,0,0,0.06172839506172839,18.51851851851852,0)" xlink:href="#O"/><use transform="matrix(0.06172839506172839,0,0,0.06172839506172839,24.691358024691358,0)" xlink:href="#O"/><use transform="matrix(0.06172839506172839,0,0,0.06172839506172839,30.864197530864196,0)" xlink:href="#O"/><use transform="matrix(0.06172839506172839,0,0,0.06172839506172839,37.03703703703704,0)" xlink:href="#O"/><use transform="matrix(0.06172839506172839,0,0,0.06172839506172839,43.20987654320988,0)" xlink:href="#O"/><use transform="matrix(0.06172839506172839,0,0,0.06172839506172839,49.38271604938272,0)" xlink:href="#O"/><use transform="matrix(0.06172839506172839,0,0,0.06172839506172839,55.555555555555564,0)" xlink:href="#O"/><use transform="matrix(0.06172839506172839,0,0,0.06172839506172839,61.728395061728406,0)" xlink:href="#O"/><use transform="matrix(0.06172839506172839,0,0,0.06172839506172839,67.90123456790124,0)" xlink:href="#O"/></g><g id="r"><use transform="matrix(0.05555555555555555,0,0,0.05555555555555555,0,0)" xlink:href="#O"/><use transform="matrix(0.05555555555555555,0,0,0.05555555555555555,5.555555555555555,0)" xlink:href="#O"/><use transform="matrix(0.05555555555555555,0,0,0.05555555555555555,11.11111111111111,0)" xlink:href="#O"/><use transform="matrix(0.05555555555555555,0,0,0.05555555555555555,16.666666666666664,0)" xlink:href="#O"/><use transform="matrix(0.05555555555555555,0,0,0.05555555555555555,22.22222222222222,0)" xlink:href="#O"/><use transform="matrix(0.05555555555555555,0,0,0.05555555555555555,27.77777777777778,0)" xlink:href="#O"/><use transform="matrix(0.05555555555555555,0,0,0.05555555555555555,33.333333333333336,0)" xlink:href="#O"/><use transform="matrix(0.05555555555555555,0,0,0.05555555555555555,38.88888888888889,0)" xlink:href="#O"/><use transform="matrix(0.05555555555555555,0,0,0.05555555555555555,44.44444444444445,0)" xlink:href="#O"/><use transform="matrix(0.05555555555555555,0,0,0.05555555555555555,50.00000000000001,0)" xlink:href="#O"/><use transform="matrix(0.05555555555555555,0,0,0.05555555555555555,55.555555555555564,0)" xlink:href="#O"/><use transform="matrix(0.05555555555555555,0,0,0.05555555555555555,61.11111111111112,0)" xlink:href="#O"/></g><path fill="#fff" d="M140-251c81 0 123 46 123 126C263-46 219 4 140 4 59 4 17-45 17-125s42-126 123-126zm0 227c63 0 89-41 89-101s-29-99-89-99c-61 0-89 39-89 99S79-25 140-24" id="P"/><path fill="#fff" d="M115-194c53 0 69 39 70 98 0 66-23 100-70 100C84 3 66-7 56-30L54 0H23l1-261h32v101c10-23 28-34 59-34zm-8 174c40 0 45-34 45-75 0-40-5-75-45-74-42 0-51 32-51 76 0 43 10 73 51 73" id="Q"/><path fill="#fff" d="M24-231v-30h32v30H24zM-9 49c24 4 33-6 33-30v-209h32V24c2 40-23 58-65 49V49" id="R"/><path fill="#fff" d="M100-194c63 0 86 42 84 106H49c0 40 14 67 53 68 26 1 43-12 49-29l28 8c-11 28-37 45-77 45C44 4 14-33 15-96c1-61 26-98 85-98zm52 81c6-60-76-77-97-28-3 7-6 17-6 28h103" id="S"/><path fill="#fff" d="M96-169c-40 0-48 33-48 73s9 75 48 75c24 0 41-14 43-38l32 2c-6 37-31 61-74 61-59 0-76-41-82-99-10-93 101-131 147-64 4 7 5 14 7 22l-32 3c-4-21-16-35-41-35" id="T"/><path fill="#fff" d="M59-47c-2 24 18 29 38 22v24C64 9 27 4 27-40v-127H5v-23h24l9-43h21v43h35v23H59v120" id="U"/><g id="s"><use transform="matrix(0.05555555555555555,0,0,0.05555555555555555,0,0)" xlink:href="#P"/><use transform="matrix(0.05555555555555555,0,0,0.05555555555555555,15.555555555555555,0)" xlink:href="#Q"/><use transform="matrix(0.05555555555555555,0,0,0.05555555555555555,26.666666666666664,0)" xlink:href="#R"/><use transform="matrix(0.05555555555555555,0,0,0.05555555555555555,31.055555555555554,0)" xlink:href="#S"/><use transform="matrix(0.05555555555555555,0,0,0.05555555555555555,42.166666666666664,0)" xlink:href="#T"/><use transform="matrix(0.05555555555555555,0,0,0.05555555555555555,52.166666666666664,0)" xlink:href="#U"/></g><path fill="#fff" d="M30 0v-248h187v28H63v79h144v27H63v87h162V0H30" id="V"/><path fill="#fff" d="M114-163C36-179 61-72 57 0H25l-1-190h30c1 12-1 29 2 39 6-27 23-49 58-41v29" id="W"/><path fill="#fff" d="M141-36C126-15 110 5 73 4 37 3 15-17 15-53c-1-64 63-63 125-63 3-35-9-54-41-54-24 1-41 7-42 31l-33-3c5-37 33-52 76-52 45 0 72 20 72 64v82c-1 20 7 32 28 27v20c-31 9-61-2-59-35zM48-53c0 20 12 33 32 33 41-3 63-29 60-74-43 2-92-5-92 41" id="X"/><path fill="#fff" d="M135-143c-3-34-86-38-87 0 15 53 115 12 119 90S17 21 10-45l28-5c4 36 97 45 98 0-10-56-113-15-118-90-4-57 82-63 122-42 12 7 21 19 24 35" id="Y"/><path fill="#fff" d="M84 4C-5 8 30-112 23-190h32v120c0 31 7 50 39 49 72-2 45-101 50-169h31l1 190h-30c-1-10 1-25-2-33-11 22-28 36-60 37" id="Z"/><path fill="#fff" d="M16-82v-28h88v28H16" id="aa"/><path fill="#fff" d="M100-194c62-1 85 37 85 99 1 63-27 99-86 99S16-35 15-95c0-66 28-99 85-99zM99-20c44 1 53-31 53-75 0-43-8-75-51-75s-53 32-53 75 10 74 51 75" id="ab"/><path fill="#fff" d="M85-194c31 0 48 13 60 33l-1-100h32l1 261h-30c-2-10 0-23-3-31C134-8 116 4 85 4 32 4 16-35 15-94c0-66 23-100 70-100zm9 24c-40 0-46 34-46 75 0 40 6 74 45 74 42 0 51-32 51-76 0-42-9-74-50-73" id="ac"/><g id="t"><use transform="matrix(0.05555555555555555,0,0,0.05555555555555555,0,0)" xlink:href="#V"/><use transform="matrix(0.05555555555555555,0,0,0.05555555555555555,13.333333333333332,0)" xlink:href="#W"/><use transform="matrix(0.05555555555555555,0,0,0.05555555555555555,19.944444444444443,0)" xlink:href="#X"/><use transform="matrix(0.05555555555555555,0,0,0.05555555555555555,31.055555555555554,0)" xlink:href="#Y"/><use transform="matrix(0.05555555555555555,0,0,0.05555555555555555,41.05555555555556,0)" xlink:href="#Z"/><use transform="matrix(0.05555555555555555,0,0,0.05555555555555555,52.16666666666667,0)" xlink:href="#W"/><use transform="matrix(0.05555555555555555,0,0,0.05555555555555555,58.777777777777786,0)" xlink:href="#S"/><use transform="matrix(0.05555555555555555,0,0,0.05555555555555555,69.8888888888889,0)" xlink:href="#aa"/><use transform="matrix(0.05555555555555555,0,0,0.05555555555555555,76.50000000000001,0)" xlink:href="#T"/><use transform="matrix(0.05555555555555555,0,0,0.05555555555555555,86.50000000000001,0)" xlink:href="#ab"/><use transform="matrix(0.05555555555555555,0,0,0.05555555555555555,97.61111111111113,0)" xlink:href="#ac"/><use transform="matrix(0.05555555555555555,0,0,0.05555555555555555,108.72222222222224,0)" xlink:href="#S"/><use transform="matrix(0.05555555555555555,0,0,0.05555555555555555,119.83333333333336,0)" xlink:href="#ac"/></g><path fill="#fff" d="M108 0H70L1-190h34L89-25l56-165h34" id="ad"/><g id="u"><use transform="matrix(0.05555555555555555,0,0,0.05555555555555555,0,0)" xlink:href="#ab"/><use transform="matrix(0.05555555555555555,0,0,0.05555555555555555,11.11111111111111,0)" xlink:href="#ad"/><use transform="matrix(0.05555555555555555,0,0,0.05555555555555555,21.11111111111111,0)" xlink:href="#S"/><use transform="matrix(0.05555555555555555,0,0,0.05555555555555555,32.22222222222222,0)" xlink:href="#W"/></g><path fill="#fff" d="M110-160c48 1 74 30 74 79 0 53-28 85-80 85-65 0-83-55-86-122-5-90 50-162 133-122 14 7 22 21 27 39l-31 6c-5-40-67-38-82-6-9 19-15 44-15 74 11-20 30-34 60-33zm-7 138c34 0 49-23 49-58s-16-56-50-56c-29 0-50 16-49 49 1 36 15 65 50 65" id="ae"/><g id="v"><use transform="matrix(0.05555555555555555,0,0,0.05555555555555555,0,0)" xlink:href="#x"/><use transform="matrix(0.05555555555555555,0,0,0.05555555555555555,11.11111111111111,0)" xlink:href="#ae"/></g><path fill="#fff" d="M30-248c118-7 216 8 213 122C240-48 200 0 122 0H30v-248zM63-27c89 8 146-16 146-99s-60-101-146-95v194" id="af"/><path fill="#fff" d="M24-231v-30h32v30H24zM24 0v-190h32V0H24" id="ag"/><g id="w"><use transform="matrix(0.05555555555555555,0,0,0.05555555555555555,0,0)" xlink:href="#af"/><use transform="matrix(0.05555555555555555,0,0,0.05555555555555555,14.388888888888888,0)" xlink:href="#W"/><use transform="matrix(0.05555555555555555,0,0,0.05555555555555555,21,0)" xlink:href="#ag"/><use transform="matrix(0.05555555555555555,0,0,0.05555555555555555,25.38888888888889,0)" xlink:href="#ad"/><use transform="matrix(0.05555555555555555,0,0,0.05555555555555555,35.388888888888886,0)" xlink:href="#S"/><use transform="matrix(0.05555555555555555,0,0,0.05555555555555555,46.5,0)" xlink:href="#Y"/></g></defs></g></svg>